<?xml version="1.0" encoding="UTF-8"?>
<!-- Generator: Gravit.io -->
<svg width="48pt" height="48pt" style="isolation:isolate" version="1.1" viewBox="0 0 48 48" xmlns="http://www.w3.org/2000/svg" xmlns:xlink="http://www.w3.org/1999/xlink">
 <defs>
  <linearGradient id="linearGradient890" x1="3.334" x2="60.227" y1="32.22" y2="32.22" gradientTransform="matrix(.5086 0 0 .5086 5.9645 28.393)" gradientUnits="userSpaceOnUse">
   <stop stop-color="#FF823B" offset="0"/>
   <stop stop-color="#FF005B" offset=".98696"/>
  </linearGradient>
  <clipPath id="clipPath1512">
   <use xlink:href="#g1508"/>
  </clipPath>
  <radialGradient id="radialGradient2503" cx="37.621" cy="14.941" r="14.054" gradientTransform="matrix(-1.1659 1.1989 -1.0449 -1.0161 84.02 -15.342)" gradientUnits="userSpaceOnUse">
   <stop stop-color="#6790eb" offset="0"/>
   <stop stop-color="#bb4181" stop-opacity=".82353" offset="1"/>
  </radialGradient>
 </defs>
 <path d="m3.5541 44.586c0-0.14065 20.401-38.949 21.085-40.109l0.47248-0.80162 0.51604 0.90548c0.28383 0.498 2.3638 4.4573 4.6222 8.7985 2.2584 4.3412 6.8124 13.069 10.12 19.396 4.6413 8.8776 5.9499 11.543 5.7335 11.681-0.15422 0.09772-2.0128 0.17912-4.1302 0.18088l-3.8498 0.0032-1.1353-1.1512c-2.8483-2.8882-7.8267-5.5067-13.39-7.0429l-2.4925-0.68824 3.1157-0.15628c2.9269-0.1468 6.2287-0.04783 8.0339 0.24084 0.60338 0.09649 0.79379 0.05695 0.79379-0.1648 0-0.54786-7.6376-14.509-7.9373-14.509-0.21844 0-1.7603 2.6876-7.7456 13.501-2.9403 5.3122-5.3622 9.6783-5.382 9.7023-0.0886 0.10752-8.4301 0.31953-8.4301 0.21424z" fill="url(#radialGradient2503)" stroke-width=".20771"/>
 <g transform="translate(-4.8745 -32.934)" clip-path="url(#clipPath1512)">
  <g id="g1508">
   <path d="m11.388 35.279c-0.11631-0.0904-0.09957 0.37672 0.07469 1.1492 0.1678 0.74387 0.88435 1.7088 1.6646 2.2406 0.23124 0.15761 0.49479 0.34429 0.58535 0.41451 0.4202 0.32583 1.2746 0.66457 3.022 1.1968l1.8951 0.57695 0.59282 0.53494c0.408 0.36817 0.66518 0.69906 0.82528 1.0605l0.23246 0.52467-0.29874 0.08869c-0.16452 0.04881-0.39292 0.15013-0.50693 0.22499-0.25791 0.16933-0.74111 0.77399-0.9233 1.1548-0.1523 0.31834-0.06304 0.38583 0.49199 0.3697 0.92302-0.02684 1.3203 0.03116 1.6394 0.23806 0.69335 0.44965 0.79178 0.54397 0.9093 0.87569 0.06691 0.18889 0.1582 0.42091 0.20352 0.51533 0.04532 0.09442 0.17536 0.37188 0.28847 0.61709 0.30285 0.65658-0.01372 0.30831-0.59282-0.65257-0.51744-0.85858-0.69271-1.0312-1.181-1.1632-0.27014-0.07307-0.37385-0.0351-0.73939 0.2726-0.3946 0.33218-0.44009 0.41185-0.62643 1.1007-0.1416 0.52346-0.1791 0.85804-0.1279 1.1352 0.03994 0.21621 0.08944 0.39767 0.11016 0.4033 0.10215 0.02763 0.63-0.08672 0.71045-0.15404 0.12842-0.10747 1.8803 0.37951 2.1192 0.58908 0.10653 0.09347 0.34649 0.26506 0.534 0.38183 0.18752 0.11676 0.50057 0.36865 0.69551 0.55921 0.19494 0.19056 0.4848 0.46987 0.64323 0.62082 0.19942 0.19001 0.31558 0.4329 0.3781 0.78887 0.15392 0.87645 0.49824 1.3617 1.0577 1.4909 0.16131 0.03727 0.06459 0.33839-0.20258 0.63016-0.12232 0.13361-0.21128 0.26263-0.19698 0.28754 0.05961 0.10382 0.54719-0.15626 0.73659-0.39303 0.11245-0.14059 0.18824-0.18756 0.16804-0.10456-0.0203 0.08298-0.14942 0.23486-0.28661 0.33702-0.13719 0.10216-0.26219 0.23085-0.27727 0.28661h9.56e-4c-0.09029 0.33378 0.90048-0.16337 1.0587-0.5312 0.04667-0.10853 0.21329-0.21825 0.37716-0.24833 0.50528-0.09277 0.66872-0.46615 0.67871-1.5525 0.0036-0.39541-0.14172-0.54654-0.22592-0.23526-0.06398 0.23654-0.46705 0.47128-0.70111 0.40797-0.15347-0.04151-0.15957-0.09371-0.04014-0.35756 0.13297-0.29378 0.13138-0.91221-0.0028-0.94851-0.03459-0.0094-0.15123 0.10815-0.2586 0.2614-0.10737 0.15325-0.31978 0.34524-0.47239 0.42664l-0.2782 0.1475-0.17551-0.2782c-0.09656-0.15308-0.2803-0.41829-0.4089-0.59002-0.31057-0.4147-0.56552-1.1778-0.92237-2.7634l-0.18485-0.82154 0.23806-0.08589c0.31887-0.11525 0.44914-0.06751 0.7758 0.281 0.37738 0.40271 1.0931 0.59672 1.56 0.42384 0.29782-0.11026 0.41449-0.09784 0.93917 0.09802 0.51973 0.19402 0.63055 0.27651 0.83555 0.62176 0.16336 0.27512 0.32445 0.42229 0.52 0.47519 0.27405 0.07413 0.27883 0.0899 0.16804 0.49946-0.06292 0.2326-0.21195 0.5972-0.33142 0.81034-0.1195 0.21313-0.20064 0.41621-0.18018 0.45185 0.02046 0.03565 0.18576 0.0073 0.36689-0.06348 0.32738-0.1279 1.1851-0.99257 1.2603-1.2706 0.05535-0.20462 0.26374-0.2793 0.68804-0.24553 0.35334 0.02812 0.36368 0.03867 0.29314 0.29501-0.04006 0.14589-0.18667 0.44683-0.32582 0.66937-0.18992 0.30372-0.22481 0.41179-0.14097 0.43411 0.17785 0.04702 0.65941-0.42362 0.91677-0.89623 0.12999-0.23872 0.36096-0.50301 0.51346-0.58722 0.35058-0.19361 0.40178-0.3877 0.22406-0.84395-0.1291-0.33141-0.12406-0.38172 0.05601-0.57695 0.235-0.25478 0.26633-0.34934 0.23152-0.69924l-0.02614-0.26513-0.68524 0.44625-0.43784-0.24833c-0.34253-0.19387-0.55854-0.25588-0.99519-0.28474-0.36604-0.02419-0.60828-0.08345-0.70204-0.17178-0.07864-0.07408-0.36766-0.22414-0.6423-0.33422-0.39395-0.15789-0.53388-0.26955-0.66377-0.52934-0.09056-0.18111-0.13785-0.42747-0.10549-0.54707 0.0939-0.34715-0.28153-0.7981-1.0839-1.3014-0.40504-0.25407-0.70429-0.49222-0.6647-0.52934 0.11622-0.10893-0.23916-0.77059-0.65817-1.2248-0.68074-0.73801-1.8907-1.4737-3.8519-2.3423-0.53806-0.23832-1.0114-0.47556-1.0521-0.52747-0.04074-0.0519-0.2649-0.19986-0.49853-0.32862-0.50023-0.27567-0.84188-0.57253-1.1268-0.97932-0.44226-0.63137-0.3702-0.03045 0.09802 0.81687 0.16904 0.30591 0.34196 0.5654 0.38463 0.57695 0.04266 0.01154 0.23012 0.15421 0.41637 0.31648 0.18625 0.16227 0.71721 0.46879 1.18 0.68151 1.236 0.56806 1.7263 1.0276 2.501 2.347 0.35675 0.60752 0.63867 1.1422 0.62643 1.1875-0.01225 0.04528-0.22208 0.03267-0.46585-0.028-0.24377-0.06067-0.36443-0.10938-0.26887-0.10829 0.31276 0.0036 0.2849-0.37434-0.07655-1.0447-0.27521-0.51038-0.83203-1.0332-1.5208-1.4284-0.51059-0.29298-3.0772-1.005-5.7471-1.5945-1.3735-0.3033-1.8994-0.45476-2.2639-0.65163-0.8189-0.44228-1.7822-1.5579-2.1808-2.5244-0.06737-0.16334-0.12087-0.25554-0.15964-0.28567zm1.3023 4.1684c-0.12117 0.01241-0.14016 0.06276-0.0093 0.15964 0.08824 0.06534 0.30534 0.16242 0.48266 0.21566 0.17731 0.05325 0.46948 0.21714 0.64883 0.36409l0.32582 0.267-1.1306-0.31368c-0.95909-0.26564-1.1621-0.29448-1.3378-0.19418-0.19735 0.11265-0.17664 0.12608 0.44438 0.29407 0.4294 0.11615 0.701 0.23942 0.7954 0.36129 0.13097 0.16909 0.09331 0.17165-0.43878 0.03081-0.32013-0.08486-0.66434-0.13852-0.76459-0.1195-0.10026 0.01901-0.40642 0.07626-0.68057 0.1279-0.27415 0.05164-0.50944 0.1345-0.5228 0.18391-0.01354 0.05005 0.0559 0.07852 0.15684 0.06442 0.41298-0.05772 1.2669 0.16981 1.462 0.3893 0.0765 0.08607-4.5356 0.01783-0.36129 0.50133 0.71928 0.08331-3.5557 0.25968-1.0652 0.67777 0.38335 0.06436-0.20797 0.31674-0.89623 0.3865 0.00741-0.06662 0.024275-0.24366 0.024275-0.24366 0.13303-0.53603-0.16855-1.074-0.67591-1.236 0 0-0.37018-0.08294-0.62363 0.02334-0.33154 0.13594-0.60979 0.45677-0.71418 0.87476-0.10709 0.36353-0.1531 0.92607-0.1251 1.5096-0.042331 1.3666 0.013294 1.9732 0.040145 2.2434 0.00542 0.0586 0.011586 0.11704 0.017737 0.17551 0.091106 0.76616 0.10417 1.5185 0.56948 2.7783 0.13378 0.43282 0.28606 0.85903 0.45932 1.2771 1.115e-4 2.69e-4 -1.109e-4 7.01e-4 0 9.56e-4 3.1212 6.0854 5.8675 7.022 8.8465 8.2434l0.6361 0.2608 0.76658-1.4883c-1.3074-0.63166-0.55964-0.22212-2.1271-1.2474-0.98687-0.64552-1.1591-1.1265-1.5497-1.6085-0.53066-0.65481-0.73241-0.97609-1.0269-1.6366-0.74221-1.6644-0.83521-3.6765-0.23059-4.9722 0.27185-0.5826 0.83634-1.3618 1.153-1.5908 0.77136-0.55792 1.6596-0.92314 2.4805-1.0213 0.44201-0.05289 0.49519-0.08586 0.5032-0.30621 0.0049-0.1356 0.05509-0.50244 0.1111-0.81594 0.12251-0.686 0.30681-0.91426 0.89156-1.1025l0.41824-0.13443-0.31088-0.48359c-0.35592-0.55424-1.1536-1.2909-1.5002-1.3854-0.12953-0.03537-0.56314 0.02258-0.96344 0.12883-0.4003 0.10626-0.8191 0.21675-0.93077 0.24553-0.11166 0.02878-0.36427 0.11656-0.56108 0.19605-2.5828 1.0432-4.0617 2.3029-5.3139 4.5241-0.09698 0.17202-0.16313 0.29706-0.23526 0.43131-0.019317-0.13184-0.034351-0.26412-0.049481-0.39677 0.16313-0.29439 0.34074-0.58681 0.54147-0.88502 0.44567-0.66213 1.3675-1.7299 1.5824-1.8326 0.0366-0.01748 0.1697-0.12559 0.29594-0.24086 0.9191-0.83923 2.8745-1.8506 4.0909-2.1155 0.40059-0.08724 0.76869-0.1811 0.81781-0.20819 0.04913-0.02709-0.15113-0.11379-0.44531-0.19325-0.29418-0.07946-0.91652-0.30604-1.3836-0.5032-0.93814-0.39604-2.2244-0.69819-2.5879-0.66097zm10.719 1.0717c0.03719-0.03118 0.29922 0.18293 0.6395 0.56481 0.26095 0.29285 0.62705 0.59626 0.81314 0.67404 0.54644 0.22836 1.0748 0.54682 1.0512 0.6339-0.01201 0.04442-0.05135 0.06677-0.08776 0.04948-0.03642-0.01725-0.45967-0.21481-0.94011-0.43878-0.61706-0.28766-0.88644-0.45994-0.91863-0.58815-0.02507-0.09982-0.18203-0.35055-0.34916-0.55734-0.17114-0.21176-0.2305-0.31925-0.20819-0.33795zm-2.277 0.72538c0.0081-0.0041 0.02599 0.0055 0.05415 0.03175 0.08751 0.08147 0.23251 0.2886 0.32302 0.46025 0.21623 0.41011 0.53505 0.6951 1.0344 0.92517l0.40797 0.18765-0.46865-0.11483c-0.35724-0.08771-0.53125-0.18958-0.73099-0.42851-0.28107-0.33623-0.67641-1.033-0.61989-1.0615zm-2.9884 1.5703c0.16256 0.0078 0.30748 0.03319 0.32115 0.05694 0.01365 0.02378-0.09601 0.22663-0.24366 0.45092-0.21761 0.33053-0.27764 0.51208-0.31368 0.95878-0.02445 0.30312-0.08206 0.57504-0.12883 0.60402-0.1281 0.07939-0.28866-0.69353-0.24086-1.1595 0.06576-0.64106 0.25631-0.92795 0.60589-0.91116zm-1.1716 0.09242c0.19038-0.0054 0.20476 0.04001 0.1447 0.43224-0.03884 0.25364 0.0022 0.66627 0.09709 0.98212 0.09011 0.29982 0.13037 0.57709 0.08869 0.61616-0.15584 0.14607-0.42832-0.03418-0.55081-0.36503-0.15158-0.4094-0.20934-1.5462-0.08215-1.6123 0.04948-0.02572 0.18561-0.04989 0.30248-0.05322zm-0.87382 0.15777c0.11455 0.01299 0.14303 0.10671 0.09336 0.29034-0.05213 0.19271 0.07673 0.89984 0.20912 1.1464 0.04672 0.08704 0.11896 0.23936 0.16057 0.33795 0.06223 0.14744 0.03632 0.19898-0.14657 0.29221-0.21289 0.10852-0.22872 0.10088-0.37156-0.18951-0.21695-0.44106-0.41314-1.3517-0.34542-1.602 0.03212-0.11874 0.14755-0.23617 0.25673-0.2614 0.05757-0.01331 0.10558-0.01834 0.14377-0.014zm-0.96158 0.21379c0.13524-0.01606 0.15713 0.09923 0.19325 0.49573 0.0243 0.26676 0.17596 0.72302 0.33608 1.0139 0.28495 0.51755 0.28553 0.52996 0.06255 0.59748-0.20844 0.06313-0.25689 0.01596-0.57041-0.55454-0.18848-0.34296-0.35544-0.80313-0.37156-1.0223-0.02667-0.36245-0.01109-0.40542 0.17271-0.47612 0.07492-0.02882 0.1323-0.04879 0.17738-0.05415zm-0.96998 0.33702c0.14068-0.02937 0.24005 0.06533 0.2474 0.25953 0.01252 0.33118 0.33275 1.032 0.59282 1.2986 0.12414 0.12725 0.23093 0.28827 0.23806 0.35756 0.0071 0.06928-0.04738 0.15242-0.12136 0.18485-0.17149 0.07516-0.62051-0.40852-0.97838-1.054-0.30277-0.54612-0.3402-0.82701-0.1307-0.97465 0.05417-0.03818 0.10528-0.06209 0.15217-0.07189zm-0.72725 0.43878c0.0472-0.0077 0.07282 0.0025 0.06442 0.03361-0.06092 0.22521 0.57739 1.2565 0.94197 1.5217 0.39091 0.28442 0.41435 0.34343 0.19138 0.47145-0.07782 0.0447-0.18461 0.06611-0.23713 0.04761-0.15967-0.05634-0.59601-0.37761-0.62643-0.46118-0.01571-0.04317-0.13699-0.1769-0.26887-0.29688-0.24447-0.2224-0.61112-0.86718-0.57321-1.0073 0.01152-0.04259 0.15179-0.1471 0.31181-0.23246 0.08001-0.04268 0.14885-0.06889 0.19605-0.07655zm10.702 0.07095c0.04218-0.0047 0.19818 0.03408 0.50506 0.11203 0.63813 0.16208 1.1479 0.50479 1.3957 0.93637 0.08555 0.14898 0.07829 0.18055-0.05322 0.22126-0.34952 0.10818-0.83698-0.12583-1.1044-0.53027-0.14336-0.2168-0.39797-0.48284-0.56574-0.59095-0.14795-0.09534-0.21957-0.14382-0.17738-0.14844zm-11.68 0.58442c0.08944-0.01838 0.16749 0.08826 0.3921 0.44345 0.30678 0.48512 0.91702 1.0142 1.2827 1.1119 0.14011 0.03747 0.13969 0.06561-0.0028 0.19792-0.18858 0.17511-0.2081 0.17088-0.73565-0.14377-0.47808-0.28514-0.95942-0.75476-1.111-1.0839-0.1369-0.29734-0.13544-0.30675 0.07562-0.46959 0.038-0.02932 0.06915-0.04989 0.09896-0.05601zm-0.74032 0.6563c0.07984-0.0022 0.18625 0.10092 0.4061 0.37063 0.43417 0.53262 0.80752 0.79998 1.3014 0.93357 0.29678 0.08028 0.34834 0.12429 0.27074 0.23059-0.05281 0.07236-0.10066 0.14949-0.10643 0.17084-0.02012 0.0744-1.0873-0.25282-1.1539-0.35382-0.03689-0.05598-0.19811-0.19694-0.35849-0.31275-0.32519-0.23479-0.62316-0.64412-0.57975-0.79634 0.01564-0.05469 0.08155-0.14854 0.14657-0.20819 0.02393-0.02195 0.04714-0.03381 0.07375-0.03454zm-0.60495 0.73192c0.06857-0.01356 0.14575 0.05616 0.29781 0.2474 0.3699 0.46522 0.73181 0.7023 1.3453 0.88036 0.30221 0.08773 0.54765 0.16698 0.5452 0.17644-0.0024 0.0095-0.07445 0.11314-0.15964 0.23059-0.12513 0.17253-0.21229 0.19596-0.45558 0.12136-0.59158-0.18146-1.0731-0.4765-1.4424-0.88409-0.37809-0.41733-0.411-0.5374-0.19885-0.73192 0.02357-0.02161 0.04529-0.03562 0.06815-0.04014zm17.821 0.05041c0.04465 0.0066 0.11336 0.05819 0.21192 0.14844 0.23725 0.21726 0.23872 0.23038 0.03641 0.36036-0.26725 0.1717-0.274 0.16892-0.30528-0.14564-0.02597-0.26105-0.01747-0.37408 0.05695-0.36316zm-18.264 0.68057 0.2782 0.32302c0.1528 0.17765 0.37861 0.37488 0.50226 0.43878 0.12366 0.06391 0.32907 0.19142 0.45558 0.28287 0.12651 0.09146 0.40376 0.18474 0.61616 0.20725 0.30148 0.03196 0.37762 0.07026 0.34916 0.17551-0.02006 0.07415-0.08073 0.14804-0.13537 0.16431-0.19739 0.05878-0.93409-0.11219-1.3201-0.30621-0.73694-0.37041-1.0441-0.75281-0.86355-1.0755zm13.589 0.51533c-0.17448-0.0035-0.07961 0.1183 0.32768 0.33609 0.56589 0.30259 1.0561 0.80566 1.5889 1.6291 0.53681 0.82954 1.253 1.7403 1.5217 1.9362 0.11369 0.08289 0.31684 0.24146 0.45185 0.35289 0.13501 0.11142 0.32321 0.24694 0.41824 0.30061 0.38824 0.21922 1.2176 0.30735 1.7084 0.18205 0.4247-0.10841 0.55495-0.20184 0.88876-0.64043 0.21504-0.28255 0.45167-0.63147 0.5256-0.7758 0.20448-0.39915 0.47834-0.60104 0.88876-0.65537 0.82932-0.10977 1.491 0.30118 1.9316 1.1996 0.23167 0.47248 0.21463 0.12115-0.02147-0.44251-0.34712-0.8287-1.4007-1.4891-2.0361-1.2753-0.54389 0.18302-1.0271 0.49779-1.2183 0.79354-0.32997 0.51043-0.85892 1.12-1.0475 1.2062-0.09842 0.04497-0.43294 0.03669-0.74312-0.01774-0.50544-0.08872-0.6201-0.14872-1.1053-0.58162-0.44632-0.39816-0.63165-0.67265-1.0549-1.5591-0.5056-1.0588-0.97994-1.768-1.2258-1.8345-0.21322-0.05768-0.18024 0.11511 0.08776 0.46398 0.14124 0.18387 0.28043 0.43902 0.30995 0.56668 0.05281 0.2284 0.05111 0.22797-0.12603 0.0112-0.46214-0.56551-0.83205-0.82766-1.475-1.0475-0.28956-0.09898-0.49093-0.14635-0.59562-0.14844zm-14.018 0.37156 0.41637 0.3725c0.47112 0.42206 1.2038 0.7244 1.6739 0.69084 0.30581-0.02184 0.31448-0.01356 0.22312 0.21285-0.08026 0.19895-0.17098 0.23392-0.59188 0.23059-0.60028-0.0047-0.77659-0.05454-1.1558-0.32862-0.16036-0.11592-0.35626-0.2314-0.43504-0.2558-0.01486-0.0046-0.0234-0.01419-0.03734-0.0196-0.07522-0.22639-0.14406-0.45466-0.20632-0.68524zm3.7324 1.4106c-0.02736 0.0035-0.04717 0.01349-0.05135 0.02894-0.07306 0.27008 2.17e-4 1.4295 0.13163 2.0837 0.33148 1.6501 0.7949 2.0641 1.6935 1.5124 0.2632-0.1616 0.58177-0.40093 0.70765-0.5312l0.22872-0.23713-0.07842 0.67497c-0.10314 0.89045 0.05189 0.97434 0.60776 0.32768 0.51716-0.60163 0.89869-0.86537 1.1539-0.79634 0.10891 0.02946 0.18784 0.09166 0.17551 0.13724-0.05447 0.20136 0.27015 0.28352 0.47892 0.12136 0.11946-0.0928 0.23963-0.12983 0.267-0.08216 0.02737 0.04767 7.01e-4 0.07305-0.05882 0.05694-0.24979-0.06757-0.26256 0.58928-0.02614 1.3257 0.291 0.90641 0.27654 1.324-0.06348 1.8111-0.27748 0.39754-0.23918 0.47172 0.12136 0.23339 0.64095-0.42369 0.92251-1.2557 0.74219-2.1939-0.10347-0.53833-0.09716-0.61316 0.05322-0.6479 0.132-0.0305 0.15941 0.0092 0.12416 0.17925-0.02496 0.12051 0.06176 0.5054 0.19232 0.85515 0.24482 0.65585 0.22758 1.0308-0.06162 1.3378-0.11792 0.12512-0.12399 0.1606-0.02614 0.15497 0.06994-4e-3 0.24564-0.12946 0.39023-0.27914 0.31603-0.32715 0.42009-0.87666 0.28661-1.5105-0.04888-0.23214-0.05044-0.4122-0.0038-0.39957 0.13963 0.03777 0.12364-0.60914-0.02427-0.98772-0.13463-0.34459-0.23534-0.42646-0.60402-0.49012-0.10206-0.01763-0.25522-0.16376-0.33982-0.32488-0.17629-0.33576-0.73877-0.55531-0.89063-0.34729-0.07349 0.10066-0.12505 0.07573-0.29968-0.1447-0.40608-0.51259-1.3311-0.39347-2.5692 0.33048-0.73965 0.43248-0.82128 0.37471-1.5012-1.0568-0.28617-0.60252-0.58164-1.1113-0.6563-1.1315-0.03733-0.01009-0.07253-0.0138-0.09989-0.01027zm-3.4253 0.08309c0.44563 0.222 1.1449 0.38913 1.5245 0.33889 0.32822-0.04345 0.35353-0.03316 0.36129 0.14657 0.01231 0.28512-0.09749 0.34357-0.66844 0.35756-0.28368 0.0069-0.60126-0.0336-0.90837-0.11016-0.11163-0.24076-0.21287-0.48557-0.30901-0.73285zm1.5516 1.1446c0.25892-0.02661 0.29305 0.04037 0.23806 0.24366-0.04506 0.16658-0.15679 0.23577-0.44998 0.281-0.18082 0.0279-0.36051 0.06302-0.48266 0.08869 0.22249 0.03258 0.44313 0.09112 0.64976 0.18578 0.27912-0.13967 0.4419-0.04009 0.36969 0.22686-0.0315 0.11645-0.24653 0.24882-0.5424 0.36316-0.17242-0.25234-0.33515-0.5105-0.48826-0.77393 0.0027-5.73e-4 0.0084-0.0013 0.0112-0.0018-5e-3 -7.01e-4 -0.0099-0.0021-0.01494-0.0028-0.10883-0.18745-0.21203-0.37785-0.31088-0.57041 0.26103 0.03334 0.5124 0.04918 0.68151 0.01587 0.14141-0.02786 0.25258-0.04714 0.33889-0.05601zm0.44905 1.4181 0.02054 0.23339c0.01157 0.12813-0.02421 0.27792-0.08029 0.33328-0.02308 0.02279-0.07159 0.05107-0.11203 0.07749-0.09747-0.12405-0.1941-0.2489-0.28661-0.37623 0.08581-0.03737 0.18201-0.07679 0.22499-0.10643zm6.9392 0.63763c0.13118 0.0026 0.35781 0.19386 0.3725 0.33702 0.0197 0.19209-0.02839 0.17751-0.12697-0.03828-0.04283-0.09375-0.14244-0.1878-0.22126-0.20912-0.07881-0.02133-0.11211-0.0564-0.07375-0.07842 0.01397-8e-3 0.03074-0.01158 0.04948-0.0112zm-1.2258 0.08122c-0.21568 0.02213-0.3715 0.57038-0.281 0.98865 0.0365 0.16871 0.0636 0.56281 0.06068 0.87569-0.0061 0.64339-0.24815 1.1848-0.56948 1.2715-0.17384 0.04699-0.17542 0.05193-0.02334 0.09616 0.43169 0.12486 1.0623-0.53953 1.2771-1.3453 0.24428-0.91659-6e-3 -1.9337-0.46398-1.8867zm-1.9176 0.16617c-0.05143 0.0015-0.11845 0.13578-0.18952 0.4033-0.13435 0.50595-0.04536 1.2326 0.20912 1.7 0.09617 0.17664 0.20964 0.33046 0.25113 0.34169 0.10622 0.02874 0.13757-0.13816 0.04481-0.23713-0.12096-0.12905-0.02804-0.33939 0.4033-0.91303 0.51613-0.6864 0.51493-0.96215-0.0028-0.59468-0.44367 0.3149-0.60723 0.23458-0.62176-0.30528-0.0071-0.26528-0.04285-0.39639-0.09429-0.3949zm-3.6381 0.01867c0.10283-0.0095 0.14312 0.04996 0.15591 0.17458 0.0066 0.0641 0.01122 0.11081 0.0028 0.15217-0.08665-0.09744-0.1715-0.1961-0.25486-0.29594 0.03129-0.0098 0.0721-0.02858 0.09616-0.03081zm7.6824 0.09429c0.07076-0.0085 0.17562 0.02048 0.23246 0.06348 0.05683 0.04302-0.0013 0.04946-0.12883 0.01494-0.1276-0.03452-0.1744-0.06994-0.10363-0.07842zm-9.3945 1.1763c1.6811 0.3366-1.3534-8.189 0 0zm0.27727 0.32208c0.11234 0.1283 0.22736 0.25438 0.34449 0.37903 0.36553-0.25981 0.33409-0.33752-0.34449-0.37903zm0.63856 0.68804c0.0064 0.0064 0.01227 0.01321 0.01867 0.01961 0.16051 0.16051 0.32491 0.31645 0.49199 0.46865 0.83994-0.17635 0.20082-0.74609-0.51066-0.48826zm0.69831 0.65257c0.23112 0.2034 0.46805 0.39875 0.71045 0.58628 0 0-0.19583-0.80501-0.71045-0.58628zm0.95131 0.77393c0.2002 0.14831 0.40451 0.29007 0.61149 0.42758 0.20892-0.5158 0.22219 0.14097-0.61149-0.42758zm0.83368 0.56854c0.19232 0.12282 0.38688 0.24128 0.58442 0.35476 0.46862-1.1344-0.08862-0.32815-0.58442-0.35476z" fill="url(#linearGradient890)" stroke-width=".67813" style="isolation:isolate"/>
  </g>
 </g>
</svg>
