<?xml version="1.0" encoding="UTF-8"?>
<svg width="128" height="128" fill="none" version="1.1" viewBox="0 0 128 128" xmlns="http://www.w3.org/2000/svg">
 <path d="m118.46 42.449h-15.154c-1.657 0-3-1.3431-3-3v-14.725c0-0.9193-0.4638-1.8304-1.3297-2.5068l-18.154-14.18c-0.8508-0.66479-2.005-1.0382-3.2089-1.0382h-27.231c-1.2035 0-2.3579 0.3734-3.2089 1.0382l-18.154 14.18c-0.8299 0.6483-1.3293 1.5487-1.3293 2.5068v14.725c0 1.6569-1.3432 3-3 3h-15.154c-2.5064 0-4.5384 1.5872-4.5384 3.5449v78.461c0 1.958 2.032 3.545 4.5384 3.545h108.92c2.505 0 4.538-1.587 4.538-3.545v-78.461c0-1.9577-2.033-3.5449-4.538-3.5449zm-67.012-27.724c0.5274-0.412 1.1774-0.6358 1.8467-0.6358h21.406c0.6693 0 1.3193 0.2238 1.8467 0.6358l1.3953 1.0898c2.2487 1.7564 1.0067 5.3643-1.8467 5.3643h-24.196c-2.8534 0-4.0954-3.6078-1.8467-5.3643l1.3953-1.0898zm36.78 13.544c1.6568 0 3 1.3432 3 3v22.359c0 1.6569-1.3432 3-3 3h-3.077c-1.6568 0-3-1.3431-3-3v-22.359c0-1.6568 1.3432-3 3-3h3.077zm-18.154 0c1.6568 0 3 1.3432 3 3v8.1797c0 1.6569-1.3432 3-3 3h-12.154c-1.6568 0-3-1.3431-3-3v-8.1797c0-1.6568 1.3432-3 3-3h12.154zm-33.308 3c0-1.6568 1.3432-3 3-3h3.077c1.6568 0 3 1.3432 3 3v22.359c0 1.6569-1.3432 3-3 3h-3.077c-1.6568 0-3-1.3431-3-3v-22.359zm77.155 86.64c0 1.657-1.344 3-3 3h-93.847c-1.6569 0-3-1.343-3-3v-65.371c0-1.6569 1.3431-3 3-3h7.6154c1.6568 0 3 1.3431 3 3v7.6347c0 1.9578 2.032 3.545 4.5384 3.545h18.154c2.5064 0 4.5384-1.5872 4.5384-3.545v-7.6347c0-1.6569 1.3432-3 3-3h12.154c1.6568 0 3 1.3431 3 3v7.6347c0 1.9578 2.032 3.545 4.5384 3.545h18.154c2.5064 0 4.5388-1.5872 4.5388-3.545v-7.6347c0-1.6569 1.343-3 3-3h7.616c1.656 0 3 1.3431 3 3v65.371z" fill="url(#paint0_linear)"/>
 <path d="m67.098 59.389c-2.4323-2.8327-7.7593-1.0602-7.7992 2.8657-0.0941 5.1056-0.0776 10.214-0.0611 15.325 0.0101 3.1216 0.0202 6.2436 0.0051 9.3656-2.5624-1.8856-5.1406-3.7444-7.7175-5.6022-0.6149-0.4433-1.2297-0.8866-1.8442-1.3301-1.5312-1.1348-3.6604-1.6649-5.3671-0.6212-2.831 1.3251-3.166 5.7481-0.7816 7.7275 2.854 2.2283 5.7973 4.33 8.7408 6.4318 2.8881 2.0622 5.7764 4.1246 8.5806 6.3069 1.5472 1.4327 4.0592 1.3827 5.7498 0.2397 5.6783-3.7598 11.364-7.5119 17.05-11.256 0.0994-0.0675 0.1996-0.135 0.3002-0.2027 1.1831-0.7964 2.4214-1.6298 3.0094-3.0191 1.236-2.4848-0.3349-5.889-2.9587-6.4521-1.8501-0.6212-3.6685 0.472-5.1756 1.4742-1.4561 0.9988-2.9337 1.9647-4.4115 2.9307-2.0027 1.3091-4.0057 2.6184-5.9558 4.0101-0.0662-4.1056-0.0423-8.2134-0.0184-12.322 0.0222-3.8157 0.0444-7.6322-0.0056-11.449-0.032-1.5654-0.3748-3.1804-1.3399-4.4228zm-23.18 49.148c-0.2972 0.054-0.6104 0.112-0.8076 0.15-4.4419 1.06-4.0113 8.729 0.5663 9.193 7.2902 0.114 14.583 0.098 21.876 0.081 5.4712-0.012 10.942-0.024 16.412 0.019 1.9299 0.14 4.131-0.431 5.056-2.386 2.1453-3.048-0.7895-7.496-4.2346-7.181-4.5135 3e-3 -9.0279 0-13.543-3e-3 -8.2486-6e-3 -16.498-0.012-24.744 0.02-0.1491 0.028-0.3602 0.067-0.58 0.107z" clip-rule="evenodd" fill="url(#paint1_linear)" fill-rule="evenodd"/>
 <defs>
  <linearGradient id="paint0_linear" x1="64" x2="64" y1="128" y2="7" gradientUnits="userSpaceOnUse">
   <stop stop-color="#FDA700" offset="0"/>
   <stop stop-color="#FFDE00" offset="1"/>
  </linearGradient>
  <linearGradient id="paint1_linear" x1="63.874" x2="63.414" y1="118" y2="58" gradientUnits="userSpaceOnUse">
   <stop stop-color="#02AA93" offset="0"/>
   <stop stop-color="#67FF80" offset="1"/>
  </linearGradient>
 </defs>
</svg>
