<?xml version="1.0" encoding="UTF-8"?>
<svg version="1.1" viewBox="0 0 48 48" xmlns="http://www.w3.org/2000/svg">
 <defs>
  <linearGradient id="linearGradient4417" x1="11.435" x2="41.055" y1="20.471" y2="20.471" gradientTransform="translate(-2.745 2.4804)" gradientUnits="userSpaceOnUse">
   <stop stop-color="#6d80cb" offset="0"/>
   <stop stop-color="#e73d3d" offset="1"/>
  </linearGradient>
 </defs>
 <path d="m14.68 6.5086c-0.42887 0-0.77553 0.33707-0.77553 0.77005v6.6797c0 0.42887 0.34255 0.77142 0.77553 0.77142h0.59467l-1.3702 1.3702 1.3702 1.3702-1.3661 15.072c-1.5195 0-2.739 1.2208-2.739 2.7349 0 0.49738 0.14935 0.96325 0.37954 1.3702l-0.38092 0.0055-1.3702 2.7404h27.404l-1.3702-2.7404-0.38366-0.0055c0.23567-0.40695 0.38502-0.87282 0.38502-1.3702 0-1.5195-1.2277-2.7349-2.7418-2.7349l-1.3688-15.072 1.3702-1.3702-1.3702-1.3702h0.60015c0.43298 0 0.77553-0.33707 0.77553-0.77142v-6.6797c0-0.42887-0.33707-0.77005-0.77553-0.77005h-1.9717v2.7404h-2.7404v-2.7404h-2.7404v2.7404h-2.7404v-2.7404h-2.7404v2.7404h-2.7404v-2.7404" fill="none" stroke="url(#linearGradient4417)" stroke-width="1.37"/>
</svg>
