<?xml version="1.0" encoding="UTF-8"?>
<svg width="512" height="512" version="1.1" viewBox="0 0 512 512" xmlns="http://www.w3.org/2000/svg" xmlns:xlink="http://www.w3.org/1999/xlink">
 <defs>
  <linearGradient id="linearGradient1087" x1="138.2" x2="375.96" y1="247.32" y2="247.32" gradientTransform="matrix(1.2595 0 0 1.2595 -66.702 -64.17)" gradientUnits="userSpaceOnUse">
   <stop stop-color="#ffff09" offset="0"/>
   <stop stop-color="#17ff17" offset="1"/>
  </linearGradient>
 </defs>
 <path d="m190.54 72.57c16.617 16.717 16.518 30.015 16.518 50.152v41.618c-58.135 19.499-99.702 71.984-99.702 133.91 0 53.12 30.803 99.464 76.312 123.83h146.83c45.511-24.364 76.312-70.708 76.312-123.83 0-61.79-41.717-114.23-99.802-133.91v-41.618c0-20.023-0.0999-33.384 16.518-50.152zm85.282 137.23c10.33 0 18.713 8.3833 18.713 18.713s-8.3833 18.713-18.713 18.713-18.713-8.4332-18.713-18.713c0-10.33 8.3833-18.713 18.713-18.713zm-28.071 56.139c8.6205 0 15.595 7.0225 15.595 15.593 0 8.6205-6.9746 15.595-15.595 15.595-8.62 0-15.593-7.0246-15.593-15.595 0-8.6205 6.9726-15.593 15.593-15.593zm34.308 43.664c6.8739 0 12.475 5.6013 12.475 12.475s-5.6014 12.475-12.475 12.475c-6.8739 0-12.475-5.6013-12.475-12.475 0-6.9238 5.6013-12.475 12.475-12.475zm-15.595 43.663c5.1648 0 9.3575 4.1907 9.3575 9.3555 0 5.1648-4.1927 9.3575-9.3575 9.3575-5.1648 0-9.3555-4.1927-9.3555-9.3575 0-5.1648 4.1907-9.3555 9.3555-9.3555zm21.833 31.188c3.4557 0 6.2376 2.782 6.2376 6.2376 0 3.4556-2.782 6.2376-6.2376 6.2376-3.4556 0-6.2376-2.8319-6.2376-6.2376 0-3.4557 2.782-6.2376 6.2376-6.2376z" fill="url(#linearGradient1087)" stroke-width="12.475"/>
</svg>
