<?xml version="1.0" encoding="UTF-8"?>
<svg width="64" height="64" fill="none" version="1.1" viewBox="0 0 64 64" xmlns="http://www.w3.org/2000/svg">
 <path d="m16 10c0.5-4.5 4.7583-6.9385 8.7321-6.9867 10.161-0.01607 20.319-0.00402 30.476-0.01205 4.5476-0.08033 8.7783 3.6631 8.7869 7.9527 0.0043 6.1734-0.0043 12.347 0 18.52 0.0053 2.5258-0.9947 4.4602-2.4947 6.0258s-3 2.5-4 2.5c-3.2055 0-7.2927 8e-3 -10.5 0-4.5091 4.7074-8.1241 9.3678-12.565 14.14-0.4453 0.4458-0.9249 0.8916-1.5458 1.1085-1.6144 0.486-3.3101-1.0041-3.2159-2.5143-0.03-4.3298 0.0043-8.6637-0.0171-12.994-2.2267-0.0241-4.3599-0.0964-6.6801-0.0964-1.4764 0-2.8005-1.1045-3.8882-2.1127-1.473-1.2009-2.3851-2.8999-2.7748-4.6792h-4.3134c-2 0-3.8354 0-5.2057 0.245-1.199 0.6225-1.8841 1.9119-1.8798 3.1771-0.00856 2.2814-0.01713 4.5668 0.00428 6.8481-0.00428 1.7111 1.4131 3.3177 3.2458 3.5225 1.0919 0.1768 2.475-8e-3 3.1602 1.0042 1.4345 1.8355 2.7619 3.7353 4.1322 5.6111-0.0343-1.6307-0.137-3.2615-0.0771-4.8922 0.2998-1.0322 1.3446-1.8235 2.5051-1.7592 2.1282 0.0843 4.2864-0.1446 6.3931 0.1406 1.8199 0.3454 2.321 2.928 0.8179 3.888-1.3231 1.0483-3.1816 0.5101-4.7574 0.6426 0.0129 3.0325 0.0257 6.065 0 9.0934 0.0685 1.1729-0.9421 2.0444-1.9441 2.5666-1.1433 0.2932-2.0811-0.5382-2.7405-1.2973-2.5436-3.3779-4.9673-6.8362-7.5108-10.21-2.762-0.5864-5.5839-1.8516-6.937-4.3298-1.8584-2.916-0.95491-6.4104-1.1733-9.6196-0.17128-2.1127 0.32116-4.2816 1.6443-6.0167 1.6272-2.1609 4.4148-3.5105 7.2325-3.4944 2.3337-4e-3 4.7566 8e-3 7.0903 0 0.0514-5.4545 0-10.472 0-15.972 0.0899-0.00402-0.0899 4e-3 0 0zm5.0494 1.3516c0 6.0409-0.0085 12.082 0.0043 18.127-0.0214 1.8637 1.6743 3.5265 3.6527 3.635 2.6078 0.0402 5.2284 0.0803 7.8319-0.1526 1.1562 0.3253 2.094 1.3053 2.1026 2.4782 0.0471 3.1128 0.0385 6.2256-0.0172 9.3384 2.8947-3.0526 5.6824-6.1935 8.53-9.2902 0.8778-0.9279 1.6743-2.0525 2.9675-2.5064 1.5758-0.1727 3.1687-0.0682 4.7488-0.0843 1.9227 0.0161 3.931 0.5985 5.798-0.0562 1.6144-0.5624 2.6035-2.1931 2.4922-3.7796-0.0171-5.9043 0-11.809-0.0128-17.709 0.077-2.0082-1.8328-3.8398-3.9867-3.7554-10.11 0.00401-20.216-0.00803-30.326 0-2.0896 0.00803-3.871 1.8034-3.7854 3.7554z" fill="url(#paint0_linear)"/>
 <defs>
  <linearGradient id="paint0_linear" x1="31.998" x2="31.998" y1="3" y2="61" gradientUnits="userSpaceOnUse">
   <stop stop-color="#00FFE0" offset="0"/>
   <stop stop-color="#078AA7" offset="1"/>
  </linearGradient>
 </defs>
</svg>
