<?xml version="1.0" encoding="UTF-8"?>
<svg width="512" height="512" fill="none" version="1.1" viewBox="0 0 512 512" xmlns="http://www.w3.org/2000/svg">
 <path d="m346 212c-57.898 0-105 47.101-105 105 0 57.898 47.102 105 105 105s105-47.102 105-105c0-57.899-47.102-105-105-105zm0 180c-41.355 0-75-33.645-75-75 0-41.356 33.645-75 75-75s75 33.644 75 75c0 41.355-33.645 75-75 75z" fill="url(#paint0_linear)"/>
 <path d="m346 272c-24.812 0-45 20.187-45 45 0 24.812 20.188 45 45 45s45-20.188 45-45c0-24.813-20.188-45-45-45zm0 60c-8.27 0-15-6.731-15-15 0-8.27 6.73-15 15-15s15 6.73 15 15c0 8.269-6.73 15-15 15z" fill="url(#paint1_linear)"/>
 <path d="m150 152h317c24.812 0 45 20.187 45 45v240c0 24.812-20.188 45-45 45h-422c-24.812 0-45-20.188-45-45v-240c0-24.813 20.188-45 45-45h15v-15c0-24.813 20.188-45 45-45 15.301 0 28.832 7.6796 36.965 19.383l290.1-78.86c7.993-2.1719 16.239 2.5469 18.411 10.543 2.171 7.9922-2.547 16.234-10.543 18.406l-289.93 78.812v11.715zm-45-30c-8.2695 0-15 6.73-15 15v15h30v-15c0-8.27-6.73-15-15-15zm362 330c8.27 0 15-6.731 15-15v-240c0-8.27-6.73-15-15-15h-422c-8.2695 0-15 6.73-15 15v240c0 8.269 6.7305 15 15 15h422zm-392-210h120c8.285 0 15 6.715 15 15v60c0 8.285-6.715 15-15 15h-120c-8.2852 0-15-6.715-15-15v-60c0-8.285 6.7148-15 15-15zm15 60h90v-30h-90v30zm-15 60c-8.2852 0-15 6.715-15 15s6.7148 15 15 15h30c8.285 0 15-6.715 15-15s-6.715-15-15-15h-30zm75 15c0-8.285 6.715-15 15-15h30c8.285 0 15 6.715 15 15s-6.715 15-15 15h-30c-8.285 0-15-6.715-15-15z" clip-rule="evenodd" fill="url(#paint2_linear)" fill-rule="evenodd"/>
 <defs>
  <linearGradient id="paint0_linear" x1="279.06" x2="468.43" y1="397.21" y2="231.98" gradientUnits="userSpaceOnUse">
   <stop stop-color="#FE0844" offset="0"/>
   <stop stop-color="#FEB302" offset="1"/>
  </linearGradient>
  <linearGradient id="paint1_linear" x1="317.31" x2="398.47" y1="351.38" y2="280.57" gradientUnits="userSpaceOnUse">
   <stop stop-color="#FE0844" offset="0"/>
   <stop stop-color="#FEB302" offset="1"/>
  </linearGradient>
  <linearGradient id="paint2_linear" x1="36.571" x2="450.6" y1="257" y2="204.94" gradientUnits="userSpaceOnUse">
   <stop stop-color="#8D01A2" offset="0"/>
   <stop stop-color="#FF00D2" offset="1"/>
  </linearGradient>
 </defs>
</svg>
