<?xml version="1.0" encoding="UTF-8"?>
<svg width="64" height="64" fill="none" version="1.1" viewBox="0 0 64 64" xmlns="http://www.w3.org/2000/svg" xmlns:xlink="http://www.w3.org/1999/xlink">
 <g fill="url(#paint0_linear)">
  <path d="m8.0569 2.651c3.1459-1.0952 6.5517-0.43509 9.8143-0.61513-0.8627 1.2903-1.5371 2.7568-2.7201 3.7958-1.4655 0.5026-3.0743 0.35257-4.585 0.67888-2.351 0.37133-4.2196 2.5805-4.1179 4.9622 0.02637 13.649-0.05275 27.298 0.04144 40.947-0.33154-7.3665 0.0113-14.763-0.4634-22.126-1.4769 2.0704-3.6582 3.9796-3.6808 6.7176-0.26373 5.1948-0.12056 10.408-0.2901 15.607v0.2925c-0.10926-13.806-0.01884-27.617-0.04144-41.423-0.10173-3.8258 2.4338-7.524 6.0431-8.8367z"/>
  <path d="m17.871 2.0358c2.4904 0.02251 4.9844-0.04124 7.4748 0.02253 1.2169-0.02251 2.057 1.0727 2.2416 2.1792-0.2336 0.99769-0.8514 2.1042-2.0043 2.1642-5.0032 0.15378-10.018-0.08629-15.017 0.10875 1.5107-0.32631 3.1195-0.17628 4.585-0.67888 1.183-1.039 1.8574-2.5055 2.7201-3.7958z"/>
  <path d="m32.516 5.8616c-0.0603-2.0029 1.7218-3.807 3.7298-3.807 2.5921-0.05251 5.1841-0.00375 7.7762-0.015-0.9683 1.6166-2.0194 3.1844-3.2627 4.6097-1.0134 0-2.1663 0.01125-2.916 0.80265-1.0436 0.90018-0.8251 2.3855-0.8779 3.612-0.1808 3.2744-2.6485 5.6336-4.4871 8.1091 0.0151-4.4371-0.0301-8.8743 0.0377-13.311z"/>
  <path d="m44.022 2.0396c2.6749 0.0075 5.3498-0.01875 8.0285 0.00375 2.43 0.03751 4.9128 1.0014 6.5592 2.8056l-0.0264 0.24005c-0.81 1.174-1.6991 2.2954-2.543 3.4469-0.9796-1.2002-2.4112-2.1042-4.0086-2.0817-0.7196-0.05626-1.4204 0.58136-1.3639 1.3128-0.0904 1.9579 0 3.9195-0.0301 5.8774-1.0512 1.2715-2.1588 2.5055-3.1007 3.8633-1.5107 1.9654-0.8175 4.5871-1.4279 6.8451 0.1093-4.6547 0.0076-9.3094 0.0566-13.964 0.0489-0.95648-0.1244-1.9167-0.6255-2.7456-1.2583-1.2902-3.1609-0.91893-4.7809-0.99394 1.2433-1.4253 2.2944-2.9931 3.2627-4.6097z"/>
  <path d="m27.588 4.2375c0.471 0.75765 0.4032 1.8604-0.3277 2.4417-0.8779 0.93393-2.3095 0.48759-3.4435 0.60011-2.2605-0.18378-4.5135 0.37133-6.7665 0.06002-1.8837-0.15753-3.7562 0.2663-5.6437 0.18378-1.6652-0.16503-3.0404 1.0577-3.8466 2.378-0.6028 0.92644-0.52368 2.0666-0.54252 3.1206 0.02637 13.694-0.00377 27.392 0.01507 41.086-0.23735-0.5401-0.48224-1.0952-0.54252-1.6878-0.09419-13.649-0.01507-27.298-0.04144-40.947-0.10173-2.3817 1.767-4.5909 4.1179-4.9622 4.9994-0.19504 10.014 0.04503 15.017-0.10875 1.1529-0.06002 1.7707-1.1665 2.0043-2.1642z"/>
  <path d="m61.16 9.3948c0.7046 1.069 0.8214 2.3705 0.8402 3.6157-0.0113 12.745-0.0113 25.494 0 38.243-0.0565 2.1904-0.373 4.4934-1.6238 6.3575-1.7217 2.7756-5.0145 4.5272-8.2923 4.3809-13.563-0.015-27.13 0.0075-40.693-0.0075-2.8934 0.0225-5.5721-1.6053-7.3353-3.8145-0.2901-0.2963-0.33908-0.7202-0.42573-1.1027 1.0963 1.444 2.5242 2.648 4.2045 3.3531 3.161 1.1628 6.5856 0.5251 9.8671 0.6864h9.4112c3.0027-0.0037 6.0017 0 9.0044 0h9.5091c2.9613-0.1275 5.9828 0.3188 8.8951-0.3638 3.8542-1.0352 6.774-4.7447 6.789-8.7317 0.0302-3.4357-0.0037-6.8714 0.0076-10.311 0.0075-4.0021 0-8.0004 0-12.002 0.0037-4.6209 0-9.2418 0-13.863-0.0226-2.1454 0.1055-4.3021-0.1583-6.44z"/>
  <path d="m58.583 5.089 0.2449-0.0338c1.1981 1.1365 1.8913 2.7606 2.3321 4.3396 0.2638 2.1379 0.1357 4.2946 0.1583 6.44-1.6238 1.7291-2.9914 3.672-4.4156 5.5624-0.0037-3.0532-0.0037-6.1025 0.0038-9.1519-0.0038-0.8401-0.0075-1.6953-0.275-2.5017-0.1809-0.40883-0.3805-0.81387-0.5915-1.2077 0.8439-1.1515 1.733-2.273 2.543-3.4469z"/>
  <path d="m37.843 7.4519c0.7497-0.7914 1.9026-0.80265 2.916-0.80265 1.62 0.07501 3.5226-0.29631 4.7809 0.99394-2.106 0.01501-4.2459-0.31885-6.3331 0.06373-1.8423 0.70514-1.7821 2.9294-1.8951 4.5609-0.0716 4.3322 0.0415 8.668-0.0791 13-0.4069-1.2902-0.2901-2.6593-0.3014-3.9945 0.0339-3.4019 0.0226-6.8038 0.0339-10.21 0.0528-1.2265-0.1657-2.7118 0.8779-3.612z"/>
  <path d="m50.667 7.767c-0.0565-0.7314 0.6443-1.369 1.3639-1.3128 1.5974-0.02251 3.029 0.88142 4.0086 2.0817 0.211 0.39383 0.4106 0.79887 0.5915 1.2077-1.2019-1.0465-2.4526-2.4605-4.2196-2.2467-0.9155-0.12002-1.2282 1.0427-1.2357 1.7516-0.0227 5.1348 0.0113 10.273-0.0076 15.412 0.1846 5.6599-6.0958 10.487-11.536 8.7317-1.9553-0.5888-4.2309-1.609-4.909-3.6869 0.177 0.165 0.5274 0.5025 0.7045 0.6713 2.3698 2.1605 5.8999 2.9444 8.9516 1.9129 3.5866-1.1177 6.2277-4.6434 6.2465-8.3867 0.0377-3.4206-0.0038-6.8375 0.0113-10.258 0.0301-1.9579-0.0603-3.9195 0.0301-5.8774z"/>
  <path d="m32.478 19.173c1.8386-2.4755 4.3063-4.8347 4.4871-8.1091-0.0113 3.4057 0 6.8076-0.0339 10.21 0.0113 1.3352-0.1055 2.7043 0.3014 3.9945 0.2148 0.5476 0.5388 1.0465 0.8703 1.5303-0.9042 1.1815-1.7971 2.3742-2.6749 3.5782-0.1771-0.1688-0.5275-0.5063-0.7045-0.6713-1.2961-1.5229-2.1362-3.447-2.2342-5.4461-0.0791-1.6953-0.0188-3.3907-0.0113-5.086z"/>
  <path d="m47.536 17.508c0.9419-1.3578 2.0495-2.5918 3.1007-3.8633-0.0151 3.4207 0.0264 6.8376-0.0113 10.258-0.0188 3.7433-2.6599 7.269-6.2465 8.3867-3.0517 1.0315-6.5818 0.2476-8.9516-1.9129 0.8778-1.204 1.7707-2.3967 2.6749-3.5782 0.7836 0.6752 1.6879 1.2941 2.7428 1.4328 2.4488 0.4464 4.9015-1.4702 5.2631-3.8782 0.6104-2.258-0.0828-4.8797 1.4279-6.8451z"/>
  <path d="m56.902 21.397c1.4242-1.8904 2.7918-3.8333 4.4156-5.5624 0 4.621 0.0037 9.2419 0 13.863-1.6389 1.6128-2.9688 3.4844-4.4155 5.2585-0.0038-4.5196-1e-4 -9.0393-1e-4 -13.559z"/>
  <path d="m40.472 19.766c2.1512-0.8327 4.6905 1.1252 4.3929 3.4094-0.0264 2.5543-3.451 4.0283-5.3687 2.3517-2.0608-1.474-1.4542-5.041 0.9758-5.7611z"/>
  <path d="m56.903 34.956c1.4467-1.7741 2.7766-3.6457 4.4155-5.2585 0 4.002 0.0075 8.0003 0 12.002-1.6313 1.624-2.8859 3.5632-4.4118 5.2735-0.0113-4.0058-0.0037-8.0116-0.0037-12.017z"/>
  <path d="m2.3454 37.012c0.0226-2.738 2.204-4.6472 3.6808-6.7176 0.4747 7.3627 0.13186 14.759 0.4634 22.126 0.06028 0.5926 0.30517 1.1477 0.54252 1.6878 0.72713 1.3203 2.0608 2.2242 3.534 2.5242l-0.0339 0.0451c-0.88918 1.2527-1.7858 2.5055-2.6976 3.7432-1.6803-0.7051-3.1082-1.9091-4.2045-3.3531-0.86276-1.3316-1.4618-2.8619-1.5748-4.4484 0.16954-5.1986 0.02637-10.412 0.2901-15.607z"/>
  <path d="m56.906 46.974c1.5259-1.7103 2.7805-3.6495 4.4118-5.2735-0.0113 3.4394 0.0226 6.8751-0.0076 10.311-0.015 3.987-2.9348 7.6965-6.789 8.7317-2.9123 0.6826-5.9338 0.2363-8.8951 0.3638 1.1115-1.429 2.1475-2.9143 3.1647-4.4109 2.2304-0.03 4.8714 0.3901 6.5894-1.384 2.317-2.1604 1.2998-5.5586 1.5258-8.3379z"/>
  <path d="m7.8346 60.42c0.91173-1.2377 1.8084-2.4905 2.6976-3.7432 3.3417 0.045 6.6797 0.0112 10.018 0.0187-0.9682 1.459-1.8988 2.9406-2.8482 4.4109-3.2815-0.1613-6.7061 0.4764-9.8671-0.6864z"/>
  <path d="m20.55 56.695c3.1421 0.0037 6.288 0 9.4301 0-0.957 1.4703-1.8913 2.9519-2.8671 4.4109h-9.4112c0.9494-1.4703 1.88-2.9519 2.8482-4.4109z"/>
  <path d="m29.98 56.695c2.9989 0.0038 5.9941 0 8.993 0-1.021 1.4253-1.9515 2.9106-2.8557 4.4109-3.0027 0-6.0017-0.0037-9.0044 0 0.9758-1.459 1.9101-2.9406 2.8671-4.4109z"/>
  <path d="m38.973 56.695c3.2702 0.0075 6.5442 0 9.8181 0-1.0172 1.4966-2.0532 2.9819-3.1647 4.4109h-9.5091c0.9042-1.5003 1.8347-2.9856 2.8557-4.4109z"/>
 </g>
 <defs>
  <linearGradient id="paint0_linear" x1="32" x2="32" y1="62" y2="2" gradientUnits="userSpaceOnUse">
   <stop stop-color="#FD2E00" offset="0"/>
   <stop stop-color="#f90" offset="1"/>
  </linearGradient>
  <linearGradient id="linearGradient5364" x1="34.986" x2="51.822" y1="34.632" y2="34.632" gradientTransform="translate(-22.752 1.0335)" gradientUnits="userSpaceOnUse">
   <stop stop-color="#FD2E00" offset="0"/>
   <stop stop-color="#f90" offset="1"/>
  </linearGradient>
  <linearGradient id="linearGradient5372" x1="34.986" x2="51.822" y1="34.632" y2="34.632" gradientTransform="translate(-22.752 1.0335)" gradientUnits="userSpaceOnUse" xlink:href="#paint0_linear"/>
 </defs>
 <text x="9.8317547" y="49.678802" fill="url(#linearGradient5364)" font-family="sans-serif" font-size="40px" stroke="url(#linearGradient5372)" style="line-height:1.25" xml:space="preserve"><tspan x="9.8317547" y="49.678802" fill="url(#linearGradient5364)" stroke="url(#linearGradient5372)">$</tspan></text>
</svg>
