<?xml version="1.0" encoding="UTF-8"?>
<svg width="64" height="64" fill="none" version="1.1" viewBox="0 0 64 64" xmlns="http://www.w3.org/2000/svg" xmlns:xlink="http://www.w3.org/1999/xlink">
 <g fill="url(#paint0_linear)" stroke-width=".61452">
  <path d="m10.967 17.547c2.2218-0.8105 4.6734-0.77651 6.8757 0.10023 2.7954 1.084 5.1628 3.507 6.3743 6.5586 0.50594 1.2081 0.77166 2.5198 0.94582 3.8367 0.18761 1.3916 0.01499 2.8019-0.26124 4.1629-0.53593-0.4435-1.0314-0.94471-1.4848-1.4935 0.25675-2.2021-0.1006-4.4993-1.0644-6.4397-1.1605-2.3872-3.1842-4.2206-5.5021-4.9665-1.4232-0.49783-2.956-0.49783-4.4152-0.2192-0.56598-0.40946-1.12-0.87164-1.4682-1.5394z"/>
  <path d="m8.1262 19.089c0.89025-0.6321 1.83-1.1911 2.8404-1.5411 0.34825 0.66774 0.90224 1.1299 1.4682 1.5394-1.12 0.28207-2.2084 0.75439-3.1707 1.468-0.46987-0.36872-1.186-0.6898-1.1379-1.4663z"/>
  <path d="m12.435 19.087c1.4592-0.27862 2.992-0.27862 4.4152 0.2192 2.3179 0.74591 4.3416 2.5793 5.5021 4.9665 0.96382 1.9404 1.3212 4.2376 1.0644 6.4397-0.02704 0.22086-0.05857 0.44006-0.09157 0.66098-0.24323-1.5581 0.07202-3.1893-0.39784-4.7083-0.89776-3.7194-3.8522-6.6504-7.2121-7.2298-1.0299-0.09513-2.0732-0.10023-3.1001 0.03742-1.4052 0.34321-2.7909 0.95147-3.9048 2.0049-1.1785 1.1911-2.3014 2.5623-2.8104 4.292-0.24621 0.91073-0.56748 1.8197-0.56748 2.7883-0.03753 0.94471 0.09308 1.9013-0.08107 2.8375-9e-3 -0.05439-0.02852-0.16138-0.03753-0.21576-0.21168-1.5836-0.19667-3.2318 0.21468-4.7745 0.29725-1.2047 0.81218-2.3295 1.4667-3.3337 0.64554-0.99227 1.4562-1.8436 2.369-2.5164 0.96235-0.71365 2.0507-1.186 3.1707-1.468z"/>
  <path d="m3.5834 25.877c0.06455-0.04591 0.19216-0.13931 0.25521-0.18522-0.32277 1.3253-0.52093 2.7016-0.47289 4.0796 0.13662 3.0397 1.237 6.0303 3.1496 8.1865 1.8495 2.1715 4.4227 3.4271 7.0589 3.716 1.3826 0.14613 2.7668-0.19032 4.0894-0.61846 0.76865-0.29909 1.5283-0.65078 2.2143-1.1452 0.32582-0.2141 0.44891-0.62866 0.50145-1.0263 0.31525 0.55897-0.09458 1.1996-0.52394 1.4952-1.5658 1.0806-3.3898 1.5717-5.1989 1.7807-2.9875-0.0068-6.0425-1.2302-8.1413-3.6922-2.9695-3.1145-4.1285-8.2289-2.932-12.591z"/>
  <path d="m5.5861 21.838c0.71309-1.0603 1.5838-1.9761 2.5401-2.7492-0.04804 0.77651 0.66806 1.0976 1.1379 1.4663-0.91274 0.67284-1.7234 1.5241-2.369 2.5164-0.40534-0.45192-0.84369-0.86482-1.3091-1.2335z"/>
  <path d="m17.074 34.403c1.5028-0.34493 3.1061-0.0255 4.4077 0.89204 1.6679 1.1333 2.8735 2.9854 3.6195 4.9903 0.16064 0.36024 0.03902 0.76293-0.12161 1.0926-0.36626 0.26332-0.8902 0.4129-1.234 0.02206-0.34678-0.49783-0.50594-1.1248-0.80767-1.6549-0.95632-1.8895-2.6377-3.5257-4.6464-3.5546-0.20568-0.76121-0.90378-1.1028-1.2176-1.7875z"/>
  <path d="m12.451 21.904c1.8135-0.5964 3.8418-0.35513 5.4691 0.74591 1.812 1.1877 3.0911 3.3677 3.3163 5.7278 0.10361 0.86826 0.02704 1.7484-0.10957 2.6064-0.56751-0.67284-1.0794-1.4001-1.5733-2.1426-0.15166-2.4689-1.8466-4.6777-3.9889-5.179-0.61698-0.1631-1.2581-0.17158-1.8855-0.08493-0.48044-0.48425-1.0284-0.94471-1.2281-1.6737z"/>
  <path d="m5.5861 21.838c0.46538 0.36872 0.90374 0.78161 1.3091 1.2335-0.65455 1.0042-1.1695 2.129-1.4667 3.3337-0.39033-0.58454-0.8377-1.1163-1.3196-1.6057 0.39033-1.0467 0.86473-2.056 1.4772-2.9616z"/>
  <path d="m9.5555 23.872c0.81517-0.89886 1.8075-1.5836 2.8959-1.9676 0.19966 0.72895 0.74763 1.1894 1.2281 1.6737-1.0794 0.19708-2.1018 0.77307-2.8779 1.6482-0.39778-0.47238-0.81363-0.92437-1.246-1.3542z"/>
  <path d="m13.679 23.578c0.62749-0.08665 1.2686-0.07817 1.8855 0.08493 2.1423 0.50127 3.8372 2.7101 3.9889 5.179 0.04203 0.8003-0.04203 1.6108-0.29122 2.3635-0.09759-0.60488 0.07503-1.2013 0.07503-1.8044-0.04806-1.4986-0.61698-2.982-1.6139-3.9811-1.779-1.9438-4.9286-1.9421-6.6401 0.10871-0.91423 0.87508-1.4006 2.2021-1.5147 3.5291-0.07208 0.71875 0.15615 1.429 0.05555 2.1477-0.23721-0.71869-0.32428-1.4901-0.30327-2.253 0.08407-1.3916 0.6125-2.7356 1.4802-3.7262 0.77614-0.87508 1.7985-1.4511 2.8779-1.6482z"/>
  <path d="m7.4522 29.064c0.01051-0.38402-0.02552-0.81726 0.2402-1.1112-0.39183 2.5708 0.43836 5.3302 2.1813 7.0497 1.7505 1.7926 4.3612 2.4467 6.6085 1.6006 0.58398-0.2243 1.1905-0.38402 1.809-0.4129 2.0086 0.02888 3.69 1.6651 4.6464 3.5546 0.30173 0.53009 0.46089 1.1571 0.80767 1.6549 0.34383 0.39084 0.86777 0.24126 1.234-0.02206-0.07503 0.8835-1.1664 0.72723-1.4862 0.12911-0.39035-0.7-0.66203-1.4782-1.1079-2.1392-0.81216-1.2013-1.8616-2.3414-3.2217-2.6388-1.0404-0.32625-2.0898 0.10533-3.0911 0.4078-1.4232 0.43496-2.9485 0.23444-4.3116-0.36196-1.9982-0.94127-3.5955-2.9667-4.13-5.3488-0.19816-0.76631-0.16814-1.5734-0.17865-2.3618z"/>
  <path d="m7.805 27.38c0.29725-1.3202 0.92178-2.5249 1.7505-3.5087 0.43238 0.42986 0.84823 0.88184 1.246 1.3542-0.86771 0.99055-1.3961 2.3346-1.4802 3.7262-0.7101-0.24636-0.97133-1.084-1.5163-1.5717z"/>
  <path d="m3.8386 25.691c0.08708-0.29903 0.18466-0.59302 0.27023-0.89204 0.4819 0.48935 0.92927 1.0212 1.3196 1.6057-0.41134 1.5428-0.42636 3.1909-0.21468 4.7745-0.65155-0.33135-1.1319-0.94305-1.4262-1.6703-0.14112 0.08837-0.28224 0.17502-0.42186 0.26166-0.04804-1.3779 0.15013-2.7542 0.47289-4.0796z"/>
  <path d="m7.805 27.38c0.54496 0.48769 0.8062 1.3253 1.5163 1.5717-0.02102 0.76293 0.06606 1.5343 0.30327 2.253 0.68759 2.2905 2.7638 3.8927 4.8941 3.8298 0.88873 0.02378 1.707-0.40436 2.5551-0.63204 0.31378 0.6847 1.0119 1.0263 1.2176 1.7875-0.61852 0.02888-1.2251 0.1886-1.809 0.4129-2.2474 0.84614-4.8581 0.19198-6.6085-1.6006-1.743-1.7195-2.5732-4.4789-2.1813-7.0497 0.03152-0.1937 0.06905-0.38396 0.11258-0.57261z"/>
  <path d="m19.554 28.842c0.49389 0.74253 1.0058 1.4698 1.5733 2.1426-0.21318 0.86144-0.47441 1.7314-0.94582 2.4603-0.41585 0.42992-1.171 0.21072-1.4007-0.36189-0.31673-0.67966 0.37234-1.2302 0.48197-1.8776 0.24919-0.75267 0.33326-1.5632 0.29122-2.3635z"/>
  <path d="m3.3657 29.771c0.13962-0.08665 0.28074-0.1733 0.42186-0.26166 0.29425 0.72723 0.77464 1.3389 1.4262 1.6703 9e-3 0.05438 0.02852 0.16137 0.03753 0.21576 0.49692 2.7067 1.9652 5.1705 4.0324 6.6538 0.92326 0.71869 1.9847 1.1452 3.0581 1.4714 0.22971 0.55903 0.54945 1.0602 0.96081 1.4629 0.20414 0.15806 0.22215 0.44178 0.27174 0.68986-2.6362-0.28883-5.2094-1.5445-7.0589-3.716-1.9126-2.1562-3.013-5.1467-3.1496-8.1865z"/>
  <path d="m23.417 30.712c0.4534 0.54883 0.94883 1.05 1.4848 1.4935-0.12764 0.65078-0.32275 1.2828-0.54496 1.8996-0.12309 0.35175-0.35581 0.66946-0.68009 0.79692-0.63652 0.20046-1.3136-0.67628-0.97728-1.3508 0.28072-0.6949 0.49992-1.4255 0.62602-2.1782 0.033-0.22092 0.06452-0.44012 0.09157-0.66098z"/>
  <path d="m19.127 38.19c0.50741-0.33467 1.0644 0.15978 1.252 0.69331-0.05254 0.3976-0.17563 0.81216-0.50145 1.0263-0.68606 0.49445-1.4457 0.84614-2.2143 1.1452-0.43988-0.55393-0.94127-1.0365-1.4352-1.5275 1.0149-0.29909 2.0072-0.70345 2.899-1.3373z"/>
  <path d="m12.342 39.521c1.2836 0.26676 2.6017 0.25146 3.8867 0.0068 0.49396 0.491 0.99534 0.97359 1.4352 1.5275-1.3226 0.42814-2.7068 0.76459-4.0894 0.61846-0.04959-0.24808-0.0676-0.53181-0.27174-0.68986-0.41136-0.4027-0.7311-0.9039-0.96081-1.4629z"/>
 </g>
 <path d="m31.101 18.492c0.05396-0.48738 0.48738-0.90876 1.0101-0.90716 1.344-0.01125 2.6881-0.0049 4.032-0.0033 0.53623-0.02728 1.064 0.38125 1.0809 0.90722 0.0354 1.4733-0.0017 2.9467 0.01684 4.4216 1.0843-0.0177 2.1686-0.0177 3.2546-8e-3 0.55983 0.0016 1.0843 0.46489 1.0674 1.0118 0.01008 1.4009 0.0017 2.8035 0.0034 4.2045 0.0472 0.53882-0.46206 1.1018-1.0506 1.0229-0.55313 0.0033-0.92916-0.53882-0.89714-1.0294-0.0084-1.1211 0.0051-2.2438-5e-3 -3.3649-1.1063 0.01125-2.2125 0.02735-3.3153-0.0016-0.52278 0.0032-1.022-0.45844-0.9747-0.96671-0.01014-1.4347 0.0017-2.8711-0.0034-4.3074-0.80103 0.0016-1.6003 0.0065-2.4013-0.0049-0.34063 1.6198-0.85499 3.3247-2.1417 4.5021-0.4384 0.42943-1.0337 0.64015-1.5547 0.95221-0.70658 0.58066-0.76558 1.5506-0.78413 2.3773 0.63738 0.0161 1.285-0.05949 1.9157 0.05469 0.51768 0.08843 0.80939 0.61121 0.79255 1.0793 5e-3 2.1425 0.0034 4.2849 0 6.4258-0.10453 1.4927 0.74032 2.958 1.9544 3.8635 1.2378 0.90876 2.8853 0.9876 4.3811 0.84122 0.98988-0.08843 2.0641-0.2734 2.8297-0.92326-0.34235-0.71574-0.64586-1.446-0.9747-2.1666-0.78585 0.16082-1.6273 0.3587-2.3997 0.03699-1.0472-0.341-1.6644-1.4251-1.6155-2.4465 0.0017-1.9334-0.01008-3.8667 0.0051-5.8001-0.03374-0.61121 0.7335-1.0439 1.3018-0.79937 0.42494 0.12383 0.61385 0.57581 0.60709 0.9699 0.01014 1.8224-0.0084 3.6447 0.0068 5.4688 0.02188 0.31199 0.03706 0.75593 0.41314 0.87336 0.64924 0.09328 1.2799-0.14638 1.8634-0.39084 0.50256-0.22842 1.086 0.12223 1.2681 0.58386 0.55479 1.1871 1.0489 2.3982 1.5919 3.5917 0.23948 0.48412-0.20402 0.93291-0.50588 1.2803-1.2378 1.1822-3.0472 1.4541-4.7049 1.6777-1.4704 0.11418-2.9814-0.14798-4.3086-0.76404-2.0219-0.957-3.3625-2.9757-3.6779-5.0747-0.02022-2.1795 0.0051-4.3589-0.01346-6.5368-0.65263-8e-3 -1.3153 0.06594-1.9612-0.04504-0.66276-0.27346-0.6914-1.0568-0.73356-1.6455-0.04388-1.372 0.2715-2.9001 1.3845-3.8603 0.52106-0.50508 1.3355-0.61606 1.7959-1.1887 0.92916-1.1066 1.2158-2.5494 1.4468-3.9118z" fill="url(#paint19_linear)" stroke-width=".61452"/>
 <defs>
  <linearGradient id="paint0_linear" x1="18" x2="18" y1="55" y2="14" gradientTransform="matrix(.61452 0 0 .61452 3.1182 8.3605)" gradientUnits="userSpaceOnUse">
   <stop stop-color="#02AA93" offset="0"/>
   <stop stop-color="#67FF80" offset="1"/>
  </linearGradient>
  <linearGradient id="paint19_linear" x1="51" x2="51" y1="54" y2="15" gradientTransform="matrix(.61452 0 0 .61452 3.1182 8.3605)" gradientUnits="userSpaceOnUse">
   <stop stop-color="#02AA93" offset="0"/>
   <stop stop-color="#67FF80" offset="1"/>
  </linearGradient>
  <linearGradient id="linearGradient974" x1="9.0745" x2="22.265" y1="5.9862" y2="5.9862" gradientTransform="matrix(1.2952 0 0 1.2952 33.392 21.192)" gradientUnits="userSpaceOnUse" xlink:href="#paint19_linear"/>
 </defs>
 <path d="m48.012 19.096v8.0769h4.7232c2.0228 0 3.4786-0.31718 4.3674-0.95154 0.88765-0.63551 1.3315-1.7068 1.3315-3.2138 0-1.3827-0.49448-2.3803-1.4834-2.9928-0.98896-0.61249-2.5628-0.91873-4.7214-0.91873zm4.908 10.507h-4.908v9.2253h5.1446c1.9894 0 3.4873-0.38511 4.4935-1.1553 1.0062-0.77021 1.5093-1.9762 1.5093-3.6179 0-1.5289-0.51405-2.6532-1.5422-3.3727-1.0293-0.71956-2.595-1.0793-4.6973-1.0793zm-7.7747 11.671v-24.657h6.9647c3.272 0 5.639 0.4893 7.1012 1.4679 1.461 0.97745 2.1915 2.5231 2.1915 4.6368 0 1.4621-0.40756 2.6681-1.2227 3.6179-0.81512 0.94982-2.0038 1.5652-3.5661 1.8461v0.16924c3.744 0.64127 5.616 2.6088 5.616 5.9027 0 2.2036-0.74489 3.9236-2.2347 5.1601-1.4898 1.2376-3.5725 1.8565-6.2481 1.8565z" fill="url(#linearGradient974)" fill-rule="evenodd" stroke-width="1.2952"/>
</svg>
