<?xml version="1.0" encoding="UTF-8"?>
<svg width="192" height="192" fill="none" version="1.1" viewBox="0 0 192 192" xmlns="http://www.w3.org/2000/svg">
 <path d="m77.984 3.264c10.308-0.63473 20.644 0.1037 30.98-0.11658 6.297-0.79027 11.732 4.4046 13.306 9.8066 2.108 5.739 2.123 12.035 4.476 17.683 4.094 3.2257 8.885 5.5705 13.486 8.1096 6.05-1.995 11.909-4.5471 18.138-6.0368 5.298-1.3603 11.691 0.5052 14.47 5.1689 4.531 7.0603 8.68 14.354 12.705 21.699 2.176 4.6118 5.174 10.338 1.628 15.04-4.312 5.9203-11.307 9.4698-16.167 14.924-1.123 4.1325-0.713 8.5501-0.685 12.799 4.134 7.371 13.826 10.571 17.468 18.357 2.013 3.524 1.369 7.89-0.848 11.18-4.998 8.24-9.939 16.518-15.292 24.549-3.56 5.247-11.253 5.985-16.77 3.226-4.778-2.28-11.02-2.655-14.279-7.125-3.545-4.469 0.795-11.711 6.668-11.128 4.545 0.427 8.555 2.759 12.744 4.301 4.422-6.529 8.325-13.356 12.514-20.015-6.531-6.18-16.127-11.141-17.62-20.546-0.465-6.2963-0.383-12.67 0.329-18.927 2.588-8.2781 11.239-12.45 17.18-18.318-3.777-6.8012-7.898-13.408-11.594-20.248-9.241 2.2281-18.837 9.1329-28.42 4.1454-7.516-4.7933-17.702-7.8635-20.96-16.686-1.533-5.5317-2.601-11.193-4.106-16.738-7.7352 0.0519-15.47 0.0777-23.205-0.013-0.7803 6.1017-1.985 12.333-5.0789 17.813-2.998 5.3762-8.8709 8.3039-14.1 11.439-3.7237 2.1116-7.4747 4.7414-11.979 4.9487-7.6527 0.4793-14.32-4.0548-21.452-5.6094-4.1891 6.4903-8.0359 13.162-12.28 19.613 4.4903 3.9253 9.3091 7.5397 13.43 11.815 4.1343 4.3268 4.8736 10.403 4.545 15.999-0.3148 5.7127 0.712 12.165-3.3266 16.997-4.0247 5.027-9.6512 8.64-14.552 12.864 3.7647 6.969 8.0496 13.68 11.787 20.676 7.9948-2.163 15.579-7.514 24.272-5.792 5.1336 1.257 9.2817 4.599 13.827 7.009 4.942 2.526 9.6923 6.192 11.267 11.517 1.4237 5.389 2.7927 10.804 3.7784 16.297 7.8168 0.065 15.647 0 23.478 0.026 1.095-4.651 0.247-11.05 5.257-13.81 4.901-3.032 12.239 1.244 11.568 6.762 0 8.693-2.464 20.132-12.855 22.516-11.513 0.375-23.053-0.233-34.58 0.077-2.1082-1.489-4.8188-2.707-5.8318-5.181-2.8612-7.358-3.9837-15.157-5.9003-22.762-4.5313-2.811-9.0763-5.635-13.854-8.058-6.1605 2.151-12.198 4.677-18.577 6.232-5.4349 1.269-11.582-1.114-14.265-5.805-4.4355-7.099-8.6109-14.353-12.608-21.685-2.3272-4.755-4.5313-10.74-0.80769-15.416 4.7778-5.441 11.294-9.262 16.209-14.613-0.1369-4.327 0.5613-8.6798-0.0822-12.968-5.1883-7.151-15.25-10.752-17.947-19.523-1.5469-4.4176 1.0268-8.7315 3.3129-12.45 4.4902-7.0344 8.5971-14.289 13.307-21.194 3.0117-4.3657 9.0763-6.2441 14.237-4.3916 5.7086 2.1634 11.431 4.2362 17.208 6.2053 4.2301-2.6168 8.7888-4.7932 12.677-7.8765 4.1069-4.4822 2.916-10.96 4.8462-16.284 1.4784-4.2491 3.5182-9.7808 8.9257-10.48z" fill="url(#paint0_linear)"/>
 <path d="m83.501 58.891c19.576-5.5188 42.068 5.6611 48.488 23.966 7.147 17.826-2.572 39.616-21.04 47.22-17.29 8.032-39.879 1.879-50.297-13.356-10.801-14.678-8.3644-36.364 5.5308-48.515 4.8187-4.4176 10.842-7.6433 17.318-9.3144zm4.0521 14.198c-9.9934 2.4613-17.756 11.439-18.112 21.246-0.6434 8.7316 4.5587 17.463 12.663 21.634 8.9394 4.833 21.042 3.537 28.557-3.147 7.297-6.115 10.062-16.492 6.626-25.132-4.025-11.154-17.742-17.981-29.734-14.6z" fill="url(#paint1_linear)"/>
 <defs>
  <linearGradient id="paint0_linear" x1="16.286" x2="167.24" y1="96.281" y2="79.65" gradientUnits="userSpaceOnUse">
   <stop stop-color="#8D01A2" offset="0"/>
   <stop stop-color="#FF00D2" offset="1"/>
  </linearGradient>
  <linearGradient id="paint1_linear" x1="59.662" x2="124.84" y1="95.545" y2="87.937" gradientUnits="userSpaceOnUse">
   <stop stop-color="#8D01A2" offset="0"/>
   <stop stop-color="#FF00D2" offset="1"/>
  </linearGradient>
 </defs>
</svg>
