<?xml version="1.0" encoding="UTF-8"?>
<svg width="64" height="64" fill="none" version="1.1" viewBox="0 0 64 64" xmlns="http://www.w3.org/2000/svg" xmlns:xlink="http://www.w3.org/1999/xlink">
 <g stroke-width="1.881">
  <path d="m14.497 24.732h11.433v2.9684h-15.93v-2.4099l11.066-15.988h-10.992v-2.9979h15.503v2.3512z" fill="url(#paint2_linear)"/>
  <path d="m14.497 24.732-1.5488-1.0675 1.5488 2.9485zm11.433 0h1.881l-1.881-1.881zm0 2.9684v1.881l1.881-1.881zm-15.93 0h-1.881l1.881 1.881zm0-2.4099-1.5467-1.0705-0.33425 1.0705zm11.066-15.988 1.5467 1.0703-1.5467-2.9513zm-10.992 0h-1.881l1.881 1.881zm0-2.9979v-1.881l-1.881 1.881zm15.503 0h1.881l-1.881-1.881zm0 2.3512 1.5488 1.0675 0.33218-1.0675zm-11.08 17.958h11.433v-3.762h-11.433zm9.5519-1.881v2.9684h3.762v-2.9684zm1.881 1.0874h-15.93v3.762h15.93zm-14.049 1.881v-2.4099h-3.762v2.4099zm-0.33425-1.3396 11.066-15.988-3.0935-2.1408-11.066 15.988zm9.5188-18.94h-10.992v3.762h10.992zm-9.111 1.881v-2.9979h-3.762v2.9979zm-1.881-1.1169h15.503v-3.762h-15.503zm13.622-1.881v2.3512h3.762v-2.3512zm0.33237 1.2838-11.08 16.077 3.0976 2.1349 11.08-16.077z" fill="url(#paint3_linear)"/>
 </g>
 <g transform="matrix(.84715 .16458 -.16458 .84715 23.822 11.436)" fill="url(#linearGradient1230)" stop-color="#000000" stroke-width="1.881" style="-inkscape-stroke:none;font-variation-settings:normal">
  <path d="m14.497 24.732h11.433v2.9684h-15.93v-2.4099l11.066-15.988h-10.992v-2.9979h15.503v2.3512z" stop-color="#000000" style="-inkscape-stroke:none;font-variation-settings:normal"/>
  <path d="m14.497 24.732-1.5488-1.0675 1.5488 2.9485zm11.433 0h1.881l-1.881-1.881zm0 2.9684v1.881l1.881-1.881zm-15.93 0h-1.881l1.881 1.881zm0-2.4099-1.5467-1.0705-0.33425 1.0705zm11.066-15.988 1.5467 1.0703-1.5467-2.9513zm-10.992 0h-1.881l1.881 1.881zm0-2.9979v-1.881l-1.881 1.881zm15.503 0h1.881l-1.881-1.881zm0 2.3512 1.5488 1.0675 0.33218-1.0675zm-11.08 17.958h11.433v-3.762h-11.433zm9.5519-1.881v2.9684h3.762v-2.9684zm1.881 1.0874h-15.93v3.762h15.93zm-14.049 1.881v-2.4099h-3.762v2.4099zm-0.33425-1.3396 11.066-15.988-3.0935-2.1408-11.066 15.988zm9.5188-18.94h-10.992v3.762h10.992zm-9.111 1.881v-2.9979h-3.762v2.9979zm-1.881-1.1169h15.503v-3.762h-15.503zm13.622-1.881v2.3512h3.762v-2.3512zm0.33237 1.2838-11.08 16.077 3.0976 2.1349 11.08-16.077z" stop-color="#000000" style="-inkscape-stroke:none;font-variation-settings:normal"/>
 </g>
 <g transform="matrix(.6207 .26883 -.26883 .6207 44.67 28.544)" fill="url(#linearGradient1230)" stop-color="#000000" stroke-width="1.881" style="-inkscape-stroke:none;font-variation-settings:normal">
  <path d="m14.497 24.732h11.433v2.9684h-15.93v-2.4099l11.066-15.988h-10.992v-2.9979h15.503v2.3512z" stop-color="#000000" style="-inkscape-stroke:none;font-variation-settings:normal"/>
  <path d="m14.497 24.732-1.5488-1.0675 1.5488 2.9485zm11.433 0h1.881l-1.881-1.881zm0 2.9684v1.881l1.881-1.881zm-15.93 0h-1.881l1.881 1.881zm0-2.4099-1.5467-1.0705-0.33425 1.0705zm11.066-15.988 1.5467 1.0703-1.5467-2.9513zm-10.992 0h-1.881l1.881 1.881zm0-2.9979v-1.881l-1.881 1.881zm15.503 0h1.881l-1.881-1.881zm0 2.3512 1.5488 1.0675 0.33218-1.0675zm-11.08 17.958h11.433v-3.762h-11.433zm9.5519-1.881v2.9684h3.762v-2.9684zm1.881 1.0874h-15.93v3.762h15.93zm-14.049 1.881v-2.4099h-3.762v2.4099zm-0.33425-1.3396 11.066-15.988-3.0935-2.1408-11.066 15.988zm9.5188-18.94h-10.992v3.762h10.992zm-9.111 1.881v-2.9979h-3.762v2.9979zm-1.881-1.1169h15.503v-3.762h-15.503zm13.622-1.881v2.3512h3.762v-2.3512zm0.33237 1.2838-11.08 16.077 3.0976 2.1349 11.08-16.077z" stop-color="#000000" style="-inkscape-stroke:none;font-variation-settings:normal"/>
 </g>
 <defs>
  <linearGradient id="paint2_linear" x1="18" x2="46" y1="51" y2="51" gradientTransform="matrix(1.881 0 0 1.881 -59.416 -68.23)" gradientUnits="userSpaceOnUse">
   <stop stop-color="#FD5900" offset="0"/>
   <stop stop-color="#FF007A" offset="1"/>
  </linearGradient>
  <linearGradient id="paint3_linear" x1="12.909" x2="44.742" y1="51" y2="49.92" gradientTransform="matrix(1.881 0 0 1.881 -59.416 -68.23)" gradientUnits="userSpaceOnUse">
   <stop stop-color="#FD5900" offset="0"/>
   <stop stop-color="#FF007A" offset="1"/>
  </linearGradient>
  <linearGradient id="linearGradient1230" x1="12.909" x2="44.742" y1="51" y2="49.92" gradientTransform="matrix(1.881 0 0 1.881 -59.416 -68.23)" gradientUnits="userSpaceOnUse" xlink:href="#paint3_linear"/>
 </defs>
</svg>
