<?xml version="1.0" encoding="UTF-8"?>
<svg width="192" height="192" fill="none" version="1.1" viewBox="0 0 192 192" xmlns="http://www.w3.org/2000/svg">
 <path d="m125.61 6.2794c9.3104 4.4701 17.976 10.153 27.108 14.998 5.8836 2.3791 8.0974 9.5641 6.8388 15.048-0.95652 6.0386-4.012 11.543-4.7104 17.622 2.0026 4.812 5.0431 9.1946 7.8231 13.654 6.2551 1.2068 12.615 1.834 18.78 3.5692 5.2891 1.3945 9.9621 6.1393 10.116 11.566 0.5152 8.3733 0.58318 16.764 0.51764 25.14-0.34775 5.0875-0.5208 11.549-5.9091 13.926-6.6507 3.0678-14.489 2.7578-21.391 5.1514-2.9948 3.0611-4.7899 7.1183-6.8362 10.842 0.0171 8.4511 6.9203 15.969 6.3055 24.543 0.0401 4.0582-2.6502 7.5566-6.1896 9.3488-8.3803 4.759-16.729 9.5789-25.318 13.982-5.6659 2.8464-12.743-0.25872-16.216-5.3568-3.0608-4.3196-8.3284-7.6894-8.9954-13.181-0.91724-5.6301 6.4021-9.8383 11.246-6.4668 3.7605 2.5881 6.1253 6.5788 9.0315 9.967 7.0434-3.5457 13.779-7.6046 20.682-11.377-2.6906-8.5794-8.6516-17.588-5.3713-26.528 2.6628-5.7244 5.841-11.25 9.5124-16.366 6.2945-5.9669 15.882-5.3928 23.929-7.6213 0.0169-7.7796-0.36123-15.557-0.25474-23.331-9.155-2.5585-20.899-1.2065-26.836-10.232-4.2266-7.8487-11.624-15.494-10.169-24.785 1.3576-5.5774 3.1842-11.041 4.5726-16.616-6.7795-3.7248-13.546-7.4721-20.255-11.321-3.6553 4.9476-7.7443 9.8014-13.117 13.078-5.2382 3.2332-11.793 2.9271-17.888 3.1158-4.2806 0.02888-8.8377 0.49694-12.871-1.5172-6.9158-3.3114-10.527-10.52-15.997-15.354-6.8212 3.6254-13.432 7.576-20.282 11.141 2.0077 5.6161 4.4537 11.121 5.968 16.862 1.5011 5.7931-0.81468 11.459-3.8293 16.185-3.0592 4.8348-5.3074 10.969-11.189 13.22-5.9644 2.4278-12.638 2.8403-18.977 4.1399-0.10942 7.9201 0.36113 15.868 0.21463 23.799 8.0351 2.008 17.266 1.0321 24.017 6.7727 3.8699 3.5997 5.863 8.5396 8.657 12.859 3.0841 4.6144 5.4451 10.131 4.2244 15.548-1.3834 5.3995-2.8273 10.795-4.6439 16.072 6.7938 3.8667 13.663 7.6265 20.488 11.466 3.223-3.5274 5.6014-9.5282 11.321-9.4964 5.7572-0.25874 10.081 7.0515 6.8052 11.543-4.237 7.5906-11.964 16.378-22.199 13.395-10.236-5.284-20.016-11.44-30.232-16.787-1.1151-2.3277-2.8883-4.7124-2.567-7.3664 1.0879-7.8194 3.909-15.176 5.9421-22.751-2.5866-4.663-5.1787-9.3441-8.1696-13.788-6.4276-1.1244-12.93-1.8613-19.259-3.6128-5.3642-1.5409-9.5699-6.6176-9.6264-12.021-0.41295-8.3606-0.52323-16.73-0.4401-25.08 0.28553-5.2862 1.278-11.586 6.8085-13.855 6.8238-2.4223 14.376-2.5827 21.275-4.8597 1.9894-3.845 4.7206-7.3054 6.2487-11.363-1.0449-8.7729-8.0756-16.822-6.1558-25.794 0.80238-4.6113 5.1523-7.1237 8.9606-9.2559 7.3493-3.9538 14.471-8.2866 21.949-12.02 4.7576-2.3441 10.969-1.0284 14.572 3.1046 3.9302 4.6714 7.9166 9.2704 12.001 13.806 4.9691-0.22319 10.01 0.09832 14.908-0.69899 5.7707-1.9121 7.8879-8.1484 12.168-11.857 3.3619-2.9897 7.8392-6.8256 12.902-4.8009z" fill="url(#paint0_linear)"/>
 <path d="m83.501 58.891c19.576-5.5188 42.068 5.6611 48.488 23.966 7.147 17.826-2.572 39.616-21.04 47.22-17.29 8.032-39.879 1.879-50.297-13.356-10.801-14.678-8.3644-36.364 5.5308-48.515 4.8187-4.4176 10.842-7.6433 17.318-9.3144zm4.0521 14.198c-9.9934 2.4613-17.756 11.439-18.112 21.246-0.6434 8.7316 4.5587 17.463 12.663 21.634 8.9394 4.833 21.042 3.537 28.557-3.147 7.297-6.115 10.062-16.492 6.626-25.132-4.025-11.154-17.742-17.981-29.734-14.6z" fill="url(#paint1_linear)"/>
 <defs>
  <linearGradient id="paint0_linear" x1="16.286" x2="167.24" y1="96.281" y2="79.65" gradientTransform="rotate(29.17 96 96.281)" gradientUnits="userSpaceOnUse">
   <stop stop-color="#2401a2" offset="0"/>
   <stop stop-color="#ff0063" offset="1"/>
  </linearGradient>
  <linearGradient id="paint1_linear" x1="59.662" x2="124.84" y1="95.545" y2="87.937" gradientUnits="userSpaceOnUse">
   <stop stop-color="#8D01A2" offset="0"/>
   <stop stop-color="#FF00D2" offset="1"/>
  </linearGradient>
 </defs>
</svg>
