<?xml version="1.0" encoding="UTF-8"?>
<svg width="512" height="512" version="1.1" viewBox="0 0 512 512" xmlns="http://www.w3.org/2000/svg" xmlns:cc="http://creativecommons.org/ns#" xmlns:dc="http://purl.org/dc/elements/1.1/" xmlns:rdf="http://www.w3.org/1999/02/22-rdf-syntax-ns#" xmlns:xlink="http://www.w3.org/1999/xlink">
 <defs>
  <linearGradient id="linearGradient861">
   <stop stop-color="#b072ff" offset="0"/>
   <stop stop-color="#d17237" offset="1"/>
  </linearGradient>
  <linearGradient id="linearGradient863" x1="34.15" x2="471.95" y1="253.05" y2="253.05" gradientUnits="userSpaceOnUse" xlink:href="#linearGradient861"/>
  <linearGradient id="linearGradient919" x1="358.46" x2="87.694" y1="213.31" y2="227.03" gradientTransform="matrix(1.0755 0 0 1.0755 -15.981 -22.117)" gradientUnits="userSpaceOnUse" xlink:href="#linearGradient861"/>
  <linearGradient id="linearGradient1778" x1="358.46" x2="87.694" y1="213.31" y2="227.03" gradientTransform="matrix(1.0755 0 0 1.0755 229.61 294.19)" gradientUnits="userSpaceOnUse" xlink:href="#linearGradient861"/>
 </defs>
 <metadata>
  <rdf:RDF>
   <cc:Work rdf:about="">
    <dc:format>image/svg+xml</dc:format>
    <dc:type rdf:resource="http://purl.org/dc/dcmitype/StillImage"/>
   </cc:Work>
  </rdf:RDF>
 </metadata>
 <g>
  <path d="m471.95 253.05c0 120.9-98.01 218.9-218.9 218.9-120.9 0-218.9-98.01-218.9-218.9 0-120.9 98.01-218.9 218.9-218.9 120.9 0 218.9 98.01 218.9 218.9" fill="none" fill-rule="evenodd" stroke="url(#linearGradient863)" stroke-width="49.1"/>
  <path d="m270.72 93.98c-1.0625 5.12e-4 -2.1249 0.02222-3.1865 0.0651-86.729 1.7167-156.59 72.626-156.59 159.76 0 87.143 69.869 158.06 156.61 159.76-42.858-1.7192-76.713-36.97-76.7-79.862-0.0124-43.412 34.64-78.892 78.04-79.904 44.855 1.0454 81.778-35.037 81.765-79.904 0.0119-44.15-35.785-79.942-79.935-79.925zm-0.16594 59.951c11.109-0.11005 20.173 8.8644 20.174 19.974 0 11.032-8.9435 19.976-19.976 19.976s-19.976-8.9434-19.976-19.976c6.5e-4 -10.955 8.8244-19.866 19.779-19.974z" fill="#fff" stroke="url(#linearGradient919)" stroke-width="21.616"/>
  <path d="m265.37 316.3c11.109-0.11005 20.173 8.8644 20.174 19.974 0 11.032-8.9435 19.976-19.976 19.976s-19.976-8.9434-19.976-19.976c6.5e-4 -10.955 8.8244-19.866 19.779-19.974z" fill="#fff" stroke="url(#linearGradient1778)" stroke-width="21.016"/>
 </g>
</svg>
