<svg width="16" height="16" version="1.1" viewBox="0 0 16 16" xmlns="http://www.w3.org/2000/svg">
 <path d="m7.9322 1.2373-1.89 2.848-2.848-0.95798 0.95798 2.848-2.848 1.89 2.848 1.89-0.95798 2.848 2.848-0.95798 1.89 2.848 1.89-2.848 2.848 0.95798-0.95798-2.848 2.848-1.89-2.848-1.89 0.95798-2.848-2.848 0.95798m-2.4925 0.76698h1.205v3.615h-1.205zm0.6025 4.6387c0.4332 0 0.78385 0.35066 0.78385 0.78385 0 0.4332-0.35066 0.78386-0.78385 0.78386s-0.78385-0.35066-0.78385-0.78386c0-0.4332 0.35066-0.78385 0.78385-0.78385" fill="#ef555c" fill-rule="evenodd" stroke-width=".6025"/>
</svg>
