<svg width="22" height="22" version="1.1" viewBox="0 0 22 22" xmlns="http://www.w3.org/2000/svg">
 <path d="m10.881 1.7458-2.615 3.9405-3.9405-1.3254 1.3254 3.9405-3.9405 2.615 3.9405 2.615-1.3254 3.9405 3.9405-1.3254 2.615 3.9405 2.615-3.9405 3.9405 1.3254-1.3254-3.9405 3.9405-2.615-3.9405-2.615 1.3254-3.9405-3.9405 1.3254m-3.4486 1.0612h1.6672v5.0016h-1.6672zm0.8336 6.4179c0.59936 0 1.0845 0.48516 1.0845 1.0845 0 0.59936-0.48516 1.0845-1.0845 1.0845s-1.0845-0.48516-1.0845-1.0845c0-0.59936 0.48516-1.0845 1.0845-1.0845" fill="#ef555c" fill-rule="evenodd" stroke-width=".83361"/>
</svg>
