<svg xmlns="http://www.w3.org/2000/svg" viewBox="0 0 22 22" width="22" height="22"><path d="M0 .5V0h99l.125.375q.125.375.5.5T100.5 1h2q.5 0 .875-.125t.5-.5L104 0h6v.5q0 .5-.5.5h-4q-.5 0-.875.125t-.5.5Q104 2 103.5 2h-3q-.5 0-.875-.125T99 1.5t-.625-.375Q98 1 97.5 1t-.875.125q-.375.125-.375.375t.375.375Q97 2 97.5 2t.875.125q.375.125.5.5T98.5 3h-2q-.5 0-.875.125t-.5.5Q95 4 94.5 4h-2q-.5 0-.625-.375t-.5-.5Q91 3 90.5 3t-.875.125q-.375.125-.375.375t.375.375Q90 4 90.5 4t.5.5q0 .5-.5.5H89l-.125-.375q-.125-.375-.5-.5T87.5 4q-.5 0-.875.125t-.375.375q0 .25.375.375l.75.25q.375.125.5.5T87.5 6H86l-.125-.375q-.125-.375-.5-.5T84.5 5q-.5 0-.875.125T83 5.5t-.625.375Q82 6 81.5 6t-.875.125q-.375.125-.375.375t.375.375Q81 7 81.5 7t.875-.125Q82.75 6.75 83 6.5t.625-.375Q84 6 84.5 6h.5v.5q0 .5-.5.5H84l-.375.125Q83.25 7.25 83 7.5t-.625.375L82 8h-1l-.375.125Q80.25 8.25 80 8.5t-.625.375L79 9l-.375.125Q78.25 9.25 78 9.5t-.625.375L77 10h-1l-.125-.375q-.125-.375-.5-.5T74.5 9q-.5 0-.875.125t-.5.5Q73 10 72.5 10t-.875.125q-.375.125-.5.5T70.5 11q-.5 0-.875.125t-.5.5Q69 12 68.5 12t-.875.125q-.375.125-.5.5L67 13l-.375.125q-.375.125-.375.375t.375.375L67 14l-.125.375q-.125.375-.5.5L66 15l-.125-.375q-.125-.375-.5-.5t-.75 0q-.375.125-.625.375t-.625.375l-.75.25q-.375.125-.5.5L62 16h-.5q-.5 0-.875.125t-.5.5L60 17l-.375.125q-.375.125-.625.375t-.625.375l-.75.25q-.375.125-.5.5L57 19l-.375.125q-.375.125-.625.375t-.625.375l-.75.25q-.375.125-.484.516l-.11.39.11-.012.11-.016-.22.03q-.216.034-.403.096l-.188.063.28-.094L54 21l-.375.125q-.375.125-.375.375t.375.375L54 22l-.28-.094-.282-.094.187.063q.188.063.406.094l.22.03-.11-.018-.11-.015-.14.39q-.14.39-.39.64l-.5.5-.5.5-.5.5q-.25.25-.623.375-.374.125-.377-.372V24l.375-.125q.375-.125.5-.5L52 23l.375-.125q.375-.125.375-.375t-.375-.375q-.375-.125-.75 0t-.5.5L51 23l-.375.125q-.375.125-.625.375l-.5.5q-.25.25-.25.5t.375.375L50 25l-.125.375q-.125.375-.375.625l-.5.5-.5.5-.5.5q-.25.25-.625.375L47 28v-1l.375-.125q.375-.125.625-.375l.5-.5q.25-.25.25-.5t-.25-.25q-.25 0-.5.25t-.625.375l-.75.25q-.375.125-.5.5L46 27l-.375.125q-.375.125-.375.375t.375.375L46 28v.5q0 .5-.375.625T45 29.5l-.5.5-.5.5-.5.5-.5.5-.5.5-.5.5-.5.5-.5.5-.5.5-.5.5-.5.5-.5.5-.5.5-.5.5-.5.5-.5.5-.5.5-.5.5-.5.5-.5.5-.5.5-.5.5-.5.5-.5.5-.5.5-.5.5-.5.5-.5.5-.5.5-.5.5-.5.5-.5.5-.5.5q-.25.25-.375.625L28 47l-.125.375q-.125.375-.375.625l-.5.5-.5.5-.5.5-.5.5q-.25.25-.375.625L25 51l-.125.375q-.125.375-.375.625l-.5.5-.5.5-.5.5-.5.5q-.25.25-.375.625L22 55l-.125.375q-.125.375-.375.625l-.5.5-.5.5q-.25.25-.375.625L20 58l-.125.375q-.125.375-.375.625l-.5.5-.5.5-.25.25.188-.188.187-.187L18.5 60q-.125.125-.22.28l-.093.157.047-.078.047-.08-.262-.298-.266-.297-.062.032-.062.03.125-.063q.126-.062.25-.187l.126-.125-.19.188-.186.188.25-.25.5-.5q.25-.25.376-.625t0-.75q-.125-.375-.375-.375t-.374.375l-.25.75q-.124.375-.374.625t-.25.5v.25-.375.125q0 .125.064.188l.062.062-.03-.03-.032-.032-.282.28q-.28.282-.03.532.25.25.625.375L18 61l-.125.375q-.125.375-.375.625t-.375.625L17 63l-.125.375q-.125.375-.375.625t-.375.625L16 65l-.125.375q-.125.375-.375.625t-.375.625L15 67l-.375.125q-.375.125-.5.5l-.25.75q-.125.375-.375.625t-.375.625L13 70l-.125.375q-.125.375-.375.625t-.375.625L12 72l-.125.375q-.125.375-.375.625t-.375.625L11 74v1-.75.25q0 .25-.03.47l-.033.218.016-.11.016-.11-.36.14q-.36.142-.487.517Q9.997 76 10 76.5v.5l-.125.375Q9.75 77.75 9.5 78t-.375.625L9 79l-.125.375Q8.75 79.75 8.5 80t-.375.625L8 81v1l-.125.375Q7.75 82.75 7.5 83t-.375.625L7 84v1-.75.25q0 .25-.03.47l-.032.218.015-.11.016-.11-.36.14q-.36.142-.487.517Q5.997 86 6 86.5V88v-.75.25q0 .25-.03.47l-.032.218.015-.11.016-.11-.36-.11q-.36-.108-.487-.483l-.25-.75q-.125-.375-.375-.375t-.376.375q-.125.375 0 .75T4.5 88q.253.25.375.625L5 89v2l-.125.375Q4.75 91.75 4.5 92t-.375.625L4 93v2-.75.25q0 .25-.03.47l-.033.218.016-.11.016-.11-.36.14q-.36.142-.487.517Q2.997 96 3 96.5V98l-.125.375Q2.75 98.75 2.5 99t-.375.625Q2 100 2 100.5v2.5l-.125.375q-.125.375-.375.625t-.375.625L1 105v5-.75.25q0 .25-.03.47l-.032.218.015-.11.016-.11-.488.016L0 110v-6l.375-.125q.375-.125.5-.5T1 102.5v-1q0-.5-.125-.875l-.125-.375.094.28.094.282-.063-.187q-.063-.188-.188-.313l-.125-.124.063.062.063.063.28-.282q.282-.28.032-.53-.25-.25-.625-.373L0 99V.5m1.125 97.875q.125.375.375.375t.375-.375Q2 98 2 97.5t-.125-.875l-.125-.375.094.28.093.282-.062-.187q-.063-.188-.156-.28l-.097-.095.047.047.048.047.264-.297Q2.25 95.75 2 95.5q-.25-.25-.625-.375t-.5.25q-.125.375.14.672l.266.297.05-.047.047-.047-.094.094q-.093.094-.155.28l-.063.19.094-.283.093-.28-.125.377Q1 97 1 97.5t.125.875m1-4q.125.375.375.375t.375-.375q.125-.375 0-.75l-.125-.375.094.28.094.282-.063-.187q-.063-.188-.156-.28l-.097-.095.047.047.048.047.264-.297q.266-.297.14-.672L3 92h-.5q-.5 0-.625.375t.14.672l.266.297.05-.047.047-.047-.094.094q-.092.094-.155.28l-.063.19.094-.283.093-.28-.125.377q-.125.375 0 .75m.75-2.75L3 92l.375-.125Q3.75 91.75 4 91.5t-.016-.547l-.265-.297-.05.047-.047.047.094-.094q.092-.094.155-.28l.063-.19-.094.283-.093.28.125-.377q.125-.375 0-.75l-.125-.375.094.28.095.28-.063-.186q-.063-.188-.156-.28l-.095-.095.048.046.046.047.264-.297q.27-.296.02-.546-.25-.25-.625-.375t-.5.25q-.125.375.14.672l.266.297.05-.046.045-.047-.094.094q-.09.095-.154.28l-.063.19.094-.282.094-.28-.124.376q-.125.375 0 .75l.125.375-.093-.28-.094-.28.063.185q.063.188.156.28l.095.095-.047-.046-.046-.047-.264.297q-.266.297-.14.672m2.25-7.25q.124.375.374.375t.375-.373q.123-.375 0-.75-.125-.375-.38-.376-.25 0-.376.376-.125.375 0 .75M6 82.5q.25.25.5.25t.5-.25q.25-.25-.03-.53l-.282-.282-.032.03-.03.032.06-.063q.064-.062.064-.187v-.125.375-.5.375-.125q0-.125-.063-.188l-.062-.062.03.03.032.032.282-.28q.28-.282.03-.532-.25-.25-.627-.375-.376-.125-.5.25-.125.375.156.656l.28.284.033-.03.03-.032-.06.064q-.064.062-.064.187v.126-.376.5-.374.125q0 .126.062.19l.062.06-.03-.03-.032-.03-.282.28q-.28.28-.03.53m1.126-3.124q.125.376.375.376t.377-.374l.25-.75Q8.25 78.25 8.5 78t.375-.625q.125-.375 0-.75T8.5 76.25q-.25 0-.375.375l-.25.75Q7.75 77.75 7.5 78t-.375.625q-.125.375 0 .75M9.25 74.5q0 .25.25.25t.25-.25v-.25.375-.125q0-.125-.063-.188l-.062-.062.03.03.033.032.28-.28q.282-.282.032-.532-.25-.25-.625-.375t-.5.25q-.125.375.156.656l.285.284.03-.03.032-.032-.063.064q-.062.062-.062.187v.126-.376.25m1-2q0 .25.25.25t.25-.25v-.25.376-.125q0-.124-.062-.187l-.062-.062.03.03.033.033.28-.28q.28-.283.03-.533-.25-.25-.623-.374-.374-.124-.5.25-.125.375.156.656l.283.28.03-.03.032-.03-.063.062q-.062.062-.062.187v.124-.375.25m1-2q0 .25.25.25t.25-.25v-.25.374-.125q0-.126-.063-.19l-.063-.06.03.03.033.03.28-.28q.282-.28.032-.53-.25-.25-.625-.376-.375-.125-.5.25t.156.656l.283.282.03-.03.032-.032-.063.063q-.062.062-.062.187v.125-.375.25m1-2q0 .25.25.25t.25-.25v-.25.375-.125q0-.125-.063-.188l-.062-.062.03.03.033.032.28-.28q.284-.282.034-.532-.25-.25-.625-.375-.376-.125-.5.25-.126.375.155.656l.283.283.03-.03.032-.032-.064.064q-.062.062-.062.187v.126-.376.25m1-2q0 .25.25.25t.25-.25q0-.25-.25-.25t-.25.25m.875-1.125q.123.374.373.374t.375-.376L15 65v.75-.25q0-.25-.125-.375L14.75 65l.063.063.062.062-.063-.438q-.062-.437-.312-.437t-.313.438l-.062.437.063-.063.062-.062-.125.125Q14 65.25 14 65.5v.25V65l.125.375m1.063-2.063q.062.438.312.438t.313-.438l.062-.437-.063.063-.062.062.125-.125Q16 62.75 16 62.5v-.25.75l-.125-.375q-.125-.375-.375-.375t-.375.375L15 63v-.75.25q0 .25.125.375l.125.125-.063-.063-.062-.062.063.438M16.25 61.5q0 .25.25.25t.25-.25q0-.25-.25-.25t-.25.25m-1.28 5.594L15 67l.094-.28.094-.282-.063.187L15 67l-.063.188.032-.094M19.25 56.5q0 .25.25.25t.5-.25l.5-.5q.25-.25.375-.625t0-.75q-.125-.375-.375-.375t-.375.375l-.25.75q-.125.375-.375.625t-.25.5m2-3q0 .25.25.25t.5-.25l.5-.5.5-.5.5-.5q.25-.25.375-.625t0-.75q-.125-.375-.375-.375t-.375.375l-.25.75q-.125.375-.375.625l-.5.5-.5.5q-.25.25-.25.5m3-4q0 .25.25.25t.25-.25q0-.25-.25-.25t-.25.25m1-1q0 .25.25.25t.25-.25q0-.25-.25-.25t-.25.25m.875-1.125q.125.375.375.375t.375-.375q.125-.375 0-.75t-.375-.375q-.25 0-.375.375t0 .75M27.25 45.5q0 .25.25.25t.25-.25q0-.25-.25-.25t-.25.25m1-1q0 .25.25.25t.5-.25l.5-.5.5-.5.5-.5q.25-.25.25-.5t-.25-.25q-.25 0-.5.25l-.5.5-.5.5-.5.5q-.25.25-.25.5m3-3q0 .25.25.25t.25-.25q0-.25-.25-.25t-.25.25m1-1q0 .25.25.25t.5-.25l.5-.5q.25-.25.375-.625L34 39l.375-.125q.375-.125.625-.375l.5-.5.5-.5.5-.5q.25-.25.375-.625L37 36l.375-.125q.375-.125.625-.375l.5-.5.5-.5.5-.5q.25-.25.25-.5t-.375-.375q-.375-.125-.75 0T38 33.5l-.5.5-.5.5-.5.5-.5.5-.5.5-.5.5-.5.5-.5.5-.5.5q-.25.25-.375.625l-.25.75q-.125.375-.375.625t-.25.5m8-8q0 .25.25.25t.5-.25l.5-.5.5-.5.5-.5q.25-.25.25-.5t-.25-.25q-.25 0-.5.25l-.5.5-.5.5-.5.5q-.25.25-.25.5m3-3q0 .25.25.25t.5-.25l.5-.5q.25-.25.25-.5t-.25-.25q-.25 0-.5.25l-.5.5q-.25.25-.25.5M76.625 8.875q.375.125.75 0T78 8.5t.625-.375l.75-.25q.375-.125.375-.375t-.375-.375q-.375-.125-.75 0T78 7.5t-.625.375l-.75.25q-.375.125-.375.375t.375.375M93.5 3q.5 0 .875-.125t.375-.375q0-.25-.375-.375T93.5 2q-.5 0-.875.125t-.375.375q0 .25.375.375T93.5 3" fill="none"/><path d="M12.63 7.138c2.214.032 2.502 1.688 3.15 1.73.8.048 1.257 1.015.932 1.67-.328.655-.823.32-.84 1.097-.012.452.204.786.38.794.5-.368 1.023-.374 1.285-.136.262.24.262.72.258 1.336 1.183 1.306 1.478 1.41 1.79 2.022.24.475.48 1.325-.17 1.598-.468 1.792-1.792 2.407-3.113 2.25-.442-.042-1.58.826-3.943.334-1.83-.38-10.033-2.312-9.066-5.872.85-3.14 3.78-10.168 4.65-10.983 0 0-.174 1.71.594 2.41.34-2.764 2.502-3.655 3.26-3.743-.744.852-1.12 1.834-.902 2.68 1.684-2.017 4.508-1.813 5.816-1.15-5.636.964-4.083 3.97-4.083 3.97z" fill="#fefefe" fill-rule="evenodd"/></svg>