<svg xmlns="http://www.w3.org/2000/svg" viewBox="0 0 22 22" width="22" height="22"><path d="M0 .5V0h99l.125.375q.125.375.5.5T100.5 1h2q.5 0 .875-.125t.5-.5L104 0h6v.5q0 .5-.5.5h-4q-.5 0-.875.125t-.5.5Q104 2 103.5 2h-3q-.5 0-.875-.125T99 1.5t-.625-.375Q98 1 97.5 1t-.875.125q-.375.125-.375.375t.375.375Q97 2 97.5 2t.875.125q.375.125.5.5T98.5 3h-2q-.5 0-.875.125t-.5.5Q95 4 94.5 4h-2q-.5 0-.625-.375t-.5-.5Q91 3 90.5 3t-.875.125q-.375.125-.375.375t.375.375Q90 4 90.5 4t.5.5q0 .5-.5.5H89l-.125-.375q-.125-.375-.5-.5T87.5 4q-.5 0-.875.125t-.375.375q0 .25.375.375l.75.25q.375.125.5.5T87.5 6H86l-.125-.375q-.125-.375-.5-.5T84.5 5q-.5 0-.875.125T83 5.5t-.625.375Q82 6 81.5 6t-.875.125q-.375.125-.375.375t.375.375Q81 7 81.5 7t.875-.125Q82.75 6.75 83 6.5t.625-.375Q84 6 84.5 6h.5v.5q0 .5-.5.5H84l-.375.125Q83.25 7.25 83 7.5t-.625.375L82 8h-1l-.375.125Q80.25 8.25 80 8.5t-.625.375L79 9l-.375.125Q78.25 9.25 78 9.5t-.625.375L77 10h-1l-.125-.375q-.125-.375-.5-.5T74.5 9q-.5 0-.875.125t-.5.5Q73 10 72.5 10t-.875.125q-.375.125-.5.5T70.5 11q-.5 0-.875.125t-.5.5Q69 12 68.5 12t-.875.125q-.375.125-.5.5L67 13l-.375.125q-.375.125-.375.375t.375.375L67 14l-.125.375q-.125.375-.5.5L66 15l-.125-.375q-.125-.375-.5-.5t-.75 0q-.375.125-.625.375t-.625.375l-.75.25q-.375.125-.5.5L62 16h-.5q-.5 0-.875.125t-.5.5L60 17l-.375.125q-.375.125-.625.375t-.625.375l-.75.25q-.375.125-.5.5L57 19l-.375.125q-.375.125-.625.375t-.625.375l-.75.25q-.375.125-.484.516l-.11.39.11-.013.11-.016-.22.03q-.217.034-.404.096l-.188.063.282-.095L54 21l-.375.125q-.375.125-.375.375t.375.375L54 22l-.28-.094-.282-.094.187.063q.188.063.406.094l.22.03-.11-.017-.11-.015-.14.39q-.14.39-.39.64l-.5.5-.5.5-.5.5q-.25.25-.624.375Q51 24.998 51 24.5V24l.375-.125q.375-.125.5-.5L52 23l.375-.125q.375-.125.375-.375t-.375-.375q-.375-.125-.75 0t-.5.5L51 23l-.375.125q-.375.125-.625.375l-.5.5q-.25.25-.25.5t.375.375L50 25l-.125.375q-.125.375-.375.625l-.5.5-.5.5-.5.5q-.25.25-.625.375L47 28v-1l.375-.125q.375-.125.625-.375l.5-.5q.25-.25.25-.5t-.25-.25q-.25 0-.5.25t-.625.375l-.75.25q-.375.125-.5.5L46 27l-.375.125q-.375.125-.375.375t.375.375L46 28v.5q0 .5-.375.625T45 29.5l-.5.5-.5.5-.5.5-.5.5-.5.5-.5.5-.5.5-.5.5-.5.5-.5.5-.5.5-.5.5-.5.5-.5.5-.5.5-.5.5-.5.5-.5.5-.5.5-.5.5-.5.5-.5.5-.5.5-.5.5-.5.5-.5.5-.5.5-.5.5-.5.5-.5.5-.5.5-.5.5-.5.5q-.25.25-.375.625L28 47l-.125.375q-.125.375-.375.625l-.5.5-.5.5-.5.5-.5.5q-.25.25-.375.625L25 51l-.125.375q-.125.375-.375.625l-.5.5-.5.5-.5.5-.5.5q-.25.25-.375.625L22 55l-.125.375q-.125.375-.375.625l-.5.5-.5.5q-.25.25-.375.625L20 58l-.125.375q-.125.375-.375.625l-.5.5-.5.5-.25.25.188-.188.187-.187L18.5 60q-.125.125-.22.28l-.093.157.047-.078.047-.08-.263-.297-.266-.297-.062.032-.062.03.125-.063q.126-.062.25-.187l.126-.125-.188.188-.187.188.25-.25.5-.5q.25-.25.376-.625.125-.375 0-.75t-.375-.375q-.25 0-.374.375l-.25.75q-.125.375-.375.625t-.25.5v.25-.375.125q0 .125.064.188l.062.062-.03-.03-.032-.032-.282.28q-.28.282-.03.532.25.25.625.375L18 61l-.125.375q-.125.375-.375.625t-.375.625L17 63l-.125.375q-.125.375-.375.625t-.375.625L16 65l-.125.375q-.125.375-.375.625t-.375.625L15 67l-.375.125q-.375.125-.5.5l-.25.75q-.125.375-.375.625t-.375.625L13 70l-.125.375q-.125.375-.375.625t-.375.625L12 72l-.125.375q-.125.375-.375.625t-.375.625L11 74v1-.75.25q0 .25-.03.47l-.033.218.016-.11.016-.11-.36.14q-.36.142-.486.517Q10 76 10 76.5v.5l-.125.375Q9.75 77.75 9.5 78t-.375.625L9 79l-.125.375Q8.75 79.75 8.5 80t-.375.625L8 81v1l-.125.375Q7.75 82.75 7.5 83t-.375.625L7 84v1-.75.25q0 .25-.03.47l-.032.218.015-.11.016-.11-.36.14q-.36.142-.486.517Q6 86 6 86.5V88v-.75.25q0 .25-.03.47l-.032.218.015-.11.016-.11-.36-.11q-.36-.108-.486-.483l-.25-.75q-.125-.375-.375-.375t-.376.375q-.125.375 0 .75T4.5 88q.25.25.375.625L5 89v2l-.125.375Q4.75 91.75 4.5 92t-.375.625L4 93v2-.75.25q0 .25-.03.47l-.033.218.016-.11.016-.11-.36.14q-.36.142-.486.517Q3 96 3 96.5V98l-.125.375Q2.75 98.75 2.5 99t-.375.625Q2 100 2 100.5v2.5l-.125.375q-.125.375-.375.625t-.375.625L1 105v5-.75.25q0 .25-.03.47l-.032.218.015-.11.016-.11-.487.016L0 110v-6l.375-.125q.375-.125.5-.5T1 102.5v-1q0-.5-.125-.875l-.125-.375.094.28.094.282-.063-.187q-.063-.188-.188-.313l-.125-.124.063.062.063.063.28-.282q.282-.28.032-.53-.25-.25-.625-.374L0 99V.5m1.125 97.875q.125.375.375.375t.375-.375Q2 98 2 97.5t-.125-.875l-.125-.375.094.28.093.282-.062-.187q-.063-.188-.156-.28l-.096-.095.047.047.048.047.264-.297Q2.25 95.75 2 95.5q-.25-.25-.625-.375t-.5.25q-.125.375.14.672l.266.297.05-.047.046-.047-.094.094q-.093.094-.155.28l-.063.19.094-.283.094-.28-.125.376Q1 97 1 97.5t.125.875m1-4q.125.375.375.375t.375-.375q.125-.375 0-.75l-.125-.375.094.28.094.282-.063-.187q-.063-.188-.156-.28l-.096-.095.047.047.048.047.264-.297q.266-.297.14-.672L3 92h-.5q-.5 0-.625.375t.14.672l.266.297.05-.047.046-.047-.094.094q-.092.094-.155.28l-.063.19.094-.283.094-.28-.125.376q-.125.375 0 .75m.75-2.75L3 92l.375-.125Q3.75 91.75 4 91.5t-.016-.547l-.265-.297-.05.047-.046.047.094-.094q.092-.094.155-.28l.063-.19-.094.283-.094.28.125-.376q.125-.375 0-.75l-.125-.375.094.28.094.28-.063-.186q-.063-.188-.156-.28l-.095-.095.047.046.046.047.264-.297q.27-.296.02-.546-.25-.25-.625-.375t-.5.25q-.125.375.14.672l.266.297.05-.047.046-.047-.094.094q-.092.094-.155.28l-.063.19.094-.283.094-.28-.125.376q-.125.375 0 .75l.125.375-.094-.28-.094-.28.063.186q.063.188.156.28l.095.095-.047-.046-.046-.047-.264.297q-.266.297-.14.672m2.25-7.25q.124.375.374.375t.375-.374q.124-.375 0-.75-.126-.375-.38-.376-.25 0-.375.375t0 .75M6 82.5q.25.25.5.25t.5-.25q.25-.25-.03-.53l-.282-.282-.032.03-.03.032.06-.063q.064-.062.064-.187v-.125.375-.5.375-.125q0-.125-.063-.188l-.062-.062.03.03.032.032.282-.28q.28-.282.03-.532-.25-.25-.626-.375-.375-.125-.5.25t.156.656l.282.283.032-.03.03-.032-.06.064q-.064.062-.064.187v.126-.375.5-.374.125q0 .126.063.19l.062.06-.03-.03-.032-.03-.282.28q-.28.28-.03.53m1.126-3.124q.125.375.375.375t.376-.374l.25-.75Q8.25 78.25 8.5 78t.375-.625q.125-.375 0-.75T8.5 76.25q-.25 0-.375.375l-.25.75Q7.75 77.75 7.5 78t-.375.625q-.125.375 0 .75M9.25 74.5q0 .25.25.25t.25-.25v-.25.375-.125q0-.125-.063-.188l-.062-.062.03.03.033.032.28-.28q.282-.282.032-.532-.25-.25-.625-.375t-.5.25q-.125.375.156.656l.284.283.03-.03.032-.032-.063.064q-.062.062-.062.187v.126-.375.25m1-2q0 .25.25.25t.25-.25v-.25.376-.125q0-.124-.062-.187l-.062-.062.03.03.033.033.28-.28q.28-.282.03-.532-.25-.25-.624-.374-.375-.125-.5.25t.156.656l.283.282.03-.03.032-.032-.063.063q-.062.062-.062.187v.125-.375.25m1-2q0 .25.25.25t.25-.25v-.25.375-.125q0-.125-.063-.188l-.063-.062.03.03.033.032.28-.28q.282-.282.032-.532-.25-.25-.625-.375t-.5.25q-.125.375.156.656l.283.282.03-.03.032-.032-.063.063q-.062.062-.062.187v.125-.375.25m1-2q0 .25.25.25t.25-.25v-.25.375-.125q0-.125-.063-.188l-.062-.062.03.03.033.032.28-.28q.283-.282.033-.532-.25-.25-.625-.375t-.5.25q-.125.375.156.656l.283.282.03-.03.032-.032-.064.063q-.062.062-.062.187v.125-.376.25m1-2q0 .25.25.25t.25-.25q0-.25-.25-.25t-.25.25m.875-1.125q.124.374.374.374t.375-.375L15 65v.75-.25q0-.25-.125-.375L14.75 65l.063.063.062.062-.063-.438q-.062-.437-.312-.437t-.313.438l-.062.437.063-.063.062-.062-.125.125Q14 65.25 14 65.5v.25V65l.125.375m1.063-2.063q.062.438.312.438t.313-.438l.062-.437-.063.063-.062.062.125-.125Q16 62.75 16 62.5v-.25.75l-.125-.375q-.125-.375-.375-.375t-.375.375L15 63v-.75.25q0 .25.125.375l.125.125-.063-.063-.062-.062.063.438M16.25 61.5q0 .25.25.25t.25-.25q0-.25-.25-.25t-.25.25m-1.28 5.594L15 67l.094-.28.094-.282-.063.187L15 67l-.063.188.032-.094M19.25 56.5q0 .25.25.25t.5-.25l.5-.5q.25-.25.375-.625t0-.75q-.125-.375-.375-.375t-.375.375l-.25.75q-.125.375-.375.625t-.25.5m2-3q0 .25.25.25t.5-.25l.5-.5.5-.5.5-.5q.25-.25.375-.625t0-.75q-.125-.375-.375-.375t-.375.375l-.25.75q-.125.375-.375.625l-.5.5-.5.5q-.25.25-.25.5m3-4q0 .25.25.25t.25-.25q0-.25-.25-.25t-.25.25m1-1q0 .25.25.25t.25-.25q0-.25-.25-.25t-.25.25m.875-1.125q.125.375.375.375t.375-.375q.125-.375 0-.75t-.375-.375q-.25 0-.375.375t0 .75M27.25 45.5q0 .25.25.25t.25-.25q0-.25-.25-.25t-.25.25m1-1q0 .25.25.25t.5-.25l.5-.5.5-.5.5-.5q.25-.25.25-.5t-.25-.25q-.25 0-.5.25l-.5.5-.5.5-.5.5q-.25.25-.25.5m3-3q0 .25.25.25t.25-.25q0-.25-.25-.25t-.25.25m1-1q0 .25.25.25t.5-.25l.5-.5q.25-.25.375-.625L34 39l.375-.125q.375-.125.625-.375l.5-.5.5-.5.5-.5q.25-.25.375-.625L37 36l.375-.125q.375-.125.625-.375l.5-.5.5-.5.5-.5q.25-.25.25-.5t-.375-.375q-.375-.125-.75 0T38 33.5l-.5.5-.5.5-.5.5-.5.5-.5.5-.5.5-.5.5-.5.5-.5.5q-.25.25-.375.625l-.25.75q-.125.375-.375.625t-.25.5m8-8q0 .25.25.25t.5-.25l.5-.5.5-.5.5-.5q.25-.25.25-.5t-.25-.25q-.25 0-.5.25l-.5.5-.5.5-.5.5q-.25.25-.25.5m3-3q0 .25.25.25t.5-.25l.5-.5q.25-.25.25-.5t-.25-.25q-.25 0-.5.25l-.5.5q-.25.25-.25.5M76.625 8.875q.375.125.75 0T78 8.5t.625-.375l.75-.25q.375-.125.375-.375t-.375-.375q-.375-.125-.75 0T78 7.5t-.625.375l-.75.25q-.375.125-.375.375t.375.375M93.5 3q.5 0 .875-.125t.375-.375q0-.25-.375-.375T93.5 2q-.5 0-.875.125t-.375.375q0 .25.375.375T93.5 3" fill="none"/><path d="M12.598 7.222c2.286.033 2.584 1.743 3.252 1.786.828.05 1.298 1.048.963 1.725-.336.676-.848.33-.866 1.133-.013.467.21.812.392.82.514-.38 1.055-.386 1.325-.14.27.248.27.745.268 1.378 1.22 1.35 1.526 1.455 1.848 2.088.25.49.496 1.37-.175 1.65-.483 1.85-1.85 2.487-3.214 2.325-.455-.045-1.63.85-4.07.343-1.888-.392-10.36-2.387-9.36-6.064.878-3.242 3.902-10.5 4.8-11.34 0 0-.18 1.767.613 2.488.352-2.854 2.584-3.774 3.366-3.865-.768.878-1.156 1.89-.932 2.765 1.74-2.083 4.656-1.872 6.006-1.186-5.82.995-4.216 4.098-4.216 4.098z" fill="#499bee" fill-rule="evenodd"/></svg>