<?xml version="1.0" encoding="UTF-8"?>
<svg width="64" height="64" fill="none" version="1.1" viewBox="0 0 64 64" xmlns="http://www.w3.org/2000/svg" xmlns:xlink="http://www.w3.org/1999/xlink">
 <path d="m14.684 7.585c4.9883-3.8079 11.18-5.985 17.43-6.0721 6.2656-0.1425 12.566 1.7694 17.703 5.419 6.4609 4.5085 11.086 11.701 12.371 19.558 0.168 1.6506-1.793 2.9569-3.2188 2.1335-0.9375-0.3958-1.1992-1.4527-1.375-2.3591-0.875-4.279-2.9648-8.2334-5.7617-11.535-0.9375 0.9381-1.9336 1.8169-2.9804 2.6402-0.5508 0.2731-0.2501 0.9144-0.1055 1.3419 3.4531 8.7677 3.3672 18.877-0.1602 27.613 1.0821 0.8431 2.1094 1.7575 3.086 2.7194 3.1211-3.5032 5.2422-7.885 6.1132-12.516 0.1719-1.1479 1.3008-2.0464 2.4493-1.8644 1.3242 0.099 2.2773 1.5636 1.8984 2.8461-1.1914 6.4996-4.6133 12.532-9.4922 16.914-4.9844 4.5007-11.488 7.2675-18.168 7.608-7.2187 0.4829-14.578-1.8446-20.262-6.3769-5.6406-4.4611-9.6562-11.024-10.941-18.169-0.41797-1.425 0.80859-2.9766 2.2773-2.8302 1.1406 0.0317 1.9883 1.049 2.1172 2.1494 0.85938 4.4769 2.9414 8.6965 5.9296 12.108 1.1602-1.132 2.3829-2.2047 3.7149-3.1231-1.1133-3.5823-2.1445-7.2358-2.3008-11.016-0.3711-5.5892 0.5156-11.246 2.582-16.443-1.4922-1.0213-2.8593-2.2088-4.1601-3.4596-2.6953 3.226-4.7266 7.0616-5.5977 11.214-0.20703 0.958-0.41406 2.1296-1.4375 2.5373-1.5 0.8471-3.5156-0.6491-3.1445-2.3591 1.2773-7.3982 5.5039-14.191 11.434-18.679zm8.7695 8.8746c6.0039 2.7471 13.188 2.5768 19.074-0.4077-2.2461-3.903-5.2812-7.323-8.8593-10.019-0.2774-0.00396-0.8282-0.01187-1.1055-0.01979-3.707 2.7946-6.8555 6.3532-9.1094 10.446zm-6.7734-4.7263c0.9062 0.8867 1.8633 1.714 2.8789 2.4661 1.3672-2.4305 2.9687-4.7263 4.8203-6.8044-2.7774 1.0133-5.4063 2.4462-7.6992 4.3383zm25.535-3.9029c1.5313 1.805 2.9102 3.7446 4.1055 5.795 0.7695-0.6492 1.5117-1.33 2.2266-2.0385-1.9336-1.5398-4.086-2.759-6.3321-3.7565zm-20.684 12.738c-2.7773 7.2794-2.875 15.556-0.2226 22.883 7.3672-3.4437 16.188-3.2181 23.445 0.4236 2.8125-7.5921 2.7578-16.221-0.25-23.742-7.1055 3.5625-15.738 3.7169-22.973 0.4354zm1.6172 27.008c1.9922 3.8357 4.8008 7.1923 8.0664 9.975 1.2735 0.0752 2.5547 0.0475 3.8282-0.0514 3.0664-2.6957 5.9531-5.8029 7.6836-9.5554-6.0391-3.1034-13.438-3.2617-19.578-0.3682zm-6.3047 4.4532c1.9297 1.5477 4.0821 2.7827 6.3477 3.7525-1.4805-1.8367-2.7734-3.8198-3.9063-5.89-0.8515 0.6689-1.6679 1.3814-2.4414 2.1375zm29.742-1.52c-0.9375 1.6347-1.9609 3.226-3.1328 4.7025 1.7422-0.863 3.4141-1.8644 4.9453-3.0757-0.5937-0.5541-1.1992-1.0964-1.8125-1.6268z" fill="url(#paint0_linear)"/>
 <defs>
  <linearGradient id="paint0_linear" x1="32.702" x2="32.702" y1="62.094" y2="1.5055" gradientUnits="userSpaceOnUse">
   <stop stop-color="#FD2E00" offset="0"/>
   <stop stop-color="#fb5" offset="1"/>
  </linearGradient>
 </defs>
</svg>
