<?xml version="1.0" encoding="UTF-8"?>
<svg width="64" height="64" fill="none" version="1.1" viewBox="0 0 64 64" xmlns="http://www.w3.org/2000/svg">
 <path d="m36.714 48.25h2.5714c0.341 0 0.668-0.1284 0.9092-0.357 0.2411-0.2285 0.3765-0.5385 0.3765-0.8618v-21.937c0-0.3233-0.1354-0.6333-0.3765-0.8618-0.2412-0.2286-0.5682-0.357-0.9092-0.357h-2.5714c-0.341 0-0.668 0.1284-0.9092 0.357-0.2411 0.2285-0.3765 0.5385-0.3765 0.8618v21.937c0 0.3233 0.1354 0.6333 0.3765 0.8618 0.2412 0.2286 0.5682 0.357 0.9092 0.357zm17.571-34.125h-8.8296l-3.6429-5.7586c-0.4572-0.7221-1.1039-1.3196-1.8771-1.7343-0.7732-0.41471-1.6466-0.63248-2.535-0.63208h-10.802c-0.888-5e-5 -1.761 0.21788-2.5338 0.63258s-1.4192 1.012-1.8762 1.7338l-3.645 5.7586h-8.8296c-0.45466 0-0.8907 0.1712-1.2122 0.476-0.32149 0.3047-0.5021 0.718-0.5021 1.149v1.625c0 0.431 0.18061 0.8443 0.5021 1.149 0.32149 0.3048 0.75753 0.476 1.2122 0.476h1.7143v34.125c0 1.2929 0.5418 2.5329 1.5063 3.4471 0.9645 0.9143 2.2726 1.4279 3.6365 1.4279h30.857c1.3639 0 2.672-0.5136 3.6365-1.4279 0.9645-0.9142 1.5063-2.1542 1.5063-3.4471v-34.125h1.7143c0.4547 0 0.8907-0.1712 1.2122-0.476 0.3215-0.3047 0.5021-0.718 0.5021-1.149v-1.625c0-0.431-0.1806-0.8443-0.5021-1.149-0.3215-0.3048-0.7575-0.476-1.2122-0.476zm-27.874-2.9545c0.0573-0.0904 0.1384-0.1651 0.2353-0.2169s0.2063-0.0789 0.3176-0.0786h10.071c0.1111-1e-4 0.2203 0.027 0.317 0.0788s0.1776 0.1265 0.2348 0.2167l1.8707 2.9545h-14.916l1.8696-2.9545zm21.017 41.954h-30.857v-34.125h30.857v34.125zm-22.714-4.875h2.5714c0.341 0 0.668-0.1284 0.9092-0.357 0.2411-0.2285 0.3765-0.5385 0.3765-0.8618v-21.937c0-0.3233-0.1354-0.6333-0.3765-0.8618-0.2412-0.2286-0.5682-0.357-0.9092-0.357h-2.5714c-0.341 0-0.668 0.1284-0.9092 0.357-0.2411 0.2285-0.3765 0.5385-0.3765 0.8618v21.937c0 0.3233 0.1354 0.6333 0.3765 0.8618 0.2412 0.2286 0.5682 0.357 0.9092 0.357z" fill="url(#paint0_linear)"/>
 <defs>
  <linearGradient id="paint0_linear" x1="7.993" x2="55.99" y1="31.23" y2="31.23" gradientUnits="userSpaceOnUse">
   <stop stop-color="#bf3ac2" offset="0"/>
   <stop stop-color="#ff6f20" offset="1"/>
  </linearGradient>
 </defs>
</svg>
