<?xml version="1.0" encoding="UTF-8"?>
<svg version="1.1" viewBox="0 0 48 48" xmlns="http://www.w3.org/2000/svg">
 <linearGradient id="a" x1="4.936" x2="42.064" y1="23.794" y2="23.794" gradientTransform="matrix(1.0925 0 0 1.0925 -2.174 -2.2013)" gradientUnits="userSpaceOnUse">
  <stop stop-color="#86f94a" offset="0"/>
  <stop stop-color="#e04e00" offset="1"/>
 </linearGradient>
 <path d="m15.692 1.0129a0.50583 0.50583 0 0 0-0.41188 0.76476l1.5852 2.7258c-3.1355 1.8791-5.0037 4.9491-5.0037 8.2255h23.432c-0.006555-3.2754-1.8769-6.3442-5.0114-8.2179l1.5918-2.7335c0.33868-0.58559-0.5397-1.0925-0.87729-0.50693l-1.606 2.7542a13.206 13.206 0 0 0-5.8154-1.3405 13.196 13.196 0 0 0-5.8198 1.334l-1.6016-2.7499a0.50583 0.50583 0 0 0-0.46323-0.25783m2.0266 6.6949c1.1165 0 1.1165 1.6737 0 1.6737-1.1144 0-1.1144-1.6737 0-1.6737m11.716 0c1.1165 0 1.1165 1.6737 0 1.6737-1.1144 0-1.1144-1.6737 0-1.6737m-17.574 8.7456v18.411a3.3398 3.3398 0 0 0 3.3475 3.3475h1.6737v5.8591a2.5051 2.5051 0 0 0 2.5106 2.5106 2.5051 2.5051 0 0 0 2.5106-2.5106v-5.8591h3.3475v5.8591a2.5051 2.5051 0 0 0 2.5117 2.5106 2.5051 2.5051 0 0 0 2.5106-2.5106v-5.8591h1.6737a3.3398 3.3398 0 0 0 3.3475-3.3475v-18.411zm-5.2932-0.079754a2.5051 2.5051 0 0 0-2.5106 2.5106v11.716a2.5051 2.5051 0 0 0 2.5106 2.5106 2.5051 2.5051 0 0 0 2.5106-2.5106v-11.716a2.5051 2.5051 0 0 0-2.5106-2.5106m33.868 0a2.5051 2.5051 0 0 0-2.5106 2.5106v11.716a2.5051 2.5051 0 0 0 2.5106 2.5106 2.5051 2.5051 0 0 0 2.5106-2.5106v-11.716a2.5051 2.5051 0 0 0-2.5106-2.5106" fill="none" stroke="url(#a)" stroke-width="1.6737"/>
</svg>
