<?xml version="1.0" encoding="UTF-8"?>
<svg width="256" height="256" fill="none" version="1.1" viewBox="0 0 256 256" xmlns="http://www.w3.org/2000/svg">
 <path d="m221 62.437c0-1.0047-0.323-2.1192-0.859-2.9689-0.58-0.9194-1.24-1.967-1.241-1.9684l-47.9-48.146c-1.445-1.3962-12.709-7.3535-14.731-7.3535h-115.08c-3.9721 0-7.1923 3.2924-7.1923 7.3535v236.29c0 4.062 3.2202 7.354 7.1923 7.354h172.62c3.972 0 7.192-3.292 7.192-7.354v-177.46-5.7443zm-57.538-27.973c0-2.6888 3.264-4.0199 5.144-2.0977l22.852 23.364c1.858 1.8993 0.512 5.0977-2.145 5.0977h-22.851c-1.657 0-3-1.3431-3-3v-23.364zm-108.46 201.04c-1.6569 0-3-1.343-3-3v-210c0-1.6569 1.3431-3 3-3h86.5c1.657 0 3 1.3431 3 3v38.328c0 4.0611 14.989 18.172 18.962 18.172h36.538c1.657 0 3 1.3431 3 3v150.5c0 1.657-1.343 3-3 3h-145z" fill="#1C1C1C"/>
 <path d="m221 62.437c0-1.0047-0.323-2.1192-0.859-2.9689-0.58-0.9194-1.24-1.967-1.241-1.9684l-47.9-48.146c-1.445-1.3962-12.709-7.3535-14.731-7.3535h-115.08c-3.9721 0-7.1923 3.2924-7.1923 7.3535v236.29c0 4.062 3.2202 7.354 7.1923 7.354h172.62c3.972 0 7.192-3.292 7.192-7.354v-177.46-5.7443zm-57.538-27.973c0-2.6888 3.264-4.0199 5.144-2.0977l22.852 23.364c1.858 1.8993 0.512 5.0977-2.145 5.0977h-22.851c-1.657 0-3-1.3431-3-3v-23.364zm-108.46 201.04c-1.6569 0-3-1.343-3-3v-210c0-1.6569 1.3431-3 3-3h86.5c1.657 0 3 1.3431 3 3v38.328c0 4.0611 14.989 18.172 18.962 18.172h36.538c1.657 0 3 1.3431 3 3v150.5c0 1.657-1.343 3-3 3h-145z" fill="url(#paint0_linear)"/>
 <path d="m100.01 148.03c2.669-0.947 2.661-4.725-0.0133-5.66l-23.986-8.38c-1.2041-0.421-2.0105-1.557-2.0105-2.833v-9.649c0-2.143 2.1827-3.595 4.1595-2.767l45.036 18.872c1.115 0.468 1.84 1.558 1.84 2.767v9.781c0 1.208-0.724 2.298-1.838 2.766l-45.035 18.924c-1.9772 0.83-4.1622-0.622-4.1622-2.766v-9.714c0-1.27 0.8001-2.403 1.9975-2.827l24.012-8.514z" fill="#1C1C1C"/>
 <path d="m100.01 148.03c2.669-0.947 2.661-4.725-0.0133-5.66l-23.986-8.38c-1.2041-0.421-2.0105-1.557-2.0105-2.833v-9.649c0-2.143 2.1827-3.595 4.1595-2.767l45.036 18.872c1.115 0.468 1.84 1.558 1.84 2.767v9.781c0 1.208-0.724 2.298-1.838 2.766l-45.035 18.924c-1.9772 0.83-4.1622-0.622-4.1622-2.766v-9.714c0-1.27 0.8001-2.403 1.9975-2.827l24.012-8.514z" fill="url(#paint1_linear)"/>
 <path d="m182.4 191.81c0 1.656-1.343 2.999-3 2.999h-47.378c-1.657 0-3-1.343-3-2.999v-7.243c0-1.657 1.343-3 3-3h47.378c1.657 0 3 1.343 3 3v7.243z" fill="#1C1C1C"/>
 <path d="m182.4 191.81c0 1.656-1.343 2.999-3 2.999h-47.378c-1.657 0-3-1.343-3-2.999v-7.243c0-1.657 1.343-3 3-3h47.378c1.657 0 3 1.343 3 3v7.243z" fill="url(#paint1_linear)"/>
 <defs>
  <linearGradient id="paint0_linear" x1="247.75" x2="94.319" y1="241.62" y2="-9.4781" gradientUnits="userSpaceOnUse">
   <stop stop-color="#364F6B" offset="0"/>
   <stop stop-color="#6B5072" offset=".42829"/>
   <stop stop-color="#FC5185" offset="1"/>
  </linearGradient>
  <linearGradient id="paint1_linear" x1="197.9" x2="166.34" y1="191.28" y2="94.692" gradientUnits="userSpaceOnUse">
   <stop stop-color="#364F6B" offset="0"/>
   <stop stop-color="#6B5072" offset=".42829"/>
   <stop stop-color="#FC5185" offset="1"/>
  </linearGradient>
 </defs>
</svg>
