<?xml version="1.0" encoding="UTF-8" standalone="no"?>
<svg
   version="1.1"
   viewBox="0 0 512 512"
   id="svg20"
   sodipodi:docname="archlinux-tweak-tool.svg"
   inkscape:version="1.2 (dc2aedaf03, 2022-05-15)"
   xmlns:inkscape="http://www.inkscape.org/namespaces/inkscape"
   xmlns:sodipodi="http://sodipodi.sourceforge.net/DTD/sodipodi-0.dtd"
   xmlns:xlink="http://www.w3.org/1999/xlink"
   xmlns="http://www.w3.org/2000/svg"
   xmlns:svg="http://www.w3.org/2000/svg">
  <defs
     id="defs24">
    <linearGradient
       inkscape:collect="always"
       id="linearGradient907">
      <stop
         style="stop-color:#e64a4a;stop-opacity:1;"
         offset="0"
         id="stop903" />
      <stop
         style="stop-color:#ffb422;stop-opacity:0.9434033;"
         offset="1"
         id="stop905" />
    </linearGradient>
    <linearGradient
       inkscape:collect="always"
       xlink:href="#linearGradient907"
       id="linearGradient909"
       x1="117.84654"
       y1="283.68411"
       x2="460.99673"
       y2="105.69894"
       gradientUnits="userSpaceOnUse" />
  </defs>
  <sodipodi:namedview
     id="namedview22"
     pagecolor="#ffffff"
     bordercolor="#666666"
     borderopacity="1.0"
     inkscape:pageshadow="2"
     inkscape:pageopacity="0.0"
     inkscape:pagecheckerboard="0"
     showgrid="false"
     inkscape:zoom="1.4199219"
     inkscape:cx="126.76754"
     inkscape:cy="258.11279"
     inkscape:window-width="1920"
     inkscape:window-height="1080"
     inkscape:window-x="0"
     inkscape:window-y="0"
     inkscape:window-maximized="1"
     inkscape:current-layer="svg20"
     inkscape:showpageshadow="2"
     inkscape:deskcolor="#d1d1d1" />
  <path
     d="m 209.13876,444.62391 c -9.90456,-3.5626 -20.25983,-8.30561 -23.00981,-10.53978 -3.61549,-2.9362 -5.00224,-2.26231 -5.00224,2.43059 0,3.57095 -1.44825,6.49277 -3.21831,6.49277 -7.7004,0 -40.32787,-24.18528 -53.69573,-39.802 l -14.58757,-17.04276 -1.26648,15.41643 -1.26641,15.41643 -18.759561,-25.11173 C 53.934712,345.83641 39.479536,286.04989 48.230594,226.01899 53.789325,187.88121 72.48083,145.31376 94.406421,120.86246 l 14.354029,-16.00804 0.1664,14.7673 0.16642,14.76729 19.76026,-20.89396 c 23.29748,-24.633811 43.20622,-65.181307 45.30041,-56.216809 1.78872,7.656325 6.21158,31.258197 29.47334,20.760949 27.24614,-12.29386 71.90313,-12.253801 99.26372,0.08893 14.92042,6.731107 24.94469,-17.540783 27.2384,-21.254337 4.60924,-7.458042 17.1402,28.093711 44.08473,54.662407 l 23.00981,22.68965 0.16641,-14.68671 0.1664,-14.68672 14.35403,16.00804 c 20.70217,23.08714 40.30776,66.82851 45.65769,101.86986 10.16611,66.57485 -7.6441,131.87989 -48.9258,179.39823 l -11.41969,13.14515 -0.11925,-15.14608 -0.11924,-15.14622 -14.88747,16.63288 c -14.75028,16.47977 -46.95535,41.39353 -53.5055,41.39353 -1.87085,0 -3.40144,-2.73792 -3.40144,-6.08414 0,-5.02203 -2.96914,-4.552 -17.00718,2.69183 -22.67882,11.70241 -73.31679,14.26308 -99.04564,5.00873 z m 79.20187,-80.36651 c 5.96148,-4.41791 16.69166,-15.65848 23.84501,-24.98026 l 13.00594,-16.94686 v 34.21388 l 12.02753,-16.35449 c 17.36755,-23.6161 23.98885,-45.99022 23.98885,-81.05632 0,-35.95698 -7.56415,-61.3564 -23.99504,-80.57377 l -11.69623,-13.67967 -0.1624,15.60744 -0.1624,15.60745 -11.62291,-16.04516 c -35.34759,-48.79434 -93.03374,-46.56094 -124.957,4.83953 l -7.45634,12.00556 -0.10409,-18.00787 -0.1041,-18.00788 -8.19889,10.00463 c -4.50932,5.50259 -12.91655,19.90874 -18.68223,32.01452 -19.79737,41.56212 -12.34196,108.43857 15.74356,141.23571 l 10.99063,12.83442 0.1624,-15.31791 0.16257,-15.31807 13.00595,16.91129 c 18.43166,23.96565 35.9709,32.60535 62.19469,30.63644 12.84602,-0.9644 25.43962,-4.74921 32.01451,-9.62214 z"
     fill="#ffffff"
     stroke-width="4.00185"
     id="path18"
     style="fill-opacity:1;fill:url(#linearGradient909)" />
</svg>
