<?xml version="1.0" encoding="UTF-8"?>
<svg width="128" height="128" fill="none" version="1.1" viewBox="0 0 128 128" xmlns="http://www.w3.org/2000/svg" xmlns:xlink="http://www.w3.org/1999/xlink">
 <path d="m61.105 105.67c0-2.1642-0.85998-4.241-2.3907-5.7709-1.5307-1.5311-3.6069-2.3904-5.7717-2.3904h-15.171c-0.67037 0.01166-1.3314-0.15742-1.9138-0.48975-0.58222-0.33233-1.064-0.81625-1.3947-1.3993-0.34691-0.57138-0.53698-1.2244-0.55132-1.8937-0.01435-0.66816 0.14762-1.3293 0.46969-1.9147l34.07-63.02c0.32941-0.6116 0.81823-1.1227 1.4146-1.4789 0.59645-0.35624 1.2781-0.54432 1.9729-0.54432 0.69474 0 1.3764 0.18809 1.9729 0.54432 0.59633 0.35623 1.0851 0.86732 1.4146 1.4789l3.3846 6.258c0.47856 0.99419 1.1537 1.8811 1.9847 2.607 0.83094 0.726 1.8004 1.2759 2.8499 1.6166 1.0495 0.34061 2.1571 0.46503 3.256 0.36556 1.0989-0.09935 2.1662-0.4206 3.1374-0.94417 0.97122-0.52357 1.8263-1.2386 2.5135-2.1018 0.68705-0.86336 1.1921-1.857 1.4843-2.921 0.29233-1.0639 0.36591-2.1761 0.21619-3.2693-0.14961-1.0932-0.51937-2.1446-1.0869-3.0909l-3.3846-6.2633c-1.76-3.1624-4.333-5.7969-7.4528-7.6311-3.1199-1.8341-6.6733-2.8013-10.292-2.8013-3.6191 0-7.1725 0.96714-10.292 2.8013-3.1199 1.8342-5.693 4.4687-7.4529 7.6311l-34.07 62.971c-1.6633 3.0761-2.4997 6.5313-2.4274 10.027 0.07225 3.497 1.0507 6.9136 2.8396 9.9186 1.7889 3.005 4.3271 5.4945 7.3662 7.2238 3.0391 1.7293 6.4753 2.6412 9.9722 2.6446h15.171c2.1648 0 4.241-0.8594 5.7717-2.3904 1.5307-1.5311 2.3907-3.6067 2.3907-5.772z" fill="url(#linearGradient955)" stroke-width="1.1661"/>
 <defs>
  <linearGradient id="linearGradient955" x1="63.996" x2="63.996" y1="120" y2="8" gradientTransform="matrix(1.1661 0 0 1.1661 8.2608 -26.094)" gradientUnits="userSpaceOnUse">
   <stop stop-color="#02AA93" offset="0"/>
   <stop stop-color="#67FF80" offset="1"/>
  </linearGradient>
  <linearGradient id="linearGradient969" x1="55.492" x2="111.44" y1="70.267" y2="70.267" gradientUnits="userSpaceOnUse">
   <stop stop-color="#f50909" offset="0"/>
   <stop stop-color="#ef8d0e" offset="1"/>
  </linearGradient>
 </defs>
 <path d="m99.698 96.196h-32.468c-2.0533 0.01883-4.0748-0.50602-5.8599-1.5206-1.785-1.0146-3.2702-2.483-4.3048-4.257-1.0124-1.7081-1.5549-3.6543-1.5724-5.6398-0.01755-1.9864 0.49043-3.9411 1.4725-5.6672l16.246-28.908c1.0517-1.7863 2.5515-3.2672 4.351-4.296 1.7997-1.0288 3.8366-1.57 5.9096-1.57 2.073 0 4.1099 0.5412 5.9096 1.57 1.7996 1.0288 3.2994 2.5097 4.3511 4.296l16.235 28.896c0.98378 1.727 1.4924 3.6834 1.4752 5.6715-0.018 1.9872-0.56168 3.9343-1.5754 5.6441-1.0343 1.7749-2.5198 3.2442-4.3058 4.2596-1.786 1.0155-3.8084 1.5403-5.8633 1.5215zm-16.266-39.864-15.519 27.878h31.214z" fill="url(#linearGradient969)" stroke-width=".8562"/>
</svg>
