<?xml version="1.0" encoding="UTF-8"?>
<!-- Generator: Gravit.io -->
<svg width="48pt" height="48pt" style="isolation:isolate" version="1.1" viewBox="0 0 48 48" xmlns="http://www.w3.org/2000/svg" xmlns:xlink="http://www.w3.org/1999/xlink">
 <defs>
  <linearGradient id="linearGradient1263-3-6" x1="3.5539" x2="46.126" y1="24.158" y2="24.158" gradientTransform="matrix(.56566 0 0 .56566 2.9658 28.412)" gradientUnits="userSpaceOnUse">
   <stop stop-color="#ff260c" offset="0"/>
   <stop stop-color="#e8e12c" offset=".98696"/>
  </linearGradient>
 </defs>
 <path d="m0.28497 46.422c0-0.15643 22.69-43.319 23.451-44.609l0.52549-0.89156 0.57394 1.0071c0.31568 0.55387 2.629 4.9574 5.1408 9.7857 2.5118 4.8283 7.5767 14.535 11.255 21.572 5.162 9.8736 6.3459 13.116 6.3459 13.116l-8.8445 0.08074-1.2627-1.2804c-3.1679-3.2123-8.7048-6.1246-14.892-7.8331l-2.7722-0.76546 3.4653-0.17381c3.2553-0.16327 6.9275-0.0532 8.9353 0.26786 0.67108 0.10732 0.88285 0.06334 0.88285-0.18329 0-0.60933-8.4945-16.137-8.8278-16.137-0.24295 0-1.9578 2.9891-8.6146 15.016-3.2702 5.9082-6.0584 10.974-6.0584 10.974-9.3033 0.05539-9.3033 0.1725-9.3033 0.05539z" fill="url(#linearGradient1263-3-6)" stroke-width=".23101"/>
</svg>
