<?xml version="1.0" encoding="UTF-8"?>
<svg version="1.1" viewBox="0 0 48 48" xmlns="http://www.w3.org/2000/svg" xmlns:xlink="http://www.w3.org/1999/xlink">
 <defs>
  <linearGradient id="bg" x1="1" x2="47" gradientTransform="matrix(0 -1 1 0 -1.5e-6 48)" gradientUnits="userSpaceOnUse">
   <stop stop-color="#e8cf1f" offset="0"/>
   <stop stop-color="#81de64" offset="1"/>
  </linearGradient>
  <linearGradient id="linearGradient1576" x1="11" x2="37" y1="24" y2="24" gradientUnits="userSpaceOnUse" xlink:href="#bg"/>
 </defs>
 <g transform="matrix(1.4113 0 0 1.4113 -9.872 -9.872)" fill="url(#linearGradient1576)">
  <path d="m24 11-13 22h26m-13-13c1.66 0 3 0.992 3 2.219v5.563c0 1.227-1.34 2.219-3 2.219s-3-0.992-3-2.219v-5.563c0-1.227 1.34-2.219 3-2.219"/>
  <path d="m18 29h4e-3c1.102 0 2 0.793 2 1.77v4.457c0 0.98-0.898 1.773-2 1.773h-4e-3c-1.105 0-2-0.793-2-1.773v-4.457c0-0.977 0.895-1.77 2-1.77"/>
  <path d="m29.996 29h4e-3c1.105 0 2 0.793 2 1.77v4.457c0 0.98-0.895 1.773-2 1.773h-4e-3c-1.102 0-1.996-0.793-1.996-1.773v-4.457c0-0.977 0.895-1.77 1.996-1.77"/>
  <path d="m24 21h4e-3c1.102 0 1.996 0.793 1.996 1.773v4.457c0 0.977-0.895 1.773-1.996 1.773h-4e-3c-1.105 0-2-0.797-2-1.773v-4.457c0-0.98 0.895-1.773 2-1.773"/>
  <path d="m15.5 18h4e-3c0.824 0 1.496 0.793 1.496 1.773v8.457c0 0.977-0.672 1.77-1.496 1.77h-4e-3c-0.828 0-1.5-0.793-1.5-1.77v-8.457c0-0.98 0.672-1.773 1.5-1.773"/>
  <path d="m32.5 18h4e-3c0.828 0 1.496 0.793 1.496 1.773v8.457c0 0.977-0.668 1.77-1.496 1.77h-4e-3c-0.828 0-1.5-0.793-1.5-1.77v-8.457c0-0.98 0.672-1.773 1.5-1.773"/>
 </g>
</svg>
