<?xml version="1.0" encoding="UTF-8"?>
<!-- Generator: Gravit.io -->
<svg width="48pt" height="48pt" style="isolation:isolate" version="1.1" viewBox="0 0 48 48" xmlns="http://www.w3.org/2000/svg">
 <linearGradient id="_lgradient_9" x1="-3.8208e-5" x2=".64363" y1=".5" y2=".49712" gradientTransform="matrix(47 0 0 44.762 .5 1.619)" gradientUnits="userSpaceOnUse">
  <stop stop-color="rgb(211,0,220)" offset="0"/>
  <stop stop-color="#d4b51e" offset="1"/>
 </linearGradient>
 <path d="m20.643 36.297v1.766c-2.294 0.544-4.159 1.701-5.852 3.338-1.117 1.081-1.182 3.082 0 4.144 0.654 0.582 1.489 0.871 2.306 0.833 0.692-0.032 1.379-0.302 1.928-0.833 0.216-0.211 0.438-0.409 0.667-0.595 0.098-0.064 0.196-0.135 0.294-0.199 0.392-0.255 0.795-0.472 1.22-0.671 0.575-0.211 1.171-0.369 1.772-0.472 0.353-0.032 0.669-0.045 1.022-0.039 0.353-6e-3 0.669 7e-3 1.022 0.039 0.601 0.103 1.197 0.261 1.772 0.472 0.425 0.199 0.828 0.416 1.22 0.671 0.098 0.064 0.196 0.135 0.294 0.199 0.229 0.186 0.451 0.384 0.667 0.595 0.549 0.531 1.236 0.801 1.928 0.833 0.817 0.038 1.652-0.251 2.306-0.833 1.182-1.062 1.117-3.063 0-4.144-1.693-1.637-3.558-2.794-5.852-3.338v-1.766h7.305c0.404 0 0.815 0.013 1.225 0.013h0.291c0.259 0 0.512-7e-3 0.771-0.02 2.325-0.114 4.562-0.952 6.362-2.361 0.373-0.286 0.727-0.603 1.062-0.946 0.669-0.68 1.257-1.454 1.724-2.311 0.86-1.556 1.327-2.841 1.384-4.619 6e-3 -0.101 6e-3 -0.203 6e-3 -0.298 0.013-1.435-1.194-2.813-2.659-2.921-0.083 0-0.171-6e-3 -0.253 0h-0.032c-0.031 0-0.069 7e-3 -0.101 7e-3 -0.726 0.057-1.39 0.368-1.883 0.844-0.372 0.362-0.65 1.056-0.783 1.583-0.057 0.223-0.089 0.457-0.089 0.699 0 0.235-0.012 0.463-0.031 0.698-0.082 0.451-0.202 0.441-0.36 0.873-0.158 0.33-0.335 0.653-0.537 0.958-0.045 0.07-0.089 0.134-0.133 0.197-0.145 0.171-0.291 0.337-0.449 0.495-0.158 0.153-0.322 0.299-0.486 0.445-0.07 0.05-0.133 0.095-0.202 0.139-0.31 0.204-0.632 0.381-0.961 0.54-0.423 0.152-0.859 0.273-1.307 0.356-0.379 0.031-0.759 0.044-1.144 0.044h-0.303c-0.499 0-0.992-0.013-1.479-0.013h-20.078c-0.613 0-1.232 0.026-1.858 0.026h-0.253-0.038c-0.442 0-0.884-0.013-1.32-0.051-0.449-0.083-0.885-0.203-1.314-0.356-0.329-0.158-0.651-0.336-0.961-0.539-0.063-0.045-0.126-0.089-0.189-0.134-0.164-0.146-0.335-0.292-0.493-0.45-0.158-0.159-0.303-0.324-0.448-0.489-0.045-0.064-0.089-0.127-0.133-0.197-0.202-0.305-0.373-0.622-0.531-0.946-0.158-0.438-0.278-0.883-0.366-1.34v-6e-3c-0.051-0.508-0.07-1.022-0.076-1.543v-6e-3c-0.013-1.073 0.044-2.371 0.044-3.424v-7.333-0.757-0.032c-6e-3 -0.248-6e-3 -0.495 0-0.743v-0.038c6e-3 -0.216 0.013-0.438 0.032-0.654 0.088-0.451 0.208-0.889 0.366-1.32 0.158-0.331 0.335-0.642 0.531-0.946 0.044-0.064 0.088-0.127 0.133-0.191 0.151-0.165 0.296-0.336 0.454-0.495 0.158-0.165 0.323-0.311 0.493-0.457 0.063-0.045 0.127-0.089 0.19-0.134 0.303-0.203 0.619-0.381 0.947-0.539 0.43-0.159 0.872-0.28 1.321-0.362 0.404-0.032 0.815-0.045 1.226-0.045h0.221 6e-3c0.493 0 0.992 0.013 1.478 0.013h20.092c0.613 0 1.232-0.025 1.851-0.025h0.291c0.442 6e-3 0.884 0.019 1.326 0.057 0.449 0.082 0.898 0.203 1.327 0.362 0.322 0.158 0.645 0.336 0.948 0.539 0.07 0.045 0.133 0.089 0.196 0.134 0.164 0.146 0.335 0.292 0.493 0.451 0.158 0.152 0.303 0.317 0.448 0.488 0.045 0.07 0.089 0.134 0.133 0.197 0.202 0.305 0.373 0.622 0.531 0.952 0.164 0.432 0.278 0.877 0.366 1.327 0.019 0.21 0.025-0.022 0.032 0.194v0.05c6e-3 0.769 0.341 1.741 0.872 2.287 0.461 0.477 1.08 0.8 1.756 0.845 0.044 6e-3 0.082 6e-3 0.126 6e-3h0.139 0.026c1.478-0.082 2.761-1.181 2.862-2.692 6e-3 -0.07 6e-3 -0.146 6e-3 -0.216-0.032-3.828-2.028-6.954-5.276-8.961-1.87-1.149-3.999-1.587-6.16-1.587h-21.506-2.957c-2.881 0-5.611 1.06-7.715 3.041-2.223 2.102-3.386 5.098-3.386 8.139v0.502 4.584 5.6 0.87c6e-3 1.466 0.051 2.92 0.531 4.329 0.53 1.581 1.409 3.029 2.546 4.229 0.341 0.362 0.714 0.705 1.099 1.016 1.201 0.971 2.61 1.688 4.151 2.05 1.295 0.305 2.565 0.318 3.873 0.318h7.943zm-6.927-19.663h4v10.929h-4v-10.929zm16.568 4h4v6.929h-4v-6.929zm-8.284-9.633h4v16.562h-4v-16.562z" fill="url(#_lgradient_9)" fill-rule="evenodd"/>
</svg>
