<?xml version="1.0" encoding="UTF-8"?>
<svg width="192" height="192" fill="none" version="1.1" viewBox="0 0 192 192" xmlns="http://www.w3.org/2000/svg" xmlns:xlink="http://www.w3.org/1999/xlink">
 <path d="m93.562 113.11c0.0065-3.1211-0.29063-6.2399-0.9101-9.2574-2.4773-12.065-9.5775-21.422-13.726-32.654-2.1386-5.7901-3.4847-12.53-2.0176-18.676-3.4615 4.6635-5.108 11.575-4.294 18.025 0.88868 7.0495 4.4185 12.992 6.1397 19.766 3.1848 12.535-0.76131 27.604-9.1219 34.834 1.4306-6.2545 0.62584-13.047-0.89852-19.263-1.5244-6.2154-3.7452-12.103-5.229-18.336-2.3326-9.7988-1.8764-20.216-1.1799-30.432 1.6332-23.976 12.272-30.576 12.272-30.576s-10.875-0.76694-18.853 9.276c-5.022 6.3223-9.2576 13.976-11.229 22.77-0.58491 2.6104-0.99341 5.292-1.1985 8.0019-0.04637 0.61072-0.36352 2.3063-0.14115 2.8373-2.8459-6.7956-8.0223-12.033-13.848-12.947-5.826-0.91401-12.098 2.9715-14.727 9.9188-2.6286 6.9477-0.90547 16.506 4.1465 20.458-0.86095-2.7672-0.1166-6.0772 1.3776-8.3222 3.5598-5.3488 10.503-4.6405 14.526 0.09808 4.0226 4.7382 5.5521 12.249 5.6859 19.378 0.15359 8.1607-1.0152 16.272-1.0678 24.433-0.06988 10.83 1.9234 21.112 8.0514 28.775 7.4292 9.2904 18.216 11.791 28.366 13.342-10.143-2.8374-19.952-10.281-25.106-22.196-4.3861-10.138-5.0138-22.331-4.8803-34.015 0.10166-8.8932 0.62115-17.834 2.1286-26.519 1.5391-8.8692 4.5275-16.131 7.672-24.086-3.5508 8.9833-1.2953 22.067 1.1812 31.105 2.6707 9.747 7.0244 19.097 7.3787 29.699 0.01447 0.41716 0.022 0.83434 0.02258 1.2515 0.01506 6.3158-1.5174 12.438-3.0325 18.426 7.2276-0.69247 13.775-6.6333 18.035-14.399 4.2593-7.7652 6.4657-17.197 7.7208-26.65 1.9771 9.6245 1.639 20.058-0.95352 29.423-2.5931 9.3641-7.4285 17.613-13.635 23.262 7.1135-2.8527 13.454-9.1493 17.297-17.576 2.6215-5.7506 4.0358-12.47 4.0497-19.176" fill="url(#linearGradient346)" stroke-width=".66631"/>
 <path d="m94.894 113.89c-0.0065-3.1211 0.29063-6.2399 0.9101-9.2575 2.4773-12.065 9.5775-21.422 13.726-32.654 2.1386-5.7901 3.4847-12.53 2.0176-18.676 3.4615 4.6635 5.108 11.575 4.294 18.025-0.88868 7.0495-4.4185 12.992-6.1397 19.766-3.1848 12.535 0.76131 27.604 9.1219 34.834-1.4306-6.2544-0.62584-13.047 0.89853-19.263 1.5244-6.2153 3.7452-12.103 5.229-18.336 2.3326-9.7988 1.8764-20.216 1.1799-30.432-1.6332-23.976-12.272-30.576-12.272-30.576s10.875-0.76694 18.853 9.276c5.022 6.3223 9.2576 13.976 11.229 22.77 0.5849 2.6104 0.99341 5.292 1.1985 8.0019 0.0464 0.61072 0.36352 2.3063 0.14114 2.8373 2.8459-6.7956 8.0223-12.033 13.848-12.947 5.826-0.91401 12.098 2.9715 14.727 9.9188 2.6286 6.9477 0.90547 16.506-4.1465 20.458 0.86095-2.7672 0.1166-6.0772-1.3776-8.3222-3.5598-5.3488-10.503-4.6405-14.526 0.09802-4.0226 4.7382-5.5521 12.249-5.686 19.378-0.15358 8.1607 1.0152 16.272 1.0678 24.433 0.0699 10.83-1.9234 21.112-8.0514 28.775-7.4292 9.2904-18.216 11.791-28.366 13.342 10.143-2.8374 19.952-10.281 25.106-22.196 4.3861-10.138 5.0138-22.331 4.8803-34.015-0.10166-8.8932-0.62115-17.834-2.1286-26.519-1.5391-8.8692-4.5275-16.131-7.672-24.086 3.5508 8.9833 1.2953 22.067-1.1812 31.105-2.6707 9.747-7.0244 19.097-7.3787 29.699-0.0145 0.41716-0.022 0.83433-0.0225 1.2515-0.0151 6.3158 1.5174 12.438 3.0325 18.426-7.2276-0.69247-13.775-6.6333-18.035-14.399-4.2593-7.7652-6.4657-17.197-7.7208-26.65-1.9771 9.6245-1.639 20.058 0.95352 29.423 2.5931 9.364 7.4285 17.613 13.635 23.262-7.1135-2.8527-13.454-9.1493-17.297-17.576-2.6215-5.7506-4.0358-12.47-4.0497-19.176" fill="url(#linearGradient343)" stroke-width=".66631"/>
 <defs>
  <linearGradient id="paint0_linear" x1="96.249" x2="96.249" y1="186.3" y2="48.14" gradientUnits="userSpaceOnUse">
   <stop stop-color="#E8202A" offset="0"/>
   <stop stop-color="#F48517" offset="1"/>
  </linearGradient>
  <linearGradient id="linearGradient343" x1="96.249" x2="96.249" y1="186.3" y2="48.14" gradientTransform="matrix(-.57895 0 0 .76685 190.71 22.707)" gradientUnits="userSpaceOnUse" xlink:href="#paint0_linear"/>
  <linearGradient id="linearGradient346" x1="96.249" x2="96.249" y1="186.3" y2="48.14" gradientTransform="matrix(.57895 0 0 .76685 -2.253 21.931)" gradientUnits="userSpaceOnUse" xlink:href="#paint0_linear"/>
 </defs>
</svg>
