<?xml version="1.0" encoding="UTF-8"?>
<svg width="192" height="192" fill="none" version="1.1" viewBox="0 0 192 192" xmlns="http://www.w3.org/2000/svg" xmlns:xlink="http://www.w3.org/1999/xlink">
 <path d="m73.514 24.535c-7.4036 0.27273-14.528 4.0048-19.128 9.7861-6.3752 7.8896-10.976 17.338-12.507 27.411-0.11706 0.33767-0.02975 1.4304-0.41406 0.64872-2.993-4.0308-7.3591-7.402-12.477-7.9648-5.2335-0.56355-10.403 2.1974-13.51 6.3212-4.2536 5.4903-5.0392 13.086-3.0956 19.626 0.98618 3.3297 2.869 6.4595 5.694 8.5402 1.421 1.1871 2.842 2.3742 4.263 3.5613-0.61502-2.4057-1.3737-4.7799-1.8958-7.206-0.35642-3.1588 1.1707-6.7679 4.2235-8.0407 3.0925-1.2252 6.6175 0.38041 8.5831 2.8612 2.9999 3.7276 4.1886 8.5452 4.7643 13.205 0.43538 3.5411 0.36527 7.2795 0.22914 10.733-0.42865 9.0643-1.6083 18.166-0.53074 27.231 0.86624 7.7185 3.3018 15.496 8.321 21.552 4.3293 5.3623 10.478 9.0093 17.009 11.034 4.0141 1.2865 8.1701 2.0587 12.33 2.6993 1.612-0.31836 3.224-0.63672 4.8359-0.95508-1.3571-0.97766-2.6717-2.0405-4.0549-2.9657-9.7013-2.7076-18.057-9.6812-22.603-18.652-3.9693-7.7394-5.2287-16.524-5.6846-25.114-0.23129-4.596-0.2093-9.2002-0.10907-13.8 0.0461-1.3836 0.08256-3.0037 0.15945-4.478 0.25317-5.8636 0.77864-11.762 1.7479-17.598 0.51763-3.18 1.2527-6.3238 2.1825-9.4082 0.67026 8.3205 2.8673 16.428 5.5353 24.308 2.4849 7.5191 4.9715 15.267 4.677 23.286-0.22491 6.6144-2.0859 13.01-3.6537 19.396 2.7622-0.31313 5.5922-0.53799 8.1582-1.7038 5.8976-2.5216 10.398-7.4881 13.621-12.916 2.6374-4.5088 4.4925-9.4356 5.8649-14.464-0.27157 11.322-3.626 22.762-10.537 31.836-1.4408 1.9276-3.1369 3.6451-4.8455 5.3262-1.2221 1.5293-2.4442 3.0586-3.6662 4.5879 2.1127-0.57262 4.2738-1 6.3554-1.6659 7.9613-3.363 14.085-10.182 17.727-17.907 3.2057-6.7817 4.5762-14.331 4.5001-21.806 0.05688-0.62709-0.11948-1.0454-0.10869-1.6895-0.34778-7.2406-2.6751-14.227-5.7754-20.727-2.3448-5.0117-5.036-9.8563-7.2745-14.919-0.29755-0.69166-0.71135-1.6468-1.0272-2.4546-2.2759-5.7076-3.8314-11.984-2.7409-18.138 0.48479-2.4726 0.64058-4.9999 0.98687-7.4956-1.574 1.8481-3.2864 3.5864-4.7671 5.5085-3.7666 5.5947-5.0809 12.649-4.1906 19.286 0.93206 6.9419 4.5066 13.125 6.1905 19.862 1.8573 7.7918 1.0206 16.178-2.1594 23.516-0.6739 1.5032-1.4371 2.9703-2.3509 4.3427 0.17471-7.817-2.0444-15.409-4.3516-22.797-0.4748-1.5382-0.90909-2.9936-1.3652-4.5371-0.21802-0.78761-0.52568-1.8464-0.75832-2.7496-1.9531-7.1773-2.2886-14.676-2.0718-22.077 0.05884-1.9716 0.16011-4.144 0.28764-6.1904 0.3537-7.3107 1.2904-14.707 4.0741-21.53 1.667-3.9796 3.8709-7.9185 7.2736-10.669 1.8279-1.239 3.6827-2.4393 5.5209-3.6635-2.4876-0.05357-4.975-0.1761-7.4629-0.18555z" fill="url(#linearGradient346)"/>
 <path d="m113.8 25.32c-2.0801 0.05924-4.1602 0.11849-6.2402 0.17774 1.9766 1.379 4.0544 2.6212 5.9648 4.0898 3.8132 3.4497 6.1437 8.2138 7.766 13.019 2.0564 6.1342 2.7529 12.613 3.0733 19.044 0.11742 1.9743 0.20757 3.9501 0.27196 5.9269 0.0407 1.6284 0.0691 3.4732 0.0429 5.1871-0.0537 6.3223-0.80285 12.663-2.6298 18.73-2.267 8.0127-5.2872 15.925-5.8545 24.307-0.0974 1.3011-0.1361 2.6068-0.10739 3.9114-3.8867-6.0061-5.5959-13.268-5.4734-20.378 0.0398-4.6673 1.2219-9.239 2.9176-13.562 2.0471-5.4018 4.3354-10.885 4.494-16.746 0.17074-5.9368-1.3361-12.053-4.8601-16.896-1.459-1.6432-2.918-3.2865-4.377-4.9297 0.37033 2.7933 0.6056 5.6072 1.1528 8.3719 0.86382 6.5387-1.0569 13.07-3.617 19.025-3.8891 9.0081-9.3503 17.385-11.849 26.957-0.67951 2.526-1.1344 5.1116-1.3744 7.7162-0.53768-0.66216-0.15979 0.84336-0.25847 1.2206 0.02031 4.151 0.07524 8.3265 0.87561 12.415 1.6427 9.1806 6.0253 18.048 13.121 24.222 2.645 2.2736 5.6259 4.2414 8.9162 5.4301 1.8985 0.47942 3.797 0.95884 5.6954 1.4383-1.3956-1.6857-2.679-3.4756-4.1467-5.0944-0.63481-0.59086-1.2125-1.1729-1.7432-1.7331-6.6222-7.1117-10.623-16.385-12.273-25.895-0.51737-2.9812-0.81246-6.0006-0.88612-9.0252 2.1372 7.7749 5.4179 15.492 11.064 21.387 3.7129 3.9032 8.6295 6.9675 14.1 7.4 0.82853 0.0982 1.6571 0.19647 2.4856 0.2947-0.88192-3.5229-1.8442-7.1788-2.5527-10.648-1.1246-5.3695-1.5244-10.935-0.62557-16.37 0.2429-1.6022 0.54265-3.1008 0.9121-4.6196 1.8394-7.6941 4.9237-14.964 6.7226-22.688 0.99723-4.1656 1.7525-8.3975 2.0963-12.67 0.68998 2.2768 1.3145 4.7997 1.748 6.9961 1.8849 9.9102 2.3587 19.93 2.416 30-0.011 9.4934-0.49868 19.178-3.6367 28.223-2.723 7.9123-8.055 14.946-15.134 19.452-3.0223 1.946-6.3327 3.446-9.7956 4.4132-1.3177 0.97917-2.6354 1.9583-3.9531 2.9375 1.6438 0.30155 3.2859 0.69854 4.9308 0.94128 7.5672-1.1512 15.282-2.8755 21.792-7.0907 5.924-3.763 10.438-9.5589 12.912-16.104 3.3079-8.5931 3.627-17.98 3.0887-27.071-0.23743-4.0797-0.57313-8.1537-0.76326-12.236-0.0506-1.1836-0.0971-2.6163-0.10216-3.898-0.0397-5.7837 0.55073-11.765 3.1415-17.018 1.3682-2.7576 3.5832-5.3919 6.7078-6.1127 2.3904-0.64951 5.0966 0.30116 6.4964 2.3585 1.603 2.2021 2.0648 5.1904 1.1127 7.7549-0.48529 1.7824-0.97057 3.5648-1.4559 5.3472 2.0168-1.7383 4.1599-3.3376 6.0926-5.1686 3.3643-3.5683 4.753-8.5888 4.8645-13.399 0.15361-5.5861-1.8363-11.342-5.9572-15.213-3.5074-3.4072-8.7476-5.1876-13.555-3.9072-4.4763 1.1359-8.1727 4.2944-10.83 7.9766-1.2814-9.5518-5.2913-18.625-11.04-26.321-2.7359-3.8819-6.3042-7.2472-10.617-9.3041-3.4898-1.6881-7.3809-2.6564-11.268-2.5723z" fill="url(#linearGradient343)"/>
 <defs>
  <linearGradient id="paint0_linear" x1="96.249" x2="96.249" y1="186.3" y2="48.14" gradientUnits="userSpaceOnUse">
   <stop stop-color="#E8202A" offset="0"/>
   <stop stop-color="#F48517" offset="1"/>
  </linearGradient>
  <linearGradient id="linearGradient343" x1="96.249" x2="96.249" y1="186.3" y2="48.14" gradientTransform="matrix(-.57895 0 0 .76685 190.71 22.707)" gradientUnits="userSpaceOnUse" xlink:href="#paint0_linear"/>
  <linearGradient id="linearGradient346" x1="96.249" x2="96.249" y1="186.3" y2="48.14" gradientTransform="matrix(.57895 0 0 .76685 -2.253 21.931)" gradientUnits="userSpaceOnUse" xlink:href="#paint0_linear"/>
 </defs>
</svg>
