<?xml version="1.0" encoding="UTF-8"?>
<svg width="192pt" height="192pt" version="1.1" viewBox="0 0 192 192" xmlns="http://www.w3.org/2000/svg" xmlns:cc="http://creativecommons.org/ns#" xmlns:dc="http://purl.org/dc/elements/1.1/" xmlns:rdf="http://www.w3.org/1999/02/22-rdf-syntax-ns#" xmlns:xlink="http://www.w3.org/1999/xlink">
 <metadata>
  <rdf:RDF>
   <cc:Work rdf:about="">
    <dc:format>image/svg+xml</dc:format>
    <dc:type rdf:resource="http://purl.org/dc/dcmitype/StillImage"/>
   </cc:Work>
  </rdf:RDF>
 </metadata>
 <defs>
  <linearGradient id="linearGradient914" x1="8.1102" x2="185.69" y1="96.62" y2="96.62" gradientUnits="userSpaceOnUse">
   <stop stop-color="#2934cf" offset="0"/>
   <stop stop-color="#269ede" stop-opacity=".73358" offset="1"/>
  </linearGradient>
 </defs>
 <g fill="url(#linearGradient914)">
  <g id="#ff483fff">
   <path d="m49.3 22.24c14.02-8.62 30.59-12.93 47.03-12.45-2.47 4.49-5.51 8.69-9.34 12.12-22.89 2.01-44.29 15.49-56.21 35.1 0.57 0.71 1.14 1.42 1.71 2.12 5.46 6.24 10.08 13.37 12.41 21.39-3.09 2.69-6.12 5.69-7.75 9.52-1.12 3.27-1.31 6.76-2.01 10.14 0.99-11.08-2.73-22.45-10.24-30.67-5.52 13.56-6.09 28.86-2.93 43.06-3.65 2.83-6.54 6.44-9.5 9.95-6.19-18.4-5.74-38.92 1.04-57.1 6.66-17.86 19.52-33.28 35.79-43.18z" fill="url(#linearGradient914)"/>
  </g>
  <g id="#ff583dff">
   <path d="m96.33 9.79c17.39 0.42 34.59 6.29 48.58 16.62-2.93 2.74-7.48 5.72-6.08 10.38-1.44-1.11-2.92-2.17-4.47-3.12-13.75-9.35-30.87-13.3-47.37-11.76 3.83-3.43 6.87-7.63 9.34-12.12z" fill="url(#linearGradient914)"/>
  </g>
  <path d="m30.78 57.01c11.92-19.61 33.32-33.09 56.21-35.1 16.5-1.54 33.62 2.41 47.37 11.76-2.99-0.9-5.96-1.89-8.78-3.22-24.45-11-55-7.78-76 9.13-6.69 5.51-13.16 11.71-17.09 19.55-0.57-0.7-1.14-1.41-1.71-2.12z" opacity=".25"/>
  <path d="m46.39 85.71c2.24 6.13 1.82 12.78 1.31 19.17-1.36 12.22-7.66 23.04-14.12 33.23-0.52-0.74-1.04-1.48-1.55-2.22 10.67-14.22 17.29-32.26 14.36-50.18z" opacity=".25"/>
  <g id="#ff6d3aff">
   <path d="m138.83 36.79c-1.4-4.66 3.15-7.64 6.08-10.38 6.13 4.48 11.54 9.85 16.35 15.7 2.37-2.57 4.31-5.61 7.16-7.7 5.15-3.48 13.09-0.55 14.76 5.44-0.32 3.46 0.03 7.29-2.04 10.29-2.66 4.07-5.73 7.9-9.36 11.13-0.02-4.19-0.02-8.38-0.18-12.57-2.34 2.66-4.09 5.8-6.56 8.36-2.51 2.46-6.98 1.5-8.71-1.44-4.86-7.1-10.52-13.72-17.5-18.83z" fill="url(#linearGradient914)"/>
  </g>
  <g id="#ff7e38ff">
   <path d="m183.18 39.85c0.07 0.32 0.21 0.96 0.29 1.28 0.32 34.96 0 69.94 0.17 104.91-0.06 3.29 0.23 6.95-1.84 9.75-2.82 4.17-9.07 5.5-13.29 2.72-2.62-1.82-4.42-4.53-6.45-6.94-0.35-0.44-1.05-1.31-1.4-1.75-8.24 9.21-17.77 17.45-29.04 22.72-15.09 7.35-32.36 10.18-49 7.89 2.28-3.71 4.82-7.26 6.73-11.18 22.66 1.5 45.75-8.07 60.51-25.36 2.38-2.66 4.28-5.69 6.55-8.42 2.13-2.84 6.94-2.73 8.93 0.21 2.18 2.82 4.02 5.9 6.34 8.62 0.18-27.67-0.02-55.35 0.1-83.03 3.63-3.23 6.7-7.06 9.36-11.13 2.07-3 1.72-6.83 2.04-10.29z" fill="url(#linearGradient914)"/>
  </g>
  <path d="m183.47 41.13c2.32 1.49 2.12 4.42 2.22 6.83-0.08 34.02-0.01 68.04-0.04 102.05 0.09 3.87-1.14 7.91-4.37 10.29-3.05 3.1-8.14 3.13-11.79 1.14-2.79-2-4.92-4.75-7.52-6.97-0.98 0.11-1.96 0.23-2.93 0.34 0.98-1.1 2-2.18 3.02-3.24 2.03 2.41 3.83 5.12 6.45 6.94 4.22 2.78 10.47 1.45 13.29-2.72 2.07-2.8 1.78-6.46 1.84-9.75-0.17-34.97 0.15-69.95-0.17-104.91z" fill="url(#linearGradient914)" opacity=".2"/>
  <g id="#ff533dff">
   <path d="m64.34 49.42c6.08-2.27 13.37 2.13 14.15 8.57 1.05 5.82-3.6 11.73-9.46 12.22-5.94 0.91-11.81-4.26-11.87-10.21-0.3-4.6 2.82-9.14 7.18-10.58z" fill="url(#linearGradient914)"/>
  </g>
  <g id="#ff553dff">
   <path d="m37.15 90.04c1.63-3.83 4.66-6.83 7.75-9.52 0.52 1.72 1.01 3.46 1.49 5.19 2.93 17.92-3.69 35.96-14.36 50.18 0.51 0.74 1.03 1.48 1.55 2.22 3.91 5.51 8.58 10.46 13.79 14.74-2.54 3.06-6.9 5.46-6.8 9.93-12.89-10.43-23.02-24.43-28.1-40.26 2.96-3.51 5.85-7.12 9.5-9.95 0.87 3.59 2.07 7.09 3.37 10.54 5.17-6.65 8.5-14.63 9.8-22.93 0.7-3.38 0.89-6.87 2.01-10.14z" fill="url(#linearGradient914)"/>
  </g>
  <g id="#0000003f">
   <path d="m131.62 172.54c11.27-5.27 20.8-13.51 29.04-22.72 0.35 0.44 1.05 1.31 1.4 1.75-1.02 1.06-2.04 2.14-3.02 3.24-8.11 9.65-18.89 16.79-30.34 21.89-15.51 6.87-33.08 8.2-49.7 5.44-11.7-2.07-22.58-7.29-32.55-13.61-1.17-0.61-1.58-1.89-2.14-2.98 11.41 7.79 24.54 13.22 38.31 14.88 16.64 2.29 33.91-0.54 49-7.89z" fill="url(#linearGradient914)" opacity=".25"/>
  </g>
  <g id="#ff693bff">
   <path d="m47.37 152.85c11.86 9.64 26.73 15.42 41.98 16.4-1.91 3.92-4.45 7.47-6.73 11.18-13.77-1.66-26.9-7.09-38.31-14.88-1.28-0.88-2.49-1.86-3.74-2.77-0.1-4.47 4.26-6.87 6.8-9.93z" fill="url(#linearGradient914)"/>
  </g>
 </g>
</svg>
