<?xml version="1.0" encoding="UTF-8"?>
<svg width="64" height="64" fill="none" version="1.1" viewBox="0 0 64 64" xmlns="http://www.w3.org/2000/svg" xmlns:xlink="http://www.w3.org/1999/xlink">
 <path d="m3.1263 3.1296c2.8392-2.8393 7.435-2.8397 10.275 0 1.3938 1.3938 11.054 11.054 12.403 12.403h35.376c1.0031 0 1.8164 0.8132 1.8164 1.8163v43.835c0 1.0031-0.81324 1.8164-1.8164 1.8164h-43.835c-1.0032 0-1.8164-0.8133-1.8164-1.8164v-35.376c-1.3233-1.3233-11.03-11.03-12.403-12.403-2.8393-2.8394-2.8398-7.4354 0-10.275zm16.035 56.238h40.202v-40.202h-29.927l1.7318 1.7319c5.654 5.654 10.089 12.569 12.882 20.064h9.8644c1.0031 0 1.8164 0.8132 1.8164 1.8163s-0.81325 1.8152-1.8164 1.8152h-11.14c-0.2006 0-0.4211-0.0391-0.5935-0.0987-7.9659-2.7555-15.327-7.3624-21.287-13.322l-1.7319-1.7316zm4.3005-30.764c4.6142 4.6141 10.126 8.361 16.114 10.976-2.6151-5.9875-6.3619-11.5-10.976-16.114l-12.63-12.63-5.1373 5.1374c1.3141 1.3141 11.38 11.38 12.63 12.63zm-17.767-17.767 2.5686 2.5688 5.1374-5.1375-2.5686-2.5688c-1.4197-1.4197-3.7176-1.4198-5.1374 0s-1.4198 3.7176 0 5.1375z" fill="url(#paint0_linear)" stroke="url(#paint0_linear)"/>
 <defs>
  <linearGradient id="paint0_linear" x1="50.596" x2="36.722" y1="8.2671" y2="63.495" gradientTransform="matrix(-1 0 0 1 63.997 0)" gradientUnits="userSpaceOnUse">
   <stop stop-color="#fec129" offset="0"/>
   <stop stop-color="#DF0066" offset="1"/>
  </linearGradient>
 </defs>
</svg>
