<?xml version="1.0" encoding="UTF-8"?>
<svg width="192" height="192" fill="none" version="1.1" viewBox="0 0 192 192" xmlns="http://www.w3.org/2000/svg">
 <path d="m30.139 12.728c3.108-0.7597 6.3072-0.741 9.4863-0.7223 0.6082 0.0035 1.2157 0.0071 1.8217 0.0052 16.301 0.0151 32.603 0.0108 48.904 0.0065 21.725-0.0057 43.45-0.0115 65.175 0.0288 12.025-0.1175 22.957 10.286 23.427 22.312 0.138 6.7962 0.114 13.598 0.089 20.402v0.0039c-0.011 3.0336-0.022 6.0675-0.019 9.1014 0.224 3.0565-1.763 6.066-4.749 6.8889-3.82 1.3401-8.475-1.7399-8.545-5.8309-0.15-4.7484-0.116-9.5021-0.083-14.256v-8e-4c0.038-5.2969 0.076-10.594-0.141-15.885-0.435-5.4899-5.712-9.6867-11.12-9.3693-12.712 0.0038-25.425-0.0033-38.138-0.0105h-1e-3c-26.834-0.015-53.67-0.0301-80.501 0.0576-5.8891-0.0353-10.732 5.4664-10.321 11.262-0.0235 39.217-0.0235 78.434 0 117.65-0.3292 5.407 3.8438 10.674 9.3214 11.132 5.0549 0.25 10.124 0.2 15.191 0.15h0.0021c5.3962-0.053 10.792-0.106 16.168 0.203 6.0184 1.234 6.6414 10.603 0.8933 12.649-3.3498 0.755-6.7899 0.654-10.23 0.554-1.9678-0.058-3.9355-0.116-5.8861-0.013-2.3312-0.087-4.6758-0.041-7.022 6e-3 -4.5983 0.092-9.2029 0.183-13.725-0.735-8.1342-1.987-14.928-8.582-17.197-16.634-0.9812-3.434-0.9582-7.02-0.9354-10.563 0.0034-0.532 0.0068-1.063 0.0068-1.593 0.0209-16.885 0.0139-33.773 0.0069-50.659-0.0087-21.111-0.0174-42.221 0.0283-63.324-0.0352-10.557 7.8757-20.384 18.09-22.818zm23.392 27.908c3.2443-3.3269 9.5566-1.8222 10.92 2.6215 0.5047 2.4826 0.4514 5.016 0.3982 7.5454-0.0237 1.1237-0.0473 2.2466-0.022 3.3639 1.3207 0.1174 2.7044 0.0608 4.0971 0.0038 3.0697-0.1257 6.1831-0.2532 8.7625 1.4774 4.22 3.0094 2.8917 10.392-2.1393 11.697-2.4737 0.411-4.982 0.368-7.4885 0.325h-7e-4c-1.0783-0.0185-2.1563-0.037-3.2311-0.0193-0.0179 1.0875 0.0023 2.1784 0.0226 3.2695 0.0462 2.4943 0.0924 4.99-0.3165 7.4516-1.246 4.6906-7.8639 6.3011-11.155 2.7274-2.3086-2.5554-2.1365-5.9491-1.9682-9.2702 0.0725-1.4305 0.1443-2.8476 0.0169-4.1783-1.319-0.0948-2.6726-0.0397-4.0299 0.0156-2.6825 0.1093-5.3797 0.2192-7.8541-0.8268-4.7018-2.2336-4.5725-9.769 0.1529-11.897 2.5578-0.9331 5.2862-0.8534 8.0007-0.7741h4e-4c1.2524 0.0366 2.5017 0.0731 3.73 0.01 0.1209-1.3085 0.0501-2.7062-0.0215-4.119-0.172-3.3978-0.3485-6.8828 2.1256-9.4235zm65.166 13.556c-1.74 0.0072-3.511 0.0145-5.077 0.7975-5.513 2.4922-4.278 11.685 1.763 12.496 7.213 0.2476 14.442 0.2076 21.669 0.1675 3.408-0.0189 6.817-0.0377 10.222-0.0264 3.503 0.2234 6.806-2.6803 6.935-6.1952 0.435-3.8324-2.997-7.3944-6.829-7.1945-4.861-0.0822-9.729-0.0659-14.597-0.0497-4.195 0.014-8.39 0.028-12.58-0.0209-0.495 0.0212-0.999 0.0233-1.506 0.0254zm-22.639 35.148c2.3627-1.2344 5.0667-1.5283 7.6997-1.5165 10.166 0.0352 20.335 0.0294 30.504 0.0235h6e-3c10.17-0.0059 20.341-0.0118 30.509 0.0235 7.699-0.0353 14.47 7.0064 14.235 14.682 0.037 13.051 0.031 26.101 0.025 39.152-3e-3 7.334-7e-3 14.668-2e-3 22.002 0.506 7.805-6.136 15.188-14 15.282-11.691 0.094-23.385 0.081-35.081 0.067-8.755-0.01-17.511-0.02-26.266 0.015-5.5491 0.329-11.144-2.527-13.895-7.394-1.6927-2.763-2.0571-6.066-1.9631-9.228 0.0403-11.414 0.0345-22.829 0.0288-34.241v-0.013c-0.0043-8.565-0.0086-17.128 0.0065-25.689-0.0941-5.4895 3.2678-10.78 8.193-13.166zm9.1107 12.297c-2.833 0.916-4.161 4.008-3.962 6.818 4e-3 5.613-2e-3 11.228-7e-3 16.844v6e-3c-0.01 11.235-0.02 22.473 0.043 33.711-0.294 3.445 2.574 6.736 6.089 6.583 15.183 0.104 30.367 0.071 45.551 0.037l4.423-9e-3 1.758-4e-3c3.632 0.341 6.9-2.892 6.559-6.525 4e-3 -2.979 9e-3 -5.958 0.014-8.937v-6e-3c0.025-14.276 0.049-28.552-0.037-42.829 0.152-3.515-3.139-6.371-6.583-6.089-8.398-0.067-16.796-0.058-25.196-0.049h-2e-3c-7.683 9e-3 -15.368 0.017-23.055-0.033-0.358 9e-3 -0.717 0.012-1.077 0.016h-1e-3c-1.521 0.014-3.054 0.029-4.517 0.466zm-55.542 14.823c-5.031-2.139-10.708 3.304-8.7572 8.418 1.1592 2.439 3.1401 4.289 5.1117 6.13 0.9071 0.847 1.8123 1.692 2.6346 2.592-0.8634 0.966-1.8038 1.874-2.7447 2.782h-1e-4 -1e-4c-1.7618 1.7-3.5255 3.402-4.7898 5.494-2.2452 4.679 2.3509 10.486 7.4289 9.264 2.841-0.821 4.8334-2.992 6.811-5.148h2e-4 1e-4c0.9107-0.993 1.8182-1.982 2.8041-2.834 0.965 0.852 1.8607 1.81 2.7582 2.771 1.8902 2.024 3.789 4.057 6.3634 5.117 5.2426 1.704 10.45-4.456 7.8756-9.334-1.3092-2.127-3.1164-3.852-4.9192-5.573h-2e-4c-0.868-0.829-1.735-1.656-2.5448-2.527 0.8552-1 1.8609-1.917 2.8708-2.837 2.1965-2.003 4.4131-4.024 5.1459-6.955 1.0462-5.079-4.8429-9.534-9.4508-7.171-2.0767 1.324-3.7772 3.098-5.4777 4.872-0.8502 0.886-1.7005 1.773-2.5977 2.604-0.8763-0.81-1.7053-1.687-2.5354-2.565h-1e-4c-1.8201-1.925-3.6456-3.856-5.9867-5.1zm65.098 0.776c7.028-0.419 14.091-0.354 21.154-0.288 3.816 0.036 7.632 0.071 11.442 0.03 4.185-0.329 7.805 3.961 6.759 8.052-0.611 3.656-4.432 5.761-7.935 5.349-3.975-0.063-7.953-0.031-11.929 2e-3 -6.37 0.052-12.737 0.103-19.091-0.237-6.465-1.129-6.724-11.332-0.4-12.908zm4.626 20.262c-1.98-0.028-3.988-0.058-5.789 0.816-5.49 2.528-4.162 11.756 1.892 12.473 5.535 0.284 11.082 0.242 16.632 0.2 3.879-0.03 7.76-0.059 11.638 0.023 0.126 2e-3 0.254 4e-3 0.382 6e-3 3.158 0.051 6.904 0.111 8.869-2.815 2.986-3.797 0.376-10.228-4.525-10.557-5.252-0.206-10.512-0.172-15.771-0.138-3.769 0.025-7.536 0.049-11.3-0.015-0.666 0.027-1.345 0.017-2.028 7e-3z" clip-rule="evenodd" fill="url(#paint0_linear)" fill-rule="evenodd"/>
 <defs>
  <linearGradient id="paint0_linear" x1="95.531" x2="95.531" y1="179.13" y2="12" gradientUnits="userSpaceOnUse">
   <stop stop-color="#FD2E00" offset="0"/>
   <stop stop-color="#f90" offset="1"/>
  </linearGradient>
 </defs>
</svg>
