<?xml version="1.0" encoding="UTF-8"?>
<svg width="128" height="128" fill="none" version="1.1" viewBox="0 0 128 128" xmlns="http://www.w3.org/2000/svg" xmlns:xlink="http://www.w3.org/1999/xlink">
 <path d="m64 0c-35.29 0-64 28.71-64 64s28.71 64 64 64 64-28.71 64-64-28.71-64-64-64zm-23.208 12.489 9.3919 7.0684-6.1969 2.4533c-0.903 0.3575-1.6321 1.0515-2.0338 1.9355l-3.3132 7.2933-13.817 6.9062c-1.152 0.5758-1.9277 1.7025-2.055 2.9842l-1.2082 12.182-6.1457-4.0972-2.8535-8.5765c5.6797-12.457 15.754-22.505 28.232-28.149zm-3.0815 65.484-9.2858-9.5482v-4.8291l8.2213-0.1087 9.579 10.536c0.539 0.5927 1.2535 0.9972 2.039 1.1545l6.0512 1.2107-3.3225 3.3235c-0.703 0.7033-1.098 1.6567-1.098 2.6512v4.3326l-6.7773 5.0824c-0.9407 0.7055-1.4957 1.8113-1.5 2.9866l-2.8449-3.414v-10.763c-3e-4 -0.9765-0.3813-1.9145-1.062-2.6145zm26.289 42.527c-31.154 0-56.5-25.346-56.5-56.5 0-3.8912 0.3955-7.692 1.1482-11.364l0.056 0.168c0.2635 0.792 0.78375 1.4732 1.4782 1.9362l10.742 7.1618v8.0455c0 0.9765 0.3807 1.9145 1.0617 2.6145l9.2858 9.5483v10.597c0 0.8772 0.3075 1.7268 0.8693 2.4008l10.345 12.414c0.7267 0.872 1.7897 1.35 2.8815 1.35 0.427 0 0.8584-0.073 1.2759-0.225 1.4845-0.537 2.4735-1.947 2.4735-3.526v-8.4685l6.7773-5.0825c0.9443-0.7083 1.5-1.8198 1.5-3v-4.6545l7.177-7.1792c0.9777-0.978 1.3378-2.4145 0.937-3.738-0.401-1.3235-1.4975-2.3191-2.8535-2.5903l-11.711-2.343-9.8853-10.872c-0.7222-0.7942-1.7495-1.2365-2.8243-1.227l-9.4145 0.1245 1.2066-12.16 13.154-6.575c0.7687-0.3843 1.382-1.0207 1.7375-1.8032l3.2365-7.1243 11.007-4.3577c1.2612-0.4993 2.1544-1.6411 2.3359-2.9853 0.1815-1.3443-0.3775-2.682-1.4612-3.4975l-10.798-8.1265c4.7073-1.2752 9.6548-1.96 14.76-1.96 19.546 0 36.803 9.9775 46.951 25.106l-7.968 2.7443-9.8745-1.6465-3.239-4.8565c-1.0648-1.5965-3.1628-2.1315-4.8623-1.24l-26.122 13.708c-1.385 0.7267-2.1733 2.2365-1.9783 3.7882 0.195 1.5518 1.3325 2.8195 2.854 3.181l16.904 4.016 4.865 7.5578c0.8697 1.3515 2.504 1.9982 4.0632 1.6082l6.6658-1.6675 3.1567 2.1042v6.2703c0 0.943 0.3553 1.8515 0.9951 2.5443l10.982 11.893 2e-3 17.532c-10.372 12.433-25.974 20.359-43.394 20.359zm50.893-39.358c0-0.9428-0.356-1.8513-0.996-2.544l-10.982-11.893v-6.8107c0-1.254-0.627-2.425-1.67-3.1203l-6.2078-4.1375c-0.8792-0.586-1.9647-0.7742-2.9897-0.5174l-5.667 1.4175-4.2272-6.5671c-0.5245-0.8147-1.3438-1.3947-2.2865-1.6187l-8.6281-2.0497 14.265-7.4851 2.2667 3.3991c0.575 0.862 1.481 1.4477 2.5032 1.6182l12.415 2.07c0.616 0.1027 1.248 0.05 1.838-0.1532l10.243-3.5275c3.668 7.4852 5.731 15.894 5.731 24.777 0 8.7837-2.015 17.105-5.607 24.528v-7.3852z" fill="url(#paint0_linear)"/>
 <defs>
  <linearGradient id="paint0_linear" x1="18.745" x2="109.26" y1="109.26" y2="18.745" gradientUnits="userSpaceOnUse">
   <stop stop-color="#0072FF" offset="0"/>
   <stop stop-color="#00E5A1" offset="1"/>
  </linearGradient>
  <linearGradient id="linearGradient1172" x1="49.743" x2="79.97" y1="62.922" y2="62.922" gradientTransform="matrix(.52307 -.62469 .41845 .78087 20.897 88.534)" gradientUnits="userSpaceOnUse">
   <stop stop-color="#b072ff" offset="0"/>
   <stop stop-color="#bb3e2b" offset="1"/>
  </linearGradient>
 </defs>
 <path d="m68.379 97.007 25.545 0.29141" fill="none" stroke="url(#linearGradient1172)" stroke-linecap="round" stroke-miterlimit="4.1" stroke-width="14.241"/>
</svg>
