<?xml version="1.0" encoding="UTF-8" standalone="no"?>
<svg
   width="64"
   height="64"
   viewBox="0 0 64 64"
   fill="none"
   version="1.1"
   id="svg11"
   sodipodi:docname="nordvpn.svg"
   inkscape:version="1.2.2 (b0a8486541, 2022-12-01)"
   xmlns:inkscape="http://www.inkscape.org/namespaces/inkscape"
   xmlns:sodipodi="http://sodipodi.sourceforge.net/DTD/sodipodi-0.dtd"
   xmlns="http://www.w3.org/2000/svg"
   xmlns:svg="http://www.w3.org/2000/svg">
  <sodipodi:namedview
     id="namedview13"
     pagecolor="#ffffff"
     bordercolor="#000000"
     borderopacity="0.25"
     inkscape:showpageshadow="2"
     inkscape:pageopacity="0.0"
     inkscape:pagecheckerboard="0"
     inkscape:deskcolor="#d1d1d1"
     showgrid="false"
     inkscape:zoom="6.363961"
     inkscape:cx="16.027754"
     inkscape:cy="10.528034"
     inkscape:window-width="1920"
     inkscape:window-height="1080"
     inkscape:window-x="0"
     inkscape:window-y="0"
     inkscape:window-maximized="0"
     inkscape:current-layer="svg11" />
  <path
     d="m 29.088696,39.153314 1.675549,0.308774 -1.675549,-0.311044 z m -0.812801,-1.607438 0.86502,-1.466673 -0.862749,1.466673 z m -0.624358,16.453535 0.313315,-1.67555 z m -1.026217,-1.539327 1.67555,0.308774 z m 16.117516,-3.035514 1.673279,-0.315585 -1.673279,0.317855 z m 1.979782,0.858208 -0.976268,-1.396291 z m -22.363365,-9.553811 -1.671009,-0.315585 1.673279,0.317855 z m -0.315585,-1.180605 -1.319098,1.076167 z m 13.147843,-2.002486 0.86729,1.466674 z m -0.812801,1.605168 1.67555,-0.308774 z m 7.045028,0.397318 -1.319098,-1.073895 z m -0.317855,1.180605 1.673279,-0.315585 -1.673279,0.317855 z m -4.263797,11.731117 -1.673279,0.311044 z m -1.028488,1.541597 0.313314,1.673279 z m -17.06654,-3.718903 -0.976269,1.394021 z M 10.732573,31.683723 c 0,-5.56984 2.212611,-10.911574 6.151083,-14.850047 3.938473,-3.938472 9.280207,-6.151083 14.850047,-6.151083 V 7.277004 c -13.48159,0 -24.406719,10.925129 -24.406719,24.406719 z m 8.988483,17.202764 C 14.285737,45.083579 10.732573,38.805944 10.732573,31.683723 H 7.326984 c 0,8.286932 4.141196,15.586244 10.441535,19.993076 z m 0.967188,-8.473105 -1.636953,8.695603 3.346558,0.631169 1.634683,-8.695603 z M 17.54375,31.683723 c 0,3.391966 1.194227,6.504674 3.17855,8.940806 l 2.640466,-2.150062 C 21.797285,36.558029 20.944412,34.158224 20.949339,31.683723 Z M 31.733703,17.49377 c -3.763403,0 -7.372691,1.495008 -10.033818,4.156135 -2.661127,2.661127 -4.156135,6.270415 -4.156135,10.033818 h 3.405589 c 0,-2.86024 1.136218,-5.603238 3.158661,-7.625703 2.022465,-2.022443 4.765463,-3.158661 7.625703,-3.158661 z m 14.189953,14.189953 c 0,-3.763403 -1.495054,-7.372691 -4.156181,-10.033818 C 39.106348,18.988778 35.497106,17.49377 31.733703,17.49377 v 3.405589 c 2.86024,0 5.603329,1.136218 7.625794,3.158661 2.022466,2.022465 3.15857,4.765463 3.15857,7.625703 z m -3.17855,8.940806 c 2.060155,-2.523769 3.183318,-5.682793 3.17855,-8.940806 h -3.405589 c 0.0043,2.47382 -0.848445,4.872716 -2.413427,6.788473 l 2.638196,2.152333 z m 1.671009,8.484456 -1.634682,-8.695603 -3.348829,0.631169 1.634682,8.695603 3.348829,-0.628898 z m 8.318718,-17.425262 c 0,7.122221 -3.553164,13.399856 -8.988483,17.202764 l 1.952537,2.792582 C 51.999226,47.267697 56.140422,39.970655 56.140422,31.683723 Z m -21.00113,-21.00113 c 5.569954,0 10.911506,2.212611 14.849956,6.151083 3.93845,3.938473 6.151174,9.280207 6.151174,14.850047 h 3.405589 c 0,-13.48159 -10.925129,-24.406719 -24.406719,-24.406719 z m 8.513972,21.00113 c 0,-2.258132 -0.897032,-4.423633 -2.493572,-6.020286 -1.596767,-1.596676 -3.762268,-2.493686 -6.0204,-2.493686 v 3.405589 c 1.354743,0 2.654089,0.538196 3.612194,1.496189 0.957879,0.958105 1.496189,2.257451 1.496189,3.612194 z m -4.188874,7.328827 c 1.27596,-0.751046 2.333509,-1.822444 3.068208,-3.10794 0.734699,-1.28527 1.120893,-2.740364 1.120666,-4.220887 h -3.405589 c 0,1.868533 -1.005784,3.505486 -2.515595,4.39548 z m 2.458835,13.138761 -2.463376,-13.309041 -3.348829,0.619818 2.463376,13.30904 z m -6.783933,3.939131 c 1.509811,0 2.974214,-0.152116 4.393209,-0.415482 l -0.624358,-3.346558 c -1.242585,0.234758 -2.504242,0.353954 -3.768851,0.356451 z m -4.39775,-0.417752 c 1.418995,0.265636 2.885669,0.417752 4.39775,0.417752 v -3.405589 c -1.264836,-0.003 -2.526493,-0.123736 -3.768851,-0.360992 z m 0.07946,-16.83042 -2.463376,13.306771 3.348829,0.619817 2.463375,-13.30677 z m -4.195686,-7.158547 c 0,3.12633 1.689172,5.853072 4.191145,7.328827 l 1.730039,-2.933347 c -0.766031,-0.449992 -1.401059,-1.092286 -1.842424,-1.863311 -0.44116,-0.770799 -0.673262,-1.643764 -0.673171,-2.532169 z m 8.513972,-8.513972 c -2.258132,0 -4.423633,0.89701 -6.020286,2.493686 -1.596676,1.596653 -2.493686,3.762154 -2.493686,6.020286 h 3.405589 c 0,-1.354743 0.538196,-2.654089 1.496189,-3.612194 0.958105,-0.957993 2.257451,-1.496189 3.612194,-1.496189 z m -0.969458,16.292337 c 0.276988,-1.503 -0.588031,-2.769879 -1.62333,-3.382885 l -1.730039,2.933347 c 0.0082,0.0052 0.01589,0.01112 0.0227,0.01816 0.0068,0.0068 0.0045,0.0068 0,-0.0023 -0.01044,-0.02157 -0.01725,-0.0445 -0.02043,-0.06811 -0.0068,-0.03905 -0.0068,-0.07901 0,-0.118061 z m -2.799393,12.861773 c 0.270176,0.05222 0.363262,0.292881 0.336018,0.444997 l -3.348829,-0.619817 c -0.292881,1.575652 0.692469,3.205794 2.383912,3.523649 l 0.628899,-3.346559 z m 13.104705,-2.583707 c 0.381426,2.02519 2.751715,3.251202 4.6316,1.936645 L 43.74862,48.886487 c 0.06516,-0.04337 0.14031,-0.06993 0.218185,-0.07765 0.0781,-0.0075 0.156657,0.0043 0.229082,0.03451 0.118061,0.05222 0.199795,0.158928 0.220228,0.265636 z M 24.034802,41.044551 c 0.181632,-0.960376 -0.11579,-1.891237 -0.672036,-2.572355 l -2.638196,2.152333 c -0.01589,-0.01816 -0.05903,-0.09082 -0.03633,-0.211147 z m 10.291689,-4.965348 c -1.035299,0.613006 -1.900318,1.879885 -1.62106,3.382885 L 36.05426,38.84227 c 0.007,0.03973 0.007,0.0806 0,0.120331 -0.0034,0.02293 -0.01022,0.04495 -0.02043,0.06584 -0.0045,0.0091 -0.0068,0.0091 0,0.0023 0.0068,-0.007 0.0143,-0.01317 0.0227,-0.01816 z m 5.778149,2.395264 c -0.556246,0.681118 -0.851397,1.609708 -0.672036,2.570084 l 3.346558,-0.631169 c 0.0227,0.122601 -0.02043,0.192983 -0.03633,0.211147 z m -4.935833,14.296661 c -0.01362,-0.102849 0.01362,-0.206833 0.07606,-0.289702 0.06266,-0.08287 0.155068,-0.137813 0.257689,-0.153024 l 0.624358,3.346558 c 1.691443,-0.315584 2.681334,-1.945726 2.390724,-3.523649 z M 17.768519,51.676799 c 1.877615,1.314557 4.247904,0.08628 4.631601,-1.936645 l -3.348829,-0.628898 c 0.01249,-0.05903 0.03914,-0.114201 0.07747,-0.160744 0.03833,-0.04677 0.0873,-0.08332 0.142763,-0.107163 0.07283,-0.0302 0.152025,-0.04178 0.23049,-0.03383 0.07844,0.0077 0.153706,0.03519 0.219047,0.07924 z"
     fill="url(#paint0_linear)"
     id="path2"
     style="fill:url(#paint0_linear);stroke-width:2.27039" />
  <defs
     id="defs9">
    <linearGradient
       id="paint0_linear"
       x1="12"
       y1="22.75"
       x2="12"
       y2="1.25"
       gradientUnits="userSpaceOnUse"
       gradientTransform="matrix(2.2703925,0,0,2.2703925,4.4889943,4.4390141)">
      <stop
         stop-color="#5570FF"
         id="stop4"
         offset="0"
         style="stop-color:#85e5ff;stop-opacity:1;" />
      <stop
         offset="1"
         stop-color="#4DD3FF"
         id="stop6"
         style="stop-color:#4d82ff;stop-opacity:1;" />
    </linearGradient>
  </defs>
</svg>
