<?xml version="1.0" encoding="UTF-8"?>
<svg width="128" height="128" fill="none" version="1.1" viewBox="0 0 128 128" xmlns="http://www.w3.org/2000/svg">
 <g clip-path="url(#clip0)">
  <path d="m50.691 75.218 0.2427-0.4372-0.2416 0.4378c1.327 0.7323 2.977 0.7198 4.312-0.1165l30-18.75h1e-4c1.241-0.7761 1.9964-2.1375 1.9964-3.6027s-0.7554-2.8266-1.9964-3.6027h-1e-4l-29.999-18.749c-1e-4 -1e-4 -2e-4 -2e-4 -3e-4 -2e-4 -1.3119-0.826-2.9754-0.864-4.3138-0.1164-1.3523 0.7508-2.1908 2.1742-2.1908 3.7184v37.5c0 1.5442 0.8385 2.9676 2.1908 3.7184zm-31.691 15.532h10.75v3.25c0 2.3489 1.9011 4.25 4.25 4.25s4.25-1.9011 4.25-4.25v-3.25h70.75c2.349 0 4.25-1.9011 4.25-4.25s-1.901-4.25-4.25-4.25h-70.75v-3.25c0-2.3489-1.9011-4.25-4.25-4.25s-4.25 1.9011-4.25 4.25v3.25h-10.75c-2.3489 0-4.25 1.9011-4.25 4.25s1.9011 4.25 4.25 4.25zm38-26.92v-22.161l17.731 11.08-17.731 11.08zm67.25-49.08h-120.5c-2.3489 0-4.25 1.9011-4.25 4.25v90c0 2.349 1.9011 4.25 4.25 4.25h120.5c2.349 0 4.25-1.901 4.25-4.25v-90c0-2.3489-1.901-4.25-4.25-4.25zm-4.25 90h-112v-81.5h112v81.5z" fill="url(#paint0_linear)" stroke="url(#paint0_linear)"/>
 </g>
 <defs>
  <linearGradient id="paint0_linear" x1="64" x2="64" y1="112.75" y2="15.25" gradientUnits="userSpaceOnUse">
   <stop stop-color="#FD5900" offset="0"/>
   <stop stop-color="#FFDE00" offset="1"/>
  </linearGradient>
  <clipPath id="clip0">
   <rect width="128" height="128" fill="#fff"/>
  </clipPath>
 </defs>
</svg>
