<?xml version="1.0" encoding="UTF-8"?>
<svg width="192" height="192" fill="none" version="1.1" viewBox="0 0 192 192" xmlns="http://www.w3.org/2000/svg">
 <path d="m56.38 18.607c14.898-7.7488 32.06-10.893 48.721-9.13 17.563 1.7744 34.491 9.1974 47.806 20.854 14.887 12.903 25.224 31.006 28.704 50.479 3.568 19.383 0.49 39.957-8.777 57.341-11.151 21.203-31.279 37.497-54.396 43.472-3.736 1.246-8.721-0.202-9.591-4.503-0.624-9.973 0.112-20.024-0.356-30.018-0.212-3.235-2.041-5.952-4.004-8.389-2.732-3.032-1.36-8.558 2.487-9.917 3.87-1.392 7.839-2.65 11.285-4.952 9.078-5.39 15.791-16.351 12.891-27.143-0.591-4.5931-4.817-7.7937-5.029-12.398 1.037-5.4466 2.13-10.893 2.353-16.463-4.929 1.7968-10.27 3.122-14.341 6.637-2.408 2.3246-5.832 1.0781-8.642 0.4379-7.1705-1.7743-14.642-1.1679-21.757 0.5728-3.2116 0.9433-5.52-1.9541-8.1183-3.2343-3.8584-1.9091-7.951-3.2792-12.066-4.492 0.2342 5.5701 0.6914 11.129 1.6839 16.609 0.6356 2.639-1.2378 4.8401-2.3418 7.0412-3.5239 6.3338-3.5462 14.408-0.1673 20.81 4.1595 8.074 12.222 13.442 20.719 15.98 2.7098 0.618 5.2189 2.74 5.4642 5.671 0.658 4.908-5.0181 7.457-5.23 12.252-0.6914 10.04 0.2788 20.158-0.1003 30.221-0.1896 3.223-3.3232 5.806-6.4902 5.559-3.1113 0.078-5.9995-2.583-6.1779-5.717-0.2676-4.705-0.1227-9.422-0.2119-14.138-6.925-1.28-14.218-2.224-20.273-6.109-2.3976-1.438-3.4235-4.144-4.7505-6.458-3.4235-6.086-8.0625-11.533-13.794-15.531 6.6128 0.202 15.121 0.663 18.668 7.311 3.4904 7.367 12.601 8.917 19.905 8.4 0.0111-4.009 0.8698-7.917 2.0407-11.735-10.817-4.886-20.106-14.038-23.608-25.616-2.9329-9.288-1.6839-19.698 3.1224-28.143-1.0929-8.6696-1.9181-17.485-0.8252-26.188 0.5575-3.7172 4.7393-6.2327 8.2632-4.9637 8.4528 2.2011 16.961 4.7054 24.656 8.9616 8.0402-1.561 16.348-1.561 24.366 0.1347 7.561-4.2674 15.913-6.8391 24.244-9.1076 3.724-1.3363 8.162 1.5498 8.374 5.5477 0.892 8.2429 0.045 16.598-1.561 24.706 5.119 8.6584 6.713 19.428 3.613 29.086-3.501 11.657-12.913 20.686-23.686 25.729 3.502 9.253 1.562 19.326 2.064 28.973 15.366-5.694 28.737-16.643 37.357-30.658 9.189-14.723 12.969-32.736 10.493-49.94-2.375-17.541-11.263-34.072-24.488-45.729-11.096-9.8937-25.202-16.306-39.911-18.08-17.731-2.2685-36.187 2.3359-50.862 12.589-14.475 9.9948-25.236 25.29-29.696 42.394-3.5461 13.195-3.2562 27.334 0.5241 40.44 1.4386 3.593-0.8475 8.13-4.7059 8.748-3.2227 0.775-6.7354-1.337-7.5272-4.582-6.0664-20.147-4.639-42.517 4.0368-61.687 8.0179-17.946 22.247-32.983 39.643-41.933z" fill="url(#paint0_linear)"/>
 <defs>
  <linearGradient id="paint0_linear" x1="96.028" x2="96.028" y1="182.05" y2="9" gradientUnits="userSpaceOnUse">
   <stop stop-color="#A93AFF" offset="0"/>
   <stop stop-color="#FF81FF" offset="1"/>
  </linearGradient>
 </defs>
</svg>
