<?xml version="1.0" encoding="UTF-8"?>
<svg width="128" height="128" fill="none" version="1.1" viewBox="0 0 128 128" xmlns="http://www.w3.org/2000/svg">
 <path d="m58.176 7.6428c3.1909-2.1866 7.7964-2.1941 10.995 0 4.9431 3.2874 7.7964 8.5518 9.9987 13.681 1.0609 2.3589-0.7154 5.2719-3.4079 5.7137-2.1702 0.4493-4.5091-0.7788-5.2324-2.7333-1.6236-3.6244-3.5044-7.3462-6.856-9.8773-3.5124 2.6285-5.3611 6.5674-7.0731 10.334-0.9403 2.2915-4.1875 3.2949-6.438 2.0519-2.0415-0.9885-2.9498-3.4672-2.0174-5.4292 2.2344-5.1371 5.0636-10.439 10.031-13.741z" fill="url(#paint0_linear)"/>
 <path d="m99.657 28.191c5.0638-0.2995 10.795-0.1572 14.87 3.0553 3.464 2.7857 3.496 7.5784 2.146 11.345-2.854 8.0875-9.171 14.498-15.272 20.616 5.313 4.5155 10.176 9.6002 13.761 15.441 2.113 3.5945 3.914 7.7805 2.909 11.937-0.747 3.1452-3.673 5.4217-6.864 6.3727-5.055 1.5651-10.521 1.2581-15.729 0.5991-10.553-1.4827-20.664-4.9499-30.309-9.121-1.1092-0.7563-2.2826 0.1798-3.3114 0.5692-10.561 4.8824-21.798 8.9112-33.597 10.102-5.2485 0.3594-11.244 0.307-15.464-3.0553-3.4722-2.8306-3.4079-7.6757-2.0415-11.45 2.8613-7.9153 9.01-14.243 14.998-20.241-0.1527-0.8462-1.2378-1.288-1.7763-1.9395-5.578-5.1371-10.875-10.851-13.792-17.718-1.5834-3.7592-1.9692-8.6117 1.3262-11.69 4.0027-3.5944 10.023-3.864 15.271-3.6918 12.386 0.7788 24.241 4.8076 35.437 9.6077 1.069 0.7114 2.2104-0.1872 3.207-0.5541 10.746-4.9649 22.2-9.106 34.232-10.184zm-26.291 16.115c7.3302 3.894 14.371 8.2598 20.97 13.172 5.9156-5.6687 12.225-11.817 14.163-19.77-2.95-1.3629-6.366-0.996-9.533-0.8088-8.9296 1.0035-17.433 4.0213-25.599 7.4061zm-55.226-5.5639c0.1527 2.5461 1.4547 4.845 2.8533 6.9717 3.2069 4.7702 7.3945 8.8963 11.831 12.693 6.3818-5.1596 13.374-9.6077 20.464-13.861-7.0248-2.5686-14.17-5.0023-21.645-6.1181-4.4608-0.6815-9.1306-0.9885-13.503 0.3145zm21.758 25.288c7.4749 5.4067 15.512 10.094 23.855 14.243 6.1165-2.913 11.783-6.5674 17.329-10.319 2.0736-1.5651 4.4608-2.8456 6.1085-4.8376-7.4669-5.2718-15.368-9.9971-23.678-14.033-8.4073 4.186-16.22 9.3605-23.614 14.947zm33.974 18.669c8.5841 3.2425 17.49 6.1555 26.805 6.7546 2.885 0.2171 5.787-0.0749 8.552-0.8762-1.583-8.125-8.697-13.899-14.532-19.62-6.6711 4.92-13.382 9.8624-20.825 13.741zm-51.729-0.5991c-1.5592 2.4113-3.014 5.0173-3.1507 7.8928 2.7649 0.6366 5.6343 0.8987 8.4716 0.5766 9.2752-0.8911 18.092-4.0063 26.548-7.5184-7.3462-3.894-14.403-8.2597-20.994-13.195-4.0509 3.7292-7.8768 7.7206-10.875 12.244z" fill="url(#paint1_linear)"/>
 <path d="m48.072 105.59c-1.2779-4.246 5.4495-7.0467 8.0777-3.505 2.1621 3.797 3.7294 8.125 7.5231 10.859 3.5446-2.636 5.345-6.613 7.1373-10.364 1.2298-2.6963 5.5861-3.1531 7.5231-0.892 1.4146 1.401 1.3664 3.542 0.4903 5.182-2.2987 4.95-5.144 10.095-10.143 13.12-3.3275 2.045-7.917 1.7-10.987-0.621-4.726-3.445-7.5954-8.627-9.6209-13.779z" fill="url(#paint2_linear)"/>
 <defs>
  <linearGradient id="paint0_linear" x1="63.63" x2="63.63" y1="27.352" y2="6" gradientUnits="userSpaceOnUse">
   <stop stop-color="#5570FF" offset="0"/>
   <stop stop-color="#4DD3FF" offset="1"/>
  </linearGradient>
  <linearGradient id="paint1_linear" x1="63.679" x2="63.679" y1="99.255" y2="28.085" gradientUnits="userSpaceOnUse">
   <stop stop-color="#5570FF" offset="0"/>
   <stop stop-color="#4DD3FF" offset="1"/>
  </linearGradient>
  <linearGradient id="paint2_linear" x1="63.679" x2="63.679" y1="121.34" y2="100.24" gradientUnits="userSpaceOnUse">
   <stop stop-color="#5570FF" offset="0"/>
   <stop stop-color="#4DD3FF" offset="1"/>
  </linearGradient>
 </defs>
</svg>
