<?xml version="1.0" encoding="UTF-8" standalone="no"?>
<svg
   width="512"
   height="512"
   version="1.1"
   viewBox="0 0 512 512"
   id="svg18"
   sodipodi:docname="rebornos_welcome_logo.svg"
   inkscape:version="1.2.2 (b0a8486541, 2022-12-01)"
   xmlns:inkscape="http://www.inkscape.org/namespaces/inkscape"
   xmlns:sodipodi="http://sodipodi.sourceforge.net/DTD/sodipodi-0.dtd"
   xmlns="http://www.w3.org/2000/svg"
   xmlns:svg="http://www.w3.org/2000/svg">
  <sodipodi:namedview
     id="namedview20"
     pagecolor="#ffffff"
     bordercolor="#000000"
     borderopacity="0.25"
     inkscape:showpageshadow="2"
     inkscape:pageopacity="0.0"
     inkscape:pagecheckerboard="0"
     inkscape:deskcolor="#d1d1d1"
     showgrid="false"
     inkscape:zoom="1.6875"
     inkscape:cx="250.07407"
     inkscape:cy="256"
     inkscape:window-width="1920"
     inkscape:window-height="1056"
     inkscape:window-x="1920"
     inkscape:window-y="0"
     inkscape:window-maximized="1"
     inkscape:current-layer="svg18" />
  <defs
     id="defs12">
    <linearGradient
       id="linearGradient878"
       x1="-903.74"
       x2="-332.76"
       y1="-6.445"
       y2="-6.445"
       gradientUnits="userSpaceOnUse">
      <stop
         stop-color="#1878b4"
         offset="0.00143858"
         id="stop2"
         style="stop-color:#15577c;stop-opacity:1;" />
      <stop
         stop-color="#007a9c"
         stop-opacity=".67116"
         offset="0.99984336"
         id="stop4"
         style="stop-color:#32c1e9;stop-opacity:0.67115998;" />
    </linearGradient>
    <linearGradient
       id="linearGradient880"
       x1="-903.74"
       x2="-332.76"
       y1="-6.445"
       y2="-6.445"
       gradientUnits="userSpaceOnUse">
      <stop
         stop-color="#0015cc"
         offset="0"
         id="stop7" />
      <stop
         stop-color="#007a9c"
         stop-opacity=".67116"
         offset="1"
         id="stop9" />
    </linearGradient>
  </defs>
  <g
     transform="matrix(.71395 0 0 .71395 692.75 254.08)"
     fill="url(#linearGradient878)"
     id="g16">
    <path
       d="m-765.03-257.89c-48.392 83.814-96.784 167.63-145.18 251.44 48.658 84.284 97.316 168.57 145.97 252.85h291.96c48.662-84.281 97.323-168.56 145.98-252.84-48.662-84.281-97.323-168.56-145.98-252.84-97.316-3e-3 -194.63-7e-3 -291.95-0.01-0.26953 0.4668-0.53906 0.9336-0.80859 1.4004zm330.45 124.56c-16.408 9.474-32.816 18.948-49.225 28.422-12.936-22.376-25.871-44.753-38.807-67.129h-77.574v-56.848c36.797-0.0228 73.594-0.0456 110.39-0.0684 18.405 31.874 36.81 63.749 55.215 95.623zm-201.71-38.752h-77.578c-12.934 22.392-25.87 44.782-38.805 67.174-16.407-9.4726-32.814-18.945-49.221-28.418 18.403-31.85 36.806-63.701 55.209-95.551 36.798-0.015 73.596-0.0299 110.39-0.0449v56.84zm-0.0352 79.531h-31.656c-5.2819 9.1478-10.564 18.296-15.846 27.443-13.722-7.9225-27.444-15.845-41.166-23.768 9.8672-17.071 19.734-34.142 29.602-51.213 19.689-3e-3 39.378-5e-3 59.066-8e-3v47.545zm95.211-47.529c9.8672 17.071 19.734 34.142 29.602 51.213-13.721 7.9225-27.443 15.845-41.164 23.768-5.2825-9.1478-10.565-18.295-15.848-27.443h-31.654v-47.545c19.688 3e-3 39.376 5e-3 59.064 8e-3zm-229.62 66.484c-12.923 22.382-25.846 44.763-38.77 67.145 12.935 22.405 25.87 44.81 38.805 67.215-16.408 9.474-32.815 18.948-49.223 28.422-18.404-31.876-36.809-63.751-55.213-95.627 18.392-31.845 36.784-63.69 55.176-95.535 16.408 9.4603 32.816 18.921 49.225 28.381zm409.4 67.197c-18.405 31.876-36.81 63.751-55.215 95.627-16.408-9.474-32.816-18.948-49.225-28.422 12.935-22.404 25.87-44.809 38.805-67.213-12.925-22.384-25.85-44.767-38.775-67.15 16.409-9.4733 32.818-18.947 49.227-28.42 18.395 31.859 36.789 63.719 55.184 95.578zm-226.39-52.91c10.174 17.62 20.349 35.241 30.523 52.861-10.174 17.621-20.349 35.242-30.523 52.863-20.347 0-40.694 1e-6 -61.041 0-10.175-17.621-20.35-35.242-30.525-52.863 10.175-17.62 20.35-35.241 30.525-52.861h61.041zm-114.06 25.475c-5.2683 9.1256-10.536 18.251-15.805 27.377 5.2819 9.1478 10.564 18.296 15.846 27.443-13.723 7.9238-27.445 15.848-41.168 23.771-9.8685-17.071-19.737-34.142-29.605-51.213 9.832-17.048 19.664-34.095 29.496-51.143 13.745 7.9212 27.491 15.842 41.236 23.764zm237.88 27.395c-9.8672 17.07-19.734 34.139-29.602 51.209-13.723-7.9238-27.447-15.848-41.17-23.771 5.2826-9.1484 10.565-18.297 15.848-27.445-5.27-9.1264-10.54-18.253-15.811-27.379 13.723-7.9238 27.447-15.848 41.17-23.771 9.8548 17.053 19.71 34.105 29.564 51.158zm-205.67 83.295c0.54636 1.0762 1.2079 2.262 2.4531 2.627 1.0779 0.36148 2.2579 0.08938 3.3805 0.17383h27.438v47.545h-59.098c-9.8431-17.053-19.686-34.105-29.529-51.158 13.723-7.9238 27.447-15.848 41.17-23.771 4.7285 8.1947 9.457 16.389 14.186 24.584zm158.02-0.81641c-9.8431 17.053-19.686 34.105-29.529 51.158h-59.098v-47.545h31.656c5.2696-9.1269 10.539-18.254 15.809-27.381 13.721 7.9225 27.441 15.845 41.162 23.768zm-203.93 80.355c0.54902 1.0742 1.2087 2.2587 2.4531 2.623 1.0779 0.36149 2.2579 0.0894 3.3805 0.17383h73.313v56.844h-110.38c-18.393-31.856-36.786-63.712-55.18-95.568 16.407-9.4746 32.814-18.949 49.221-28.424 12.398 21.451 24.797 42.901 37.195 64.352zm280.88-35.932c-18.392 31.856-36.784 63.712-55.176 95.568h-110.39v-56.844h77.529c12.924-22.382 25.848-44.763 38.771-67.145 16.423 9.4733 32.846 18.947 49.27 28.42z"
       fill="url(#linearGradient880)"
       id="path14" />
  </g>
</svg>
