<?xml version="1.0" encoding="UTF-8"?>
<svg width="192" height="192" fill="none" version="1.1" viewBox="0 0 192 192" xmlns="http://www.w3.org/2000/svg">
 <path d="m84.693 28.702c19.215-3.2517 40.75 0.31232 55.626 13.595 4.34 4.2437 9.4691 9.461 8.6236 16.093-0.55203 6.485-7.1532 11.555-13.57 10.563-7.4102-0.27552-9.7094-8.5976-15.667-11.574-11.787-6.4848-26.498-6.981-38.984-2.2045-5.057 2.0942-10.408 5.1254-12.541 10.453-1.4343 6.3011 4.395 10.949 9.3966 13.411 10.518 5.6582 22.839 3.7109 34.094 6.5768 12.228 2.9026 24.255 9.2038 31.462 19.805 6.4354 9.0563 7.7052 21.511 2.9972 31.597-4.8357 10.895-15.097 18.353-25.965 22.56-16.256 6.1536-34.773 6.1718-51.065 0.14589-9.8747-3.8029-19.327-10.195-24.531-19.62-4.211-7.808 2.7399-18.278 11.548-17.416 7.6681-0.23871 10.279 8.1943 16.127 11.409 12.026 6.9079 27.326 7.2195 40.088 2.1319 5.149-2.2413 11.051-5.6214 12.063-11.666 0.14588-5.9348-5.3695-9.7376-10.114-12.088-10.518-5.5485-22.821-3.473-34.001-6.4487-13.129-3.1597-26.094-10.471-32.769-22.596-5.7189-9.9938-5.3327-23.056 0.90115-32.737 7.8519-12.474 22.122-19.455 36.281-21.99z" fill="url(#paint1_linear)" stroke-width="1.6578"/>
 <defs>
  <linearGradient id="paint1_linear" x1="96.17" x2="96.17" y1="137.11" y2="54.683" gradientTransform="matrix(1.6578 0 0 1.6578 -63.256 -63.076)" gradientUnits="userSpaceOnUse">
   <stop stop-color="#cc001d" offset="0"/>
   <stop stop-color="#d5652a" offset="1"/>
  </linearGradient>
 </defs>
</svg>
