<?xml version="1.0" encoding="UTF-8"?>
<!-- Generator: Gravit.io -->
<svg width="48pt" height="48pt" style="isolation:isolate" version="1.1" viewBox="0 0 48 48" xmlns="http://www.w3.org/2000/svg">
 <linearGradient id="_lgradient_19" x2=".90749" y1=".5" y2=".92008" gradientTransform="matrix(43.997,0,0,48,2.001,0)" gradientUnits="userSpaceOnUse">
  <stop stop-color="#ff2500" offset=".0031244"/>
  <stop stop-color="#f3ff00" offset=".83888"/>
 </linearGradient>
 <path d="m25.237 0c-3.449-1e-3 -6.896 5e-3 -10.347 0.02-1.082 7e-3 -2.179 0.106-3.238 0.332-1.282 0.271-2.512 0.732-3.641 1.433-0.936 0.581-1.813 1.22-2.566 2.02-1.144 1.206-2.026 2.564-2.625 4.132-0.391 1.026-0.604 2.081-0.742 3.137-0.23 1.712 0.083 2.602 0.598 4.238 0.338 1.078 0.835 2.093 1.472 3.043 0.96 1.433 2.104 2.686 3.555 3.629 0.775 0.505 1.584 0.949 2.39 1.402 0.653 0.369 1.313 0.708 1.965 1.062l1.727 0.93c1.059 0.573 2.127 1.139 3.171 1.734 0.315 0.181 0.767 0.239 0.828 0.797-0.176 8e-3 -0.33 0.024-0.476 0.031-1.689 0-3.377-0.029-5.058 8e-3 -1.336 0.03-2.671 0.098-3.946 0.641-0.906 0.384-1.775 0.822-2.542 1.418-1.421 1.101-2.457 2.505-3.086 4.164-0.415 1.093-0.675 2.237-0.629 3.421 0.023 0.619 0.123 2.038 0.238 2.649 0.1 0.52 0.207 1.056 0.414 1.539 0.491 1.161 1.152 2.232 2.043 3.16 1.344 1.387 2.978 2.312 4.859 2.742 0.937 0.218 1.927 0.297 2.895 0.297 6.886 0.022 13.772 0.03 20.659 7e-3 1.896-7e-3 3.738-0.317 5.496-1.093 1.197-0.528 2.279-1.215 3.254-2.082 1.013-0.905 1.874-1.937 2.519-3.121 0.384-0.709 0.7-1.465 0.953-2.234 0.223-0.656 0.338-1.357 0.43-2.043 0.092-0.687 0.19-1.396 0.144-2.082-0.092-1.32-0.328-1.815-0.797-3.067-0.445-1.176-1.02-2.278-1.765-3.281-0.998-1.349-2.19-2.502-3.672-3.339-1.159-0.656-2.309-1.328-3.476-1.969-0.837-0.468-1.706-0.895-2.551-1.348-1.044-0.565-2.096-1.138-3.133-1.726-0.138-0.076-0.197-0.267-0.296-0.402 0.13-0.053 0.26-0.141 0.39-0.141 1.321-8e-3 2.648 7e-3 3.969-8e-3 1.451-0.015 2.919 0.111 4.308-0.394 0.845-0.31 1.682-0.649 2.457-1.078 1.067-0.596 1.973-1.408 2.641-2.426 0.491-0.754 0.959-1.534 1.32-2.356 0.261-0.595 0.307-1.273 0.469-1.914 0.429-1.681 0.044-4.095-0.516-5.656-0.415-1.161-1.121-2.189-1.98-3.109-1.329-1.417-2.971-2.321-4.836-2.789-0.937-0.234-1.927-0.308-2.895-0.308-3.451-0.012-6.902-0.019-10.351-0.02zm0 4c3.444 1e-3 6.892 8e-3 10.34 0.02h0.011c0.761 0 1.438 0.069 1.926 0.191 1.22 0.307 2.104 0.806 2.887 1.64 0.588 0.63 0.951 1.209 1.133 1.719v8e-3c0.781 2.925 0.299 4.409-0.856 6.383-0.293 0.445-0.687 0.814-1.242 1.124-0.487 0.269-1.129 0.537-1.883 0.813-0.341 0.122-1.271 0.135-2.976 0.152h-4e-3c-3.067 0.062-5.389-0.051-8.574-0.051h-2c-2 0-2 1.938-2 1.938v7.472c-2.687-1.614-3.9-2.247-6.312-3.547-3e-3 -1e-3 -5e-3 -2e-3 -8e-3 -4e-3l-1.726-0.929 0.015 4e-3c-0.707-0.384-1.344-0.711-1.902-1.027l-0.016-8e-3c-0.826-0.464-1.555-0.869-2.164-1.266h-4e-3c-3.249-2.513-4.193-5.937-3.324-9.269 0.407-1.064 0.97-1.94 1.789-2.805 4e-3 -3e-3 8e-3 -7e-3 0.012-0.011 0.419-0.445 0.992-0.887 1.762-1.364 0.689-0.428 1.467-0.729 2.359-0.918 3e-3 -1e-3 5e-3 -2e-3 8e-3 -4e-3 0.737-0.157 1.565-0.235 2.422-0.242 3.443-0.015 6.883-0.02 10.327-0.019zm0.762 18.554c1.922 1.149 3.995 2.313 5.785 3.289l0.015 0.012c0.927 0.496 1.779 0.913 2.493 1.312 7e-3 4e-3 0.015 8e-3 0.023 0.012 1.105 0.607 2.243 1.271 3.433 1.945v4e-3c0.912 0.515 1.686 1.233 2.426 2.234l4e-3 4e-3c0.497 0.669 0.9 1.43 1.234 2.313 0.493 1.313 0.484 1.02 0.547 1.929 8e-3 0.126-0.024 0.58-0.117 1.274-0.081 0.607-0.175 1.057-0.254 1.289-4e-3 0.012-8e-3 0.023-0.012 0.035-0.188 0.571-0.414 1.109-0.668 1.578-0.396 0.725-0.944 1.397-1.667 2.043-0.661 0.587-1.367 1.037-2.203 1.406h-4e-3c-1.172 0.518-2.421 0.748-3.891 0.754-6.875 0.022-13.755 0.015-20.636-8e-3h-0.012c-0.751 0-1.45-0.067-1.984-0.191-6e-3 -2e-3 -0.013-3e-3 -0.019-4e-3 -1.154-0.264-2.036-0.765-2.868-1.621-0.506-0.53-0.909-1.156-1.242-1.942-2e-3 -6e-3 -5e-3 -0.013-7e-3 -0.019 0.019 0.046-0.065-0.215-0.161-0.715 0.014 0.062-0.156-1.63-0.171-2.043v-4e-3 -4e-3c-0.02-0.498 0.089-1.098 0.371-1.844v-4e-3c0.378-0.996 0.934-1.749 1.796-2.417l4e-3 -4e-3c0.363-0.281 0.904-0.577 1.653-0.895l4e-3 -4e-3c0.458-0.195 1.207-0.292 2.468-0.32 1.574-0.036 3.233-8e-3 4.969-8e-3 0.069 0 0.138-1e-3 0.207-4e-3 1.421 4e-3 2.927 0.063 4.484 0.063h1.879s2.121-1e-3 2.121-1.899v-2.101-5.445z" fill="url(#_lgradient_19)"/>
</svg>
