<?xml version="1.0" encoding="UTF-8"?>
<svg width="16" height="16" fill="none" version="1.1" viewBox="0 0 16 16" xmlns="http://www.w3.org/2000/svg">
 <path d="m5 2c-0.55228 0-1 0.44772-1 1s0.44772 1 1 1 1-0.44772 1-1-0.44772-1-1-1zm5 0-1 1 3 3-3 3 1 1 4-4-4-4zm-6.5 4c-0.82843 0-1.5 0.67157-1.5 1.5s0.67157 1.5 1.5 1.5 1.5-0.67157 1.5-1.5-0.67157-1.5-1.5-1.5zm3 5c-0.82843 0-1.5 0.6716-1.5 1.5s0.67157 1.5 1.5 1.5 1.5-0.6716 1.5-1.5-0.67157-1.5-1.5-1.5z" fill="url(#paint0_linear)"/>
 <defs>
  <linearGradient id="paint0_linear" x1="8" x2="8" y1="14" y2="2" gradientUnits="userSpaceOnUse">
   <stop stop-color="#5558FF" offset="0"/>
   <stop stop-color="#00C0FF" offset="1"/>
  </linearGradient>
 </defs>
</svg>
