<?xml version="1.0" encoding="UTF-8"?>
<svg width="64" height="64" fill="none" version="1.1" viewBox="0 0 64 64" xmlns="http://www.w3.org/2000/svg">
 <path d="m8.2714 5.2787c2.5751-0.47769 5.2217-0.17707 7.8281-0.25943 2.6823 0.09471 5.5838-0.40768 8.0292 0.8936 2.4946 1.3425 4.0727 3.6774 6.241 5.3781 0.7779 0.523 1.7525 0.7618 2.7137 0.733 9.2408 0 18.482 0 27.722 0.0371 1.2562-0.1359 2.6689 0.4365 3.04 1.6224 0.6438 1.5196-0.8271 3.2821-2.5751 3.1421-9.5269 0.0082-19.058-0.033-28.585-0.0495-2.3069 0.0042-4.6048-0.8236-6.2678-2.3019-1.4485-1.2889-2.7674-2.6973-4.2158-3.978-0.6617-0.58061-1.6005-0.76592-2.4902-0.72474-3.0713 0.02471-6.1471-0.02059-9.2184 0.02059-2.888 0.06589-5.3782 2.4996-5.2932 5.1598 0 11.386-0.00894 22.772-0.00447 34.163-0.07153 2.7261 2.5885 5.1763 5.5525 5.1145 14.163 0.0082 28.326 0.0082 42.489-0.0041 2.964 0.0535 5.6285-2.4132 5.5301-5.1516 9e-3 -6.4447 0.0045-12.885-0.0044-19.33 0.0134-0.7536-0.0134-1.5978 0.5588-2.2073 0.9254-1.1612 3.0132-1.2271 4.0102-0.1112 0.6527 0.6095 0.6527 1.5113 0.6482 2.3102-0.0313 6.6053 0.0224 13.21-0.0268 19.816-0.085 4.9786-4.8864 9.3437-10.274 9.426-14.31 0.0371-28.621 0.0206-42.932 0.0083-4.1353 0.0411-8.1455-2.3349-9.7996-5.8311-0.7913-1.5237-0.96118-3.2367-0.94777-4.9004 0.035765-11.259-0.035765-22.517 0.026824-33.772 0.084942-4.3239 3.6793-8.2689 8.2438-9.2037z" fill="url(#paint0_linear)"/>
 <path d="m23.445 22.949c3.125-1.0748 6.2186 0.7206 8.6507 2.3719 1.3769 1.1201 0.1654 3.4591-1.6586 3.1668-1.7883-0.3789-3.049-1.9396-4.9356-2.1208-1.3948-0.0124-1.672 1.5236-1.6765 2.5202-0.0224 4.4104-0.0089 8.8166-0.0089 13.223 0.0313 0.9513 0.0938 2.2402 1.2026 2.6685 1.1892 0.1688 2.2263-0.5148 3.1965-1.0377 3.3842-1.9767 6.8132-3.8915 10.188-5.8723 0.9791-0.5806 2.0476-1.5772 1.6855-2.7508-0.5902-1.6884-2.7718-2.0466-3.8761-3.315-0.9388-1.3301 0.5499-3.2285 2.2175-2.792 2.727 1.0913 5.5078 3.1338 5.8028 6.0576 0.3085 2.4955-1.4619 4.7727-3.6838 6.0246-3.6748 2.1166-7.3452 4.2374-11.042 6.3252-1.976 1.116-4.6137 1.6307-6.7328 0.5354-2.0923-1.0501-3.049-3.3356-3.04-5.444-9e-3 -4.6698-0.0313-9.3478 0.0044-14.018 0.0135-2.269 1.2786-4.7275 3.7062-5.5428z" fill="url(#paint1_linear)"/>
 <defs>
  <linearGradient id="paint0_linear" x1="63.81" x2="10.927" y1="5.3423" y2="67.497" gradientUnits="userSpaceOnUse">
   <stop stop-color="#FE7970" offset="0"/>
   <stop stop-color="#DC3282" offset="1"/>
  </linearGradient>
  <linearGradient id="paint1_linear" x1="44.195" x2="18.515" y1="22.788" y2="46.893" gradientUnits="userSpaceOnUse">
   <stop stop-color="#FE7970" offset="0"/>
   <stop stop-color="#DC3282" offset="1"/>
  </linearGradient>
 </defs>
</svg>
