<?xml version="1.0" encoding="UTF-8"?>
<svg width="226" height="222" fill="none" version="1.1" viewBox="0 0 226 222" xmlns="http://www.w3.org/2000/svg" xmlns:xlink="http://www.w3.org/1999/xlink">
 <path d="m205.57 78.079c3.76 10.168 5.829 21.134 5.868 32.584v0.335c0 11.572-2.072 22.653-5.869 32.92-2.64 7.139-6.115 13.892-10.319 20.142l-7e-3 0.011c-1.757 2.622-3.65 5.16-5.663 7.603-6.44 7.812-14.097 14.62-22.697 20.148l-2e-3 1e-3c-3.169 2.039-6.458 3.9-9.858 5.566l-9e-3 4e-3c-13.227 6.503-28.17 10.168-44.012 10.168-15.843 0-30.786-3.665-44.013-10.168l-0.0086-4e-3c-3.4029-1.668-6.6959-3.529-9.8626-5.566-8.7116-5.604-16.461-12.52-22.953-20.462l-0.0043-5e-3c-2.0101-2.454-3.8985-5.014-5.6602-7.667l-0.0045-6e-3c-4.09-6.145-7.4768-12.772-10.066-19.775l-4e-4 -2e-3c-3.7954-10.261-5.8645-21.337-5.8645-32.906 0-53.204 43.944-96.562 98.436-96.562 27.335 0 52.033 10.919 69.863 28.535l1e-3 1e-3c5.136 5.0732 9.699 10.703 13.579 16.784l7e-3 0.0113c3.668 5.7255 6.733 11.858 9.117 18.308l1e-3 0.0014z" stroke="url(#paint0_linear)" stroke-width="15"/>
 <defs>
  <linearGradient id="paint0_linear" x1="113" x2="113" y1="215.06" y2="6.9384" gradientUnits="userSpaceOnUse">
   <stop stop-color="#5570FF" offset="0"/>
   <stop stop-color="#4DD3FF" offset="1"/>
  </linearGradient>
  <linearGradient id="linearGradient4926" x1="64.549" x2="122.64" y1="72.803" y2="72.803" gradientTransform="matrix(.38048 0 0 1.0674 -83.052 -69.472)" gradientUnits="userSpaceOnUse">
   <stop stop-color="#5570FF" offset="0"/>
   <stop stop-color="#4DD3FF" offset="1"/>
  </linearGradient>
 </defs>
 <g transform="matrix(2.3574 0 0 2.494 -105.17 -72.205)" fill="none" stroke="url(#linearGradient4926)" stroke-width="5.6192" aria-label="WR">
  <path d="m79.959 58.526h3.8477l4.4727 16.719q0.29297 1.0938 0.56641 2.1875 0.29297 1.0938 0.52734 2.1289 0.25391 1.0156 0.42969 1.9336 0.19531 0.91797 0.3125 1.6602 0.07813-0.74219 0.19531-1.6211 0.11719-0.87891 0.27344-1.8359 0.15625-0.97656 0.33203-1.9727 0.19531-1.0156 0.41016-1.9727l3.9062-17.227h3.8867l-7.168 28.555h-3.6719l-4.9609-18.32q-0.27344-0.99609-0.52734-2.0508-0.25391-1.0547-0.46875-1.9727-0.23438-1.0742-0.44922-2.0898-0.21484 0.99609-0.42969 2.0703-0.19531 0.91797-0.44922 2.0117-0.23438 1.0938-0.50781 2.1484l-4.7266 18.203h-3.6719l-7.5391-28.555h3.8477l4.3555 17.363q0.23438 0.89844 0.42969 1.875 0.19531 0.95703 0.35156 1.9141 0.17578 0.95703 0.3125 1.8555 0.13672 0.87891 0.23438 1.6211 0.09766-0.72266 0.23438-1.6797 0.15625-0.95703 0.35156-2.0117 0.19531-1.0547 0.41016-2.1289 0.23438-1.0938 0.48828-2.0508z"/>
  <path d="m107.03 75.284v11.797h-3.6328v-28.555h6.9531q5.1953 0 7.6758 2.0117t2.4805 6.0938q0 1.6992-0.48828 2.9688-0.46875 1.2695-1.2695 2.1875-0.78125 0.89844-1.7969 1.5039-1.0156 0.60547-2.0898 0.99609l7.7734 12.793h-4.2774l-6.8555-11.797zm0-3.0859h3.2031q1.7578 0 2.9883-0.33203 1.2305-0.35156 2.0117-1.0156 0.80078-0.68359 1.1524-1.6797 0.37109-1.0156 0.37109-2.3633 0-1.4062-0.41016-2.3828-0.39062-0.97656-1.2109-1.6016-0.80078-0.625-2.0508-0.89844-1.2305-0.29297-2.9297-0.29297h-3.125z"/>
 </g>
</svg>
