<?xml version="1.0" encoding="UTF-8"?>
<svg width="512" height="512" version="1.1" viewBox="0 0 512 512" xmlns="http://www.w3.org/2000/svg" xmlns:cc="http://creativecommons.org/ns#" xmlns:dc="http://purl.org/dc/elements/1.1/" xmlns:rdf="http://www.w3.org/1999/02/22-rdf-syntax-ns#" xmlns:xlink="http://www.w3.org/1999/xlink">
 <defs>
  <linearGradient id="linearGradient991" x1="168.45" x2="323.45" y1="255.58" y2="255.58" gradientTransform="matrix(1.2772 0 0 1.2772 -68.187 -70.856)" gradientUnits="userSpaceOnUse">
   <stop stop-color="#ff020d" offset="0"/>
   <stop stop-color="#a6ff3c" offset="1"/>
  </linearGradient>
 </defs>
 <metadata>
  <rdf:RDF>
   <cc:Work rdf:about="">
    <dc:format>image/svg+xml</dc:format>
    <dc:type rdf:resource="http://purl.org/dc/dcmitype/StillImage"/>
   </cc:Work>
  </rdf:RDF>
 </metadata>
 <path d="m244.37 35.572c-5.5886 5.7162-16.031 18.271-22.186 27.028-31.467 44.76-49.991 86.242-57.03 127.58-4.4571 26.145-4.0818 47.77 1.2537 74.301 1.3557 6.7432 2.5734 12.938 2.7171 13.753 0.13909 0.81993-3.4515 5.3593-7.9554 10.114-9.1651 9.6722-9.3789 10.279-12.571 34.152-3.6218 27.134-1.1395 62.26 6.5944 92.983 4.9232 19.544 8.3012 19.189 22.187-2.4016 4.4818-6.9694 9.4484-14.706 11.048-17.201 10.763-16.775 17.051-25.733 18.065-25.726 0.64664 4e-3 2.733 3.2664 4.6078 7.2614 2.5157 5.3624 4.3641 7.7342 7.1208 9.0012 2.0541 0.94515 15.254 1.817 29.334 1.9539l25.621 0.27712 4.7135-5.9159c2.5892-3.2561 5.825-7.6439 7.1577-9.7202 1.8712-2.916 2.5805-3.3157 3.2953-1.7413 3.192 7.0306 36.779 58.578 38.741 59.463 1.3217 0.59703 3.2047 0.26326 4.1864-0.70766 0.98165-0.97093 3.8957-11.752 6.4718-23.965 8.3004-39.354 9.3157-66.844 3.5958-97.242-2.3888-12.672-2.5793-13.029-10.639-21.237l-8.2197-8.3777 3.8774-16.975c8.9582-39.089 4.9319-77.401-13.125-124.48-8.7776-22.896-18.248-41.062-35.412-67.912-7.1646-11.209-27.972-37.294-29.771-37.31-0.45157-0.0024-1.8052 1.1281-3.6681 3.0335m-15.308 109.96c7.9185-7.8176 15.682-10.067 25.232-7.3278 15.326 4.3886 22.031 20.645 15.266 36.864-2.3302 5.5868-3.7403 7.2798-9.4558 11.135-1.6761 1.1315-8.173 2.0134-14.418 1.9791-10.874-0.0598-11.589-0.29397-16.964-5.7361-6.616-6.689-8.5762-13.2-7.1408-23.441 0.83656-5.9617 1.9661-8.0291 7.4763-13.469m-13.073 258.88c-3.8644 3.7468-8.4824 15.453-8.5308 24.086-0.0568 10.35 4.5916 18.92 18.763 34.792 15.885 17.791 20.519 19.21 29.163 8.8577 1.862-2.2296 7.5792-8.6748 12.692-14.271 12.775-13.981 15.858-24.51 11.367-38.776-2.2662-7.1989-11.93-19.773-14.7-19.134-3.364 0.77449-4.8608 7.2384-3.6709 15.714 1.395 9.9416-1.2272 17.068-10.277 27.86l-6.349 7.5336-6.5285-8.1354c-4.8226-5.9711-7.9566-12.053-11.894-23.031-2.938-8.2069-5.9273-15.473-6.6162-16.169-0.92243-0.93262-2.1347-0.57079-3.4231 0.67843" fill="none" fill-rule="evenodd" stroke="url(#linearGradient991)" stroke-width="14.077"/>
</svg>
