<?xml version="1.0" encoding="UTF-8"?>
<svg version="1.1" viewBox="0 0 48 48" xmlns="http://www.w3.org/2000/svg" xmlns:xlink="http://www.w3.org/1999/xlink">
 <defs>
  <linearGradient id="linearGradient1234">
   <stop offset="0"/>
   <stop stop-color="#e70000" offset="1"/>
  </linearGradient>
  <linearGradient id="linearGradient1236" x1="9" x2="38.996" y1="24.699" y2="24.699" gradientUnits="userSpaceOnUse" xlink:href="#linearGradient1234"/>
  <linearGradient id="linearGradient3120" x1="9" x2="38.996" y1="24.699" y2="24.699" gradientTransform="matrix(1.3012 0 0 1.3012 -5.7123 -7.2184)" gradientUnits="userSpaceOnUse" xlink:href="#linearGradient1234"/>
  <linearGradient id="linearGradient3215" x1="5.3477" x2="45.679" y1="24.916" y2="24.916" gradientUnits="userSpaceOnUse" xlink:href="#linearGradient1234"/>
 </defs>
 <g transform="translate(-.86753 -1.1302)" fill="none" stroke="url(#linearGradient1236)">
  <!-- color: #4e4e4e -->
  <path d="m33.834 5.6586-1.136 1.136 0.7497 0.41932c4.9666 2.7868 8.3331 8.0846 8.3331 14.188 0 8.1987-6.042 14.935-13.916 16.069l-0.31004 0.0432-2.0382 3.4359-2.0382-3.4359-0.31005-0.0432c-7.8745-1.1337-13.916-7.8703-13.916-16.069 0-6.1678 2.665-11.842 7.7141-14.604 0.3002-0.16759 0.3845-0.22231 0.7103-0.45167-0.05738-0.12539-0.63144-0.58345-0.64531-0.61464l0.27192 0.58451-0.27192-0.58451c-6.897 3.199-11.683 10.178-11.683 18.277 0 11.127 9.0364 20.163 20.168 20.163 11.127 0 20.163-9.0364 20.163-20.163 0-7.9989-4.6678-14.912-11.428-18.153zm-23.792 7.68c-1.272 2.4271-2.0915 5.1333-2.0915 8.0637 0 8.7072 6.3648 15.853 14.681 17.235l2.488 4.1932c-10.241-0.21593-18.471-8.5338-18.471-18.821 0-3.9849 1.2855-7.6319 3.3927-10.671zm30.989 0.07624c2.0763 3.0246 3.347 6.6429 3.347 10.595 0 10.287-8.2289 18.604-18.463 18.821l2.4854-4.1932c8.3166-1.3829 14.681-8.5282 14.681-17.235 0-2.8991-0.80351-5.5785-2.0509-7.9875zm-10.925-0.2338c-6.2575 1.6684-10.895 7.1088-16.105 10.747l0.62009 1.136c1.1528-0.47161 2.4301-1.0666 3.5554-1.5528 0.13399-0.05789 0.16945-0.05015 0.29988-0.1042l-2.0636 2.2872 0.74208 1.0318 1.3622-0.59468c-1.1689 3.1178-2.5603 5.8432-5.5071 6.9531l12.511 10.877 13.78-11.73-0.9465 0.15903c-2.4799 0.06748-4.7674-0.06678-6.3915-0.83356-1.6241-0.76679-2.6796-2.0707-2.9048-4.7905l-0.0026-0.0305-0.0051-0.02795c-0.0033-0.01874-0.03183-0.43627 0.06354-0.95301 0.09536-0.51674 0.29825-1.1806 0.70396-1.8908 0.81142-1.4203 2.4212-3.0503 5.7409-4.1068l1.2681-0.40408-1.0953-0.75478c-0.34178-0.23445-0.69874-0.29289-1.0902-0.33546-0.3915-0.04257-0.82373-0.04574-1.2758-0.03557-0.5987 0.01345-1.1845 0.03967-1.7739 0.06354 0.06637-0.29695 0.01106-0.49405 0.37866-0.89456 0.61922-0.67471 1.859-1.4046 4.4067-1.5553l1.4207-0.08388-0.99367-1.0191c-0.75746-0.77812-1.6782-1.2312-2.6989-1.352-0.90366-0.10697-1.9071 0.09963-2.981 0.40153-0.03352-0.02321-0.10385-0.08438-0.11945-0.09657-0.04904-0.03834-0.06656-0.04325-0.1601-0.20585l-0.56926 0.32783zm-0.01275 1.4054c0.03672 0.03485 0.07756 0.10537 0.11182 0.13215 0.15068 0.1178 0.2015 0.14059 0.27446 0.21093l0.27955 0.26684 0.36596-0.11436c1.1445-0.35782 2.0767-0.49307 2.8285-0.40408 0.19044 0.02254 0.3134 0.19694 0.4854 0.24651-1.5635 0.35837-2.7826 0.88992-3.4283 1.5934-0.89437 0.97453-1.0322 1.9703-0.9708 2.5286l0.06354 0.57689 0.58197 0.0026c0.78959 0.0025 1.6754-0.0628 2.4702-0.08895-2.1559 1.0923-3.7252 2.3872-4.4652 3.6824-0.48576 0.85028-0.73723 1.654-0.85644 2.2999-0.11664 0.632-0.11493 1.0604-0.06099 1.385 0.2602 3.0278 1.6621 4.8976 3.6367 5.8299 1.49 0.70345 3.283 0.86758 5.1437 0.90726l-11.042 8.6711-11.121-8.5567c3.2814-1.7382 4.8248-5.1545 6.0103-8.6787l0.46761-1.3901-1.4714 0.64296 2.8311-3.1386-1.6468 0.14232c-0.57954 0.05073-1.3511 0.39768-2.1093 0.70904 3.775-3.0886 7.4383-6.2164 11.622-7.4563zm-2.9226 2.0248c-0.24917 0.36734-0.36533 0.58405-0.18799 0.90933 0.10274 0.16162 0.44944 0.32959 0.67346 0.38629 0.22402 0.0567 0.33254 0.03438 0.60992-0.01525s0.79018-0.2189 1.0226-0.34922c0.23245-0.13032 0.32233-0.20937 0.39878-0.33105 0.07645-0.12168 0.09155-0.18618 0.08308-0.33373-0.0085-0.14755-0.05939-0.321-0.1906-0.50827-0.13121-0.18728-0.36189-0.54657-0.63026-0.53877-0.49983-0.02535-1.1954 0.0144-1.779 0.78067z" color="#000000" fill="url(#linearGradient3120)" stroke="url(#linearGradient3215)" stroke-width=".401"/>
 </g>
</svg>
