<?xml version="1.0" encoding="UTF-8"?>
<svg width="16" height="16" version="1.1" xmlns="http://www.w3.org/2000/svg">
 <path d="m4.8154 1.3571c-0.37587 0.072333-0.64067 0.39872-0.64025 0.78149v0.46136h-1.9113c-0.43664 0-0.75324 0.30671-0.75324 0.74382v9.7639c-1e-7 0.43711 0.31613 0.75324 0.75324 0.75324h3.0789c0.039903 0.43869 0.38447 0.75324 0.83798 0.75324h7.4665c0.48207 1e-6 0.8474-0.35591 0.8474-0.83798v-6.8168c-1e-6 -0.48207-0.36532-0.83798-0.8474-0.83798h-0.80973v-2.7776c0-0.43711-0.3166-0.74382-0.75324-0.74382h-1.676v-0.46136c-0.007396-0.43753-0.36274-0.7849-0.80032-0.78149h-4.6324c-0.052182-0.00518-0.098467-0.00518-0.15065 0zm0.18831 0.80973h4.5759v1.4877l0.68734 0.68734h-5.9506l0.68734-0.68734v-1.4877zm1.1769 4.4912h7.4665c0.18078 0 0.3013 0.12052 0.3013 0.3013v6.7509h0.0659c0 0.18078-0.12052 0.3013-0.3013 0.3013h-7.5324c-0.18078 0-0.3013-0.12052-0.3013-0.3013v-6.7509c3e-7 -0.18078 0.12052-0.3013 0.3013-0.3013zm1.2617 1.45v0.90389h5.122v-0.90389zm0 1.8078v0.84739h5.122v-0.84739zm0 1.7513v0.90389h5.122v-0.90389z" fill="#fff" stroke-width=".30138"/>
</svg>
