<?xml version="1.0" encoding="UTF-8" standalone="no"?>
<svg
   width="16"
   height="16"
   version="1.1"
   viewBox="0 0 16 16"
   id="svg8"
   sodipodi:docname="simplescreenrecorder-error.svg"
   inkscape:version="1.1.1 (3bf5ae0d25, 2021-09-20, custom)"
   xmlns:inkscape="http://www.inkscape.org/namespaces/inkscape"
   xmlns:sodipodi="http://sodipodi.sourceforge.net/DTD/sodipodi-0.dtd"
   xmlns="http://www.w3.org/2000/svg"
   xmlns:svg="http://www.w3.org/2000/svg"
   xmlns:rdf="http://www.w3.org/1999/02/22-rdf-syntax-ns#"
   xmlns:cc="http://creativecommons.org/ns#"
   xmlns:dc="http://purl.org/dc/elements/1.1/">
  <defs
     id="defs12" />
  <sodipodi:namedview
     id="namedview10"
     pagecolor="#ffffff"
     bordercolor="#666666"
     borderopacity="1.0"
     inkscape:pageshadow="2"
     inkscape:pageopacity="0.0"
     inkscape:pagecheckerboard="0"
     showgrid="false"
     inkscape:zoom="45.4375"
     inkscape:cx="7.9889959"
     inkscape:cy="8"
     inkscape:window-width="1920"
     inkscape:window-height="1080"
     inkscape:window-x="1920"
     inkscape:window-y="0"
     inkscape:window-maximized="1"
     inkscape:current-layer="svg8" />
  <metadata
     id="metadata2">
    <rdf:RDF>
      <cc:Work
         rdf:about="">
        <dc:format>image/svg+xml</dc:format>
        <dc:type
           rdf:resource="http://purl.org/dc/dcmitype/StillImage" />
      </cc:Work>
    </rdf:RDF>
  </metadata>
  <g
     transform="matrix(.65676 0 0 .65676 .35636 5.1355)"
     fill="#ececec"
     id="g6"
     style="fill:#ef555c;fill-opacity:1">
    <path
       d="m19.333-1.54c.738 0 1.364.24 1.887.723.519.48.781 1.06.781 1.74v8.616c0 .677-.261 1.257-.781 1.74-.523.48-1.149.72-1.887.72h-14.665c-.738 0-1.364-.24-1.887-.72-.519-.483-.781-1.064-.781-1.74v-8.616c0-.68.261-1.261.781-1.74.523-.483 1.149-.723 1.887-.723h2.334l.53-1.307c.132-.315.372-.584.723-.813.351-.226.709-.34 1.078-.34h5.335c.369 0 .727.115 1.078.34.351.229.591.498.723.813l.53 1.307m-4.998 11.08c1.285 0 2.385-.423 3.298-1.264.913-.845 1.368-1.859 1.368-3.044 0-1.185-.455-2.202-1.368-3.044-.913-.845-2.01-1.264-3.298-1.264-1.285 0-2.385.419-3.298 1.264-.913.842-1.368 1.859-1.368 3.044 0 1.185.455 2.199 1.368 3.044.913.842 2.01 1.264 3.298 1.264z"
       id="path4"
       style="fill:#ef555c;fill-opacity:1" />
  </g>
</svg>
