<?xml version="1.0" encoding="UTF-8"?>
<svg width="256" height="256" fill="none" version="1.1" viewBox="0 0 256 256" xmlns="http://www.w3.org/2000/svg" xmlns:xlink="http://www.w3.org/1999/xlink">
 <path d="m220.14 59.468c0.536 0.8497 0.859 1.9642 0.859 2.9689v183.21c0 4.062-3.22 7.354-7.192 7.354h-172.62c-3.9721 0-7.1923-3.292-7.1923-7.354v-236.29c0-4.0611 3.2202-7.3535 7.1923-7.3535h115.08c2.022 0 13.286 5.9573 14.731 7.3535l47.9 48.146c0 6e-4 0.132 0.2093 0.329 0.5219 0.245 0.3884 0.591 0.9371 0.912 1.4465zm-51.535-27.102c-1.88-1.9222-5.144-0.5911-5.144 2.0977v23.364c0 1.6569 1.343 3 3 3h22.851c2.657 0 4.003-3.1984 2.145-5.0977zm-116.61 200.13c0 1.657 1.3431 3 3 3h145c1.657 0 3-1.343 3-3v-150.5c0-1.6569-1.343-3-3-3h-36.538c-3.973 0-18.962-14.111-18.962-18.172v-38.328c0-1.6569-1.343-3-3-3h-86.5c-1.6569 0-3 1.3431-3 3z" clip-rule="evenodd" fill="url(#paint0_linear)" fill-rule="evenodd"/>
 <path d="m220.14 59.468 1.692-1.0671zm-49.141-50.115 1.418-1.4106-0.014-0.014-0.014-0.01372zm47.9 48.146 1.633-1.1549-0.097-0.1369-0.118-0.1188zm0.329 0.5219-1.692 1.0665zm-50.623-25.655-1.43 1.3984v1e-4zm22.852 23.364-1.43 1.3985v1e-4zm31.542 6.7069c0-1.3834-0.43-2.8677-1.167-4.036l-3.384 2.1341c0.335 0.5312 0.551 1.2759 0.551 1.9019zm0 5.7443v-5.7443h-4v5.7443zm0 177.46v-177.46h-4v177.46zm-9.192 9.354c5.118 0 9.192-4.23 9.192-9.354h-4c0 3-2.366 5.354-5.192 5.354zm-172.62 0h172.62v-4h-172.62zm-9.1923-9.354c0 5.125 4.074 9.354 9.1923 9.354v-4c-2.8259 0-5.1923-2.355-5.1923-5.354zm0-236.29v236.29h4v-236.29zm9.1923-9.3535c-5.1182 0-9.1923 4.2299-9.1923 9.3535h4c0-2.9986 2.3663-5.3535 5.1923-5.3535zm115.08 0h-115.08v4h115.08zm16.121 7.9152c-0.328-0.31644-0.802-0.65055-1.255-0.94885-0.49-0.32277-1.089-0.68948-1.752-1.0773-1.329-0.77687-2.969-1.6703-4.621-2.516-1.649-0.84443-3.337-1.6553-4.758-2.2605-0.708-0.30165-1.377-0.56372-1.957-0.75396-0.507-0.1667-1.175-0.35854-1.778-0.35854v4c-0.098 0 0.029-0.00568 0.53 0.15887 0.43 0.14099 0.984 0.35525 1.638 0.63392 1.305 0.55547 2.902 1.3212 4.502 2.1406 1.598 0.8181 3.171 1.6758 4.424 2.4086 0.628 0.367 1.162 0.69472 1.572 0.96502 0.205 0.1351 0.369 0.249 0.493 0.3407 0.133 0.0986 0.183 0.1444 0.182 0.1441zm47.928 48.174-47.9-48.146-2.836 2.8212 47.9 48.146zm0.603 0.8661c-0.099-0.1563-0.181-0.2865-0.238-0.3779-0.029-0.0457-0.052-0.0817-0.067-0.1064-8e-3 -0.0123-0.014-0.0219-0.018-0.0286-2e-3 -0.0032-4e-3 -0.0061-6e-3 -0.0083 0-1e-3 -1e-3 -0.0024-2e-3 -0.0039 0-6e-4 -2e-3 -0.0023-3e-3 -0.0044 0-8e-4 -2e-3 -0.0035-4e-3 -7e-3 -1e-3 -0.0014-4e-3 -0.0055-7e-3 -0.0107-2e-3 -0.0027-7e-3 -0.0098-0.01-0.0141-5e-3 -0.0076-0.021-0.0322-0.033-0.0491l-3.266 2.3098c-0.012-0.0169-0.028-0.0414-0.033-0.049-3e-3 -0.0044-8e-3 -0.0114-0.01-0.0142-3e-3 -0.0052-6e-3 -0.0092-7e-3 -0.0106-2e-3 -0.0034-3e-3 -6e-3 -4e-3 -0.0067-1e-3 -0.0019-2e-3 -0.0033-2e-3 -0.0034-1e-3 -7e-4 -1e-3 -9e-4 0-3e-4 0 0.0011 2e-3 0.0031 4e-3 0.0062 4e-3 0.0061 9e-3 0.0153 0.017 0.0276 0.015 0.0244 0.038 0.0602 0.067 0.1059 0.057 0.0912 0.14 0.2217 0.238 0.378zm0.912 1.4458c-0.322-0.509-0.667-1.0575-0.912-1.4458l-3.384 2.1329c0.245 0.3884 0.591 0.9374 0.912 1.4471zm-56.371-23.937c0-0.8967 1.088-1.3396 1.714-0.6993l2.86-2.7968c-3.134-3.204-8.574-0.9848-8.574 3.4961zm0 23.364v-23.364h-4v23.364zm1 1c-0.552 0-1-0.4476-1-1h-4c0 2.7614 2.238 5 5 5zm22.851 0h-22.851v4h22.851zm0.715-1.6991c0.619 0.6326 0.172 1.6991-0.715 1.6991v4c4.427 0 6.672-5.3303 3.575-8.4963zm-22.852-23.364 22.852 23.364 2.86-2.797-22.852-23.364zm-112.18 199.74c-0.5524 0-1-0.448-1-1h-4c0 2.762 2.2386 5 5 5zm145 0h-145v4h145zm1-1c0 0.552-0.448 1-1 1v4c2.762 0 5-2.238 5-5zm0-150.5v150.5h4v-150.5zm-1-1c0.552 0 1 0.4476 1 1h4c0-2.7614-2.238-5-5-5zm-36.538 0h36.538v-4h-36.538zm-20.962-20.172c0 1.0236 0.437 2.0535 0.891 2.896 0.489 0.906 1.161 1.8859 1.932 2.8815 1.547 1.9964 3.619 4.2163 5.79 6.2807 2.172 2.0652 4.493 4.0229 6.557 5.4794 1.029 0.7265 2.031 1.3549 2.944 1.81 0.849 0.4229 1.866 0.8243 2.848 0.8243v-4c0.029 0-0.048 0.0026-0.261-0.0654-0.203-0.0645-0.47-0.1732-0.802-0.3389-0.667-0.3324-1.488-0.838-2.423-1.4979-1.864-1.3162-4.035-3.1401-6.107-5.1102-2.073-1.971-3.996-4.0401-5.384-5.8317-0.696-0.8984-1.226-1.6872-1.573-2.3302-0.381-0.7065-0.412-1.006-0.412-0.9976zm0-38.328v38.328h4v-38.328zm-1-1c0.552 0 1 0.4476 1 1h4c0-2.7614-2.238-5-5-5zm-86.5 0h86.5v-4h-86.5zm-1 1c0-0.5523 0.4477-1 1-1v-4c-2.7615 0-5 2.2385-5 5zm0 210v-210h-4v210z" fill="url(#paint0_linear)"/>
 <defs>
  <linearGradient id="paint0_linear" x1="127.5" x2="127.5" y1="2" y2="253" gradientUnits="userSpaceOnUse">
   <stop stop-color="#F75050" offset="0"/>
   <stop stop-color="#A00909" offset="1"/>
  </linearGradient>
  <linearGradient id="paint0_linear-3" x1="127.62" x2=".6333" y1=".81146" y2="126.74" gradientTransform="translate(63.786 89.701)" gradientUnits="userSpaceOnUse" xlink:href="#paint0_linear">
   <stop stop-color="#d2a016" offset="0"/>
   <stop stop-color="#ae0000" offset="1"/>
  </linearGradient>
 </defs>
 <path d="m135.29 149.95h-15c-2.071 0-3.75 1.679-3.75 3.75v30c0 2.071 1.679 3.75 3.75 3.75h15c2.071 0 3.75-1.679 3.75-3.75v-30c0-2.071-1.679-3.75-3.75-3.75zm-3.75 30h-7.5v-22.5h7.5zm-3.75-90.25c-35.238 0-64 28.76-64 64 0 35.238 28.76 64 64 64 35.238 0 64-28.76 64-64 0-35.238-28.76-64-64-64zm0 120.5c-31.154 0-56.5-25.346-56.5-56.5s25.346-56.5 56.5-56.5c31.154 0 56.5 25.346 56.5 56.5s-25.346 56.5-56.5 56.5zm0-105.25c-26.881 0-48.75 21.869-48.75 48.75s21.869 48.75 48.75 48.75 48.75-21.869 48.75-48.75-21.869-48.75-48.75-48.75zm0 90c-22.745 0-41.25-18.505-41.25-41.25s18.505-41.25 41.25-41.25 41.25 18.505 41.25 41.25-18.505 41.25-41.25 41.25zm0-75c-6.2032 0-11.25 5.0468-11.25 11.25s5.0468 11.25 11.25 11.25 11.25-5.0468 11.25-11.25-5.0468-11.25-11.25-11.25zm0 15c-2.0677 0-3.75-1.6823-3.75-3.75s1.6823-3.75 3.75-3.75 3.75 1.6823 3.75 3.75-1.6823 3.75-3.75 3.75z" fill="url(#paint0_linear-3)"/>
</svg>
